<?xml version="1.0" encoding="utf-8" standalone="no"?>
<!DOCTYPE svg PUBLIC "-//W3C//DTD SVG 1.1//EN"
  "http://www.w3.org/Graphics/SVG/1.1/DTD/svg11.dtd">
<svg xmlns:xlink="http://www.w3.org/1999/xlink" width="720pt" height="288pt" viewBox="0 0 720 288" xmlns="http://www.w3.org/2000/svg" version="1.1">
 <metadata>
  <rdf:RDF xmlns:dc="http://purl.org/dc/elements/1.1/" xmlns:cc="http://creativecommons.org/ns#" xmlns:rdf="http://www.w3.org/1999/02/22-rdf-syntax-ns#">
   <cc:Work>
    <dc:type rdf:resource="http://purl.org/dc/dcmitype/StillImage"/>
    <dc:date>2025-08-19T16:52:58.894310</dc:date>
    <dc:format>image/svg+xml</dc:format>
    <dc:creator>
     <cc:Agent>
      <dc:title>Matplotlib v3.10.3, https://matplotlib.org/</dc:title>
     </cc:Agent>
    </dc:creator>
   </cc:Work>
  </rdf:RDF>
 </metadata>
 <defs>
  <style type="text/css">*{stroke-linejoin: round; stroke-linecap: butt}</style>
 </defs>
 <g id="figure_1">
  <g id="patch_1">
   <path d="M 0 288 
L 720 288 
L 720 0 
L 0 0 
L 0 288 
z
" style="fill: none"/>
  </g>
  <g id="axes_1">
   <g id="patch_2">
    <path d="M 30.58 260.12 
L 709.2 260.12 
L 709.2 29.76 
L 30.58 29.76 
z
" style="fill: #ffffff"/>
   </g>
   <g id="matplotlib.axis_1">
    <g id="xtick_1">
     <g id="line2d_1">
      <defs>
       <path id="m0ba5c7dd6c" d="M 0 0 
L 0 3.5 
" style="stroke: #000000; stroke-width: 0.8"/>
      </defs>
      <g>
       <use xlink:href="#m0ba5c7dd6c" x="61.426364" y="260.12" style="stroke: #000000; stroke-width: 0.8"/>
      </g>
     </g>
     <g id="text_1">
      <!-- 0.0 -->
      <g transform="translate(53.474801 274.718437) scale(0.1 -0.1)">
       <defs>
        <path id="DejaVuSans-30" d="M 2034 4250 
Q 1547 4250 1301 3770 
Q 1056 3291 1056 2328 
Q 1056 1369 1301 889 
Q 1547 409 2034 409 
Q 2525 409 2770 889 
Q 3016 1369 3016 2328 
Q 3016 3291 2770 3770 
Q 2525 4250 2034 4250 
z
M 2034 4750 
Q 2819 4750 3233 4129 
Q 3647 3509 3647 2328 
Q 3647 1150 3233 529 
Q 2819 -91 2034 -91 
Q 1250 -91 836 529 
Q 422 1150 422 2328 
Q 422 3509 836 4129 
Q 1250 4750 2034 4750 
z
" transform="scale(0.015625)"/>
        <path id="DejaVuSans-2e" d="M 684 794 
L 1344 794 
L 1344 0 
L 684 0 
L 684 794 
z
" transform="scale(0.015625)"/>
       </defs>
       <use xlink:href="#DejaVuSans-30"/>
       <use xlink:href="#DejaVuSans-2e" transform="translate(63.623047 0)"/>
       <use xlink:href="#DejaVuSans-30" transform="translate(95.410156 0)"/>
      </g>
     </g>
    </g>
    <g id="xtick_2">
     <g id="line2d_2">
      <g>
       <use xlink:href="#m0ba5c7dd6c" x="184.811818" y="260.12" style="stroke: #000000; stroke-width: 0.8"/>
      </g>
     </g>
     <g id="text_2">
      <!-- 0.2 -->
      <g transform="translate(176.860256 274.718437) scale(0.1 -0.1)">
       <defs>
        <path id="DejaVuSans-32" d="M 1228 531 
L 3431 531 
L 3431 0 
L 469 0 
L 469 531 
Q 828 903 1448 1529 
Q 2069 2156 2228 2338 
Q 2531 2678 2651 2914 
Q 2772 3150 2772 3378 
Q 2772 3750 2511 3984 
Q 2250 4219 1831 4219 
Q 1534 4219 1204 4116 
Q 875 4013 500 3803 
L 500 4441 
Q 881 4594 1212 4672 
Q 1544 4750 1819 4750 
Q 2544 4750 2975 4387 
Q 3406 4025 3406 3419 
Q 3406 3131 3298 2873 
Q 3191 2616 2906 2266 
Q 2828 2175 2409 1742 
Q 1991 1309 1228 531 
z
" transform="scale(0.015625)"/>
       </defs>
       <use xlink:href="#DejaVuSans-30"/>
       <use xlink:href="#DejaVuSans-2e" transform="translate(63.623047 0)"/>
       <use xlink:href="#DejaVuSans-32" transform="translate(95.410156 0)"/>
      </g>
     </g>
    </g>
    <g id="xtick_3">
     <g id="line2d_3">
      <g>
       <use xlink:href="#m0ba5c7dd6c" x="308.197273" y="260.12" style="stroke: #000000; stroke-width: 0.8"/>
      </g>
     </g>
     <g id="text_3">
      <!-- 0.4 -->
      <g transform="translate(300.24571 274.718437) scale(0.1 -0.1)">
       <defs>
        <path id="DejaVuSans-34" d="M 2419 4116 
L 825 1625 
L 2419 1625 
L 2419 4116 
z
M 2253 4666 
L 3047 4666 
L 3047 1625 
L 3713 1625 
L 3713 1100 
L 3047 1100 
L 3047 0 
L 2419 0 
L 2419 1100 
L 313 1100 
L 313 1709 
L 2253 4666 
z
" transform="scale(0.015625)"/>
       </defs>
       <use xlink:href="#DejaVuSans-30"/>
       <use xlink:href="#DejaVuSans-2e" transform="translate(63.623047 0)"/>
       <use xlink:href="#DejaVuSans-34" transform="translate(95.410156 0)"/>
      </g>
     </g>
    </g>
    <g id="xtick_4">
     <g id="line2d_4">
      <g>
       <use xlink:href="#m0ba5c7dd6c" x="431.582727" y="260.12" style="stroke: #000000; stroke-width: 0.8"/>
      </g>
     </g>
     <g id="text_4">
      <!-- 0.6 -->
      <g transform="translate(423.631165 274.718437) scale(0.1 -0.1)">
       <defs>
        <path id="DejaVuSans-36" d="M 2113 2584 
Q 1688 2584 1439 2293 
Q 1191 2003 1191 1497 
Q 1191 994 1439 701 
Q 1688 409 2113 409 
Q 2538 409 2786 701 
Q 3034 994 3034 1497 
Q 3034 2003 2786 2293 
Q 2538 2584 2113 2584 
z
M 3366 4563 
L 3366 3988 
Q 3128 4100 2886 4159 
Q 2644 4219 2406 4219 
Q 1781 4219 1451 3797 
Q 1122 3375 1075 2522 
Q 1259 2794 1537 2939 
Q 1816 3084 2150 3084 
Q 2853 3084 3261 2657 
Q 3669 2231 3669 1497 
Q 3669 778 3244 343 
Q 2819 -91 2113 -91 
Q 1303 -91 875 529 
Q 447 1150 447 2328 
Q 447 3434 972 4092 
Q 1497 4750 2381 4750 
Q 2619 4750 2861 4703 
Q 3103 4656 3366 4563 
z
" transform="scale(0.015625)"/>
       </defs>
       <use xlink:href="#DejaVuSans-30"/>
       <use xlink:href="#DejaVuSans-2e" transform="translate(63.623047 0)"/>
       <use xlink:href="#DejaVuSans-36" transform="translate(95.410156 0)"/>
      </g>
     </g>
    </g>
    <g id="xtick_5">
     <g id="line2d_5">
      <g>
       <use xlink:href="#m0ba5c7dd6c" x="554.968182" y="260.12" style="stroke: #000000; stroke-width: 0.8"/>
      </g>
     </g>
     <g id="text_5">
      <!-- 0.8 -->
      <g transform="translate(547.016619 274.718437) scale(0.1 -0.1)">
       <defs>
        <path id="DejaVuSans-38" d="M 2034 2216 
Q 1584 2216 1326 1975 
Q 1069 1734 1069 1313 
Q 1069 891 1326 650 
Q 1584 409 2034 409 
Q 2484 409 2743 651 
Q 3003 894 3003 1313 
Q 3003 1734 2745 1975 
Q 2488 2216 2034 2216 
z
M 1403 2484 
Q 997 2584 770 2862 
Q 544 3141 544 3541 
Q 544 4100 942 4425 
Q 1341 4750 2034 4750 
Q 2731 4750 3128 4425 
Q 3525 4100 3525 3541 
Q 3525 3141 3298 2862 
Q 3072 2584 2669 2484 
Q 3125 2378 3379 2068 
Q 3634 1759 3634 1313 
Q 3634 634 3220 271 
Q 2806 -91 2034 -91 
Q 1263 -91 848 271 
Q 434 634 434 1313 
Q 434 1759 690 2068 
Q 947 2378 1403 2484 
z
M 1172 3481 
Q 1172 3119 1398 2916 
Q 1625 2713 2034 2713 
Q 2441 2713 2670 2916 
Q 2900 3119 2900 3481 
Q 2900 3844 2670 4047 
Q 2441 4250 2034 4250 
Q 1625 4250 1398 4047 
Q 1172 3844 1172 3481 
z
" transform="scale(0.015625)"/>
       </defs>
       <use xlink:href="#DejaVuSans-30"/>
       <use xlink:href="#DejaVuSans-2e" transform="translate(63.623047 0)"/>
       <use xlink:href="#DejaVuSans-38" transform="translate(95.410156 0)"/>
      </g>
     </g>
    </g>
    <g id="xtick_6">
     <g id="line2d_6">
      <g>
       <use xlink:href="#m0ba5c7dd6c" x="678.353636" y="260.12" style="stroke: #000000; stroke-width: 0.8"/>
      </g>
     </g>
     <g id="text_6">
      <!-- 1.0 -->
      <g transform="translate(670.402074 274.718437) scale(0.1 -0.1)">
       <defs>
        <path id="DejaVuSans-31" d="M 794 531 
L 1825 531 
L 1825 4091 
L 703 3866 
L 703 4441 
L 1819 4666 
L 2450 4666 
L 2450 531 
L 3481 531 
L 3481 0 
L 794 0 
L 794 531 
z
" transform="scale(0.015625)"/>
       </defs>
       <use xlink:href="#DejaVuSans-31"/>
       <use xlink:href="#DejaVuSans-2e" transform="translate(63.623047 0)"/>
       <use xlink:href="#DejaVuSans-30" transform="translate(95.410156 0)"/>
      </g>
     </g>
    </g>
   </g>
   <g id="matplotlib.axis_2">
    <g id="ytick_1">
     <g id="line2d_7">
      <defs>
       <path id="mef6a335ad8" d="M 0 0 
L -3.5 0 
" style="stroke: #000000; stroke-width: 0.8"/>
      </defs>
      <g>
       <use xlink:href="#mef6a335ad8" x="30.58" y="255.160096" style="stroke: #000000; stroke-width: 0.8"/>
      </g>
     </g>
     <g id="text_7">
      <!-- 0 -->
      <g transform="translate(17.2175 258.959314) scale(0.1 -0.1)">
       <use xlink:href="#DejaVuSans-30"/>
      </g>
     </g>
    </g>
    <g id="ytick_2">
     <g id="line2d_8">
      <g>
       <use xlink:href="#mef6a335ad8" x="30.58" y="212.174258" style="stroke: #000000; stroke-width: 0.8"/>
      </g>
     </g>
     <g id="text_8">
      <!-- 2 -->
      <g transform="translate(17.2175 215.973477) scale(0.1 -0.1)">
       <use xlink:href="#DejaVuSans-32"/>
      </g>
     </g>
    </g>
    <g id="ytick_3">
     <g id="line2d_9">
      <g>
       <use xlink:href="#mef6a335ad8" x="30.58" y="169.18842" style="stroke: #000000; stroke-width: 0.8"/>
      </g>
     </g>
     <g id="text_9">
      <!-- 4 -->
      <g transform="translate(17.2175 172.987639) scale(0.1 -0.1)">
       <use xlink:href="#DejaVuSans-34"/>
      </g>
     </g>
    </g>
    <g id="ytick_4">
     <g id="line2d_10">
      <g>
       <use xlink:href="#mef6a335ad8" x="30.58" y="126.202583" style="stroke: #000000; stroke-width: 0.8"/>
      </g>
     </g>
     <g id="text_10">
      <!-- 6 -->
      <g transform="translate(17.2175 130.001801) scale(0.1 -0.1)">
       <use xlink:href="#DejaVuSans-36"/>
      </g>
     </g>
    </g>
    <g id="ytick_5">
     <g id="line2d_11">
      <g>
       <use xlink:href="#mef6a335ad8" x="30.58" y="83.216745" style="stroke: #000000; stroke-width: 0.8"/>
      </g>
     </g>
     <g id="text_11">
      <!-- 8 -->
      <g transform="translate(17.2175 87.015964) scale(0.1 -0.1)">
       <use xlink:href="#DejaVuSans-38"/>
      </g>
     </g>
    </g>
    <g id="ytick_6">
     <g id="line2d_12">
      <g>
       <use xlink:href="#mef6a335ad8" x="30.58" y="40.230907" style="stroke: #000000; stroke-width: 0.8"/>
      </g>
     </g>
     <g id="text_12">
      <!-- 10 -->
      <g transform="translate(10.855 44.030126) scale(0.1 -0.1)">
       <use xlink:href="#DejaVuSans-31"/>
       <use xlink:href="#DejaVuSans-30" transform="translate(63.623047 0)"/>
      </g>
     </g>
    </g>
   </g>
   <g id="line2d_13">
    <path d="M 61.426364 249.649091 
L 129.973838 248.940152 
L 198.521313 245.935396 
L 267.068788 234.690649 
L 335.616263 154.999241 
L 404.163737 154.999241 
L 472.711212 234.690649 
L 541.258687 245.935396 
L 609.806162 248.940152 
L 678.353636 249.649091 
" clip-path="url(#p9fc8d4a022)" style="fill: none; stroke: #1f77b4; stroke-width: 1.5; stroke-linecap: square"/>
   </g>
   <g id="line2d_14">
    <path d="M 61.426364 249.649091 
L 64.233411 249.537919 
L 66.873886 249.214614 
L 69.236741 248.705607 
L 71.297299 248.038648 
L 73.092575 247.227356 
L 74.665755 246.275442 
L 76.066194 245.170007 
L 77.337077 243.881852 
L 78.496912 242.387329 
L 79.576546 240.628634 
L 80.594486 238.534565 
L 81.556902 236.03121 
L 82.469963 233.021429 
L 83.346009 229.346352 
L 84.191208 224.805279 
L 85.00556 219.16356 
L 85.789065 212.12335 
L 86.554063 203.150786 
L 87.300552 191.657169 
L 88.040872 176.649307 
L 88.787362 156.773283 
L 89.589375 129.111147 
L 90.792395 78.340992 
L 91.563562 50.37514 
L 91.983077 41.993093 
L 92.23602 40.259441 
L 92.291544 40.238406 
L 92.32856 40.296908 
L 92.445777 40.863264 
L 92.649365 43.193537 
L 92.957832 49.728639 
L 93.426701 65.13742 
L 94.438472 107.981503 
L 95.505767 148.797841 
L 96.350966 172.985032 
L 97.165318 190.234777 
L 97.97967 202.993431 
L 98.81253 212.692086 
L 99.663898 220.11978 
L 100.546113 225.93889 
L 101.459175 230.531268 
L 102.409252 234.205825 
L 103.396346 237.164374 
L 104.432794 239.586868 
L 105.524766 241.585175 
L 106.684601 243.250348 
L 107.924637 244.64629 
L 109.275721 245.833148 
L 110.762531 246.84181 
L 112.422082 247.696356 
L 114.29756 248.408486 
L 116.432149 248.977117 
L 118.850528 249.387493 
L 121.52802 249.613692 
L 124.341236 249.628241 
L 127.098929 249.422601 
L 129.628356 249.014956 
L 131.855485 248.435618 
L 133.792656 247.706757 
L 135.489223 246.833754 
L 136.982202 245.817858 
L 138.320948 244.638919 
L 139.542476 243.264438 
L 140.665295 241.662667 
L 141.714082 239.773369 
L 142.707345 237.513722 
L 143.645083 234.814991 
L 144.545806 231.523649 
L 145.409513 227.493434 
L 146.236204 222.541478 
L 147.038217 216.3342 
L 147.815554 208.504045 
L 148.568212 198.584238 
L 149.308532 185.767249 
L 150.048853 168.900447 
L 150.81385 146.080653 
L 151.677557 113.150071 
L 153.330939 48.429771 
L 153.719607 41.503362 
L 153.954041 40.233666 
L 154.028073 40.313921 
L 154.15146 40.961156 
L 154.361217 43.49732 
L 154.675853 50.408783 
L 155.157061 66.584181 
L 156.360082 117.584319 
L 157.341006 153.384312 
L 158.180035 176.247525 
L 158.994387 192.646234 
L 159.814909 204.862253 
L 160.647769 214.087665 
L 161.505307 221.21701 
L 162.393691 226.807055 
L 163.312922 231.223359 
L 164.269168 234.760994 
L 165.268601 237.628166 
L 166.311218 239.962121 
L 167.40936 241.88944 
L 168.581533 243.504466 
L 169.840077 244.863232 
L 171.20967 246.015606 
L 172.721157 246.995831 
L 174.411554 247.824961 
L 176.330217 248.514419 
L 178.514162 249.058311 
L 180.981895 249.439757 
L 183.690233 249.631538 
L 186.509619 249.60876 
L 189.236465 249.367363 
L 191.716537 248.928909 
L 193.894312 248.322742 
L 195.788298 247.569072 
L 197.447849 246.671993 
L 198.916151 245.626507 
L 200.236388 244.412193 
L 201.439408 243.000173 
L 202.549889 241.348837 
L 203.586337 239.402911 
L 204.567261 237.077685 
L 205.49883 234.283063 
L 206.393384 230.871934 
L 207.250921 226.691801 
L 208.077612 221.508503 
L 208.873456 215.049617 
L 209.644623 206.899428 
L 210.397282 196.479395 
L 211.137602 182.997951 
L 211.877922 165.264394 
L 212.649089 141.156752 
L 213.56215 104.99456 
L 214.925573 51.022387 
L 215.351257 42.207538 
L 215.610369 40.279312 
L 215.672063 40.234988 
L 215.715248 40.299856 
L 215.832466 40.872286 
L 216.036054 43.212708 
L 216.34452 49.761348 
L 216.81339 65.184468 
L 217.83133 108.297247 
L 218.892455 148.83847 
L 219.737654 173.015295 
L 220.552006 190.257152 
L 221.366358 203.010026 
L 222.199219 212.704463 
L 223.050587 220.129103 
L 223.932802 225.945969 
L 224.845863 230.536691 
L 225.795941 234.210011 
L 226.783034 237.167631 
L 227.819482 239.589415 
L 228.911454 241.587172 
L 230.071289 243.251915 
L 231.311326 244.647517 
L 232.66241 245.834102 
L 234.149219 246.842542 
L 235.80877 247.696904 
L 237.684248 248.408882 
L 239.818838 248.977385 
L 242.237217 249.387648 
L 244.914708 249.613747 
L 247.727924 249.628199 
L 250.485617 249.422456 
L 253.015044 249.014697 
L 255.242174 248.435228 
L 257.179345 247.70621 
L 258.875912 246.833021 
L 260.368891 245.816901 
L 261.707636 244.637689 
L 262.929164 243.262874 
L 264.051983 241.66069 
L 265.10077 239.770875 
L 266.094033 237.510569 
L 267.031772 234.810999 
L 267.932495 231.518566 
L 268.796202 227.486926 
L 269.622892 222.533104 
L 270.424906 216.323339 
L 271.202242 208.489867 
L 271.954901 198.565657 
L 272.695221 185.742812 
L 273.435541 168.868335 
L 274.200538 146.038943 
L 275.070415 112.839497 
L 276.711458 48.552812 
L 277.100126 41.554645 
L 277.33456 40.236568 
L 277.390084 40.263406 
L 277.414762 40.317223 
L 277.538148 40.970843 
L 277.747906 43.517404 
L 278.068711 50.61163 
L 278.556089 67.111759 
L 281.289104 169.460084 
L 282.103456 187.627343 
L 282.917808 201.060967 
L 283.744499 211.187578 
L 284.595867 218.988193 
L 285.471912 225.044006 
L 286.378805 229.818386 
L 287.322713 233.634439 
L 288.303637 236.703473 
L 289.327746 239.200561 
L 290.40738 241.26181 
L 291.554876 242.980581 
L 292.782574 244.422449 
L 294.108981 245.639495 
L 295.564944 246.674297 
L 297.187479 247.553486 
L 299.019771 248.290539 
L 301.105006 248.885739 
L 303.47403 249.326559 
L 306.108336 249.587885 
L 308.909214 249.642027 
L 311.691584 249.475559 
L 314.270366 249.102336 
L 316.553019 248.552045 
L 318.539545 247.849335 
L 320.273128 247.004199 
L 321.803123 246.012866 
L 323.166546 244.865585 
L 324.406582 243.529982 
L 325.547909 241.969502 
L 326.609034 240.136108 
L 327.608467 237.956549 
L 328.558544 235.336613 
L 329.465436 232.16259 
L 330.335312 228.279279 
L 331.168173 223.511257 
L 331.976355 217.53839 
L 332.753691 210.074047 
L 333.51252 200.551266 
L 334.25284 188.35304 
L 334.99316 172.300488 
L 335.745819 150.909137 
L 336.578679 120.458632 
L 338.528188 45.713162 
L 338.873671 40.840985 
L 339.046413 40.23107 
L 339.064921 40.240501 
L 339.151291 40.476083 
L 339.311694 41.741947 
L 339.564637 45.828788 
L 339.940966 56.02063 
L 340.557899 79.780068 
L 342.334668 150.690031 
L 343.179867 174.392702 
L 343.994219 191.275394 
L 344.808571 203.765474 
L 345.641431 213.268188 
L 346.498969 220.599702 
L 347.381183 226.303512 
L 348.294245 230.810794 
L 349.244322 234.421755 
L 350.237585 237.348494 
L 351.274033 239.730869 
L 352.366006 241.698163 
L 353.52584 243.339054 
L 354.772046 244.721849 
L 356.1293 245.896581 
L 357.622279 246.894069 
L 359.294168 247.740945 
L 361.181984 248.444572 
L 363.335082 249.00536 
L 365.771969 249.406139 
L 368.461799 249.620592 
L 371.281185 249.622054 
L 374.026539 249.403886 
L 376.537458 248.985641 
L 378.74608 248.397359 
L 380.670912 247.658784 
L 382.348971 246.780548 
L 383.83578 245.75323 
L 385.168357 244.562134 
L 386.383716 243.17466 
L 387.500365 241.559165 
L 388.549152 239.642723 
L 389.536245 237.364494 
L 390.473984 234.625987 
L 391.368538 231.308667 
L 392.226075 227.251045 
L 393.052766 222.229448 
L 393.85478 215.929351 
L 394.625946 208.047276 
L 395.378605 197.985481 
L 396.118925 184.979684 
L 396.859245 167.865746 
L 397.624243 144.737949 
L 398.500288 110.968509 
L 400.073469 49.148184 
L 400.474475 41.67366 
L 400.715079 40.240501 
L 400.764434 40.247594 
L 400.795281 40.3044 
L 400.918667 40.932475 
L 401.128425 43.437419 
L 401.443061 50.307997 
L 401.924269 66.440818 
L 403.096443 116.158117 
L 404.089705 152.683598 
L 404.928735 175.727172 
L 405.743087 192.261685 
L 406.557439 204.497694 
L 407.390299 213.815138 
L 408.247837 221.011598 
L 409.136221 226.650951 
L 410.055452 231.103634 
L 411.011699 234.668459 
L 412.004961 237.540486 
L 413.047579 239.893506 
L 414.14572 241.835572 
L 415.311725 243.454628 
L 416.5641 244.818322 
L 417.927522 245.976157 
L 419.43284 246.962142 
L 421.117068 247.797182 
L 423.023393 248.490754 
L 425.194998 249.040081 
L 427.650394 249.428116 
L 430.352562 249.627966 
L 433.171948 249.613775 
L 435.904963 249.380663 
L 438.397374 248.949096 
L 440.587488 248.348695 
L 442.493812 247.599408 
L 444.159532 246.708682 
L 445.634003 245.669323 
L 446.954241 244.467092 
L 448.157261 243.069896 
L 449.273911 241.426736 
L 450.316528 239.488279 
L 451.297452 237.185531 
L 452.235191 234.399088 
L 453.129745 231.019787 
L 453.987282 226.881248 
L 454.813973 221.752886 
L 455.609817 215.366698 
L 456.380984 207.313371 
L 457.133643 197.022755 
L 457.873963 183.713021 
L 458.614283 166.202641 
L 459.38545 142.370106 
L 460.286173 107.006131 
L 461.717458 50.442473 
L 462.136973 42.022994 
L 462.389916 40.263406 
L 462.44544 40.236568 
L 462.488625 40.305946 
L 462.612012 40.937216 
L 462.821769 43.447365 
L 463.136405 50.324765 
L 463.617613 66.464696 
L 464.795956 116.438979 
L 465.78305 152.703132 
L 466.622079 175.741684 
L 467.436431 192.27241 
L 468.250783 204.505658 
L 469.083643 213.82109 
L 469.941181 221.016083 
L 470.829565 226.654358 
L 471.748796 231.106247 
L 472.705043 234.670478 
L 473.698306 237.542058 
L 474.740923 239.894736 
L 475.839065 241.836537 
L 477.005069 243.455386 
L 478.257444 244.818916 
L 479.620867 245.976618 
L 481.126184 246.962495 
L 482.810413 247.797446 
L 484.716737 248.490943 
L 486.888343 249.040207 
L 489.343738 249.428187 
L 492.045906 249.627987 
L 494.865292 249.613747 
L 497.598307 249.380583 
L 500.090718 248.948959 
L 502.280832 248.34849 
L 504.187156 247.599123 
L 505.852877 246.708301 
L 507.327348 245.668828 
L 508.647585 244.466456 
L 509.850605 243.069089 
L 510.967255 241.425716 
L 512.009872 239.486992 
L 512.990797 237.183905 
L 513.928535 234.397025 
L 514.823089 231.017159 
L 515.680626 226.877882 
L 516.507317 221.748545 
L 517.303161 215.361068 
L 518.074328 207.306023 
L 518.826987 197.013113 
L 519.567307 183.700332 
L 520.307627 166.185988 
L 521.078794 142.348549 
L 521.979517 106.979732 
L 523.410802 50.425622 
L 523.830317 42.015496 
L 524.08326 40.262391 
L 524.138784 40.237003 
L 524.181969 40.307509 
L 524.305356 40.941972 
L 524.515113 43.457327 
L 524.829749 50.341545 
L 525.310957 66.48858 
L 526.49547 116.719495 
L 527.482563 152.917744 
L 528.321593 175.901097 
L 529.135945 192.39022 
L 529.950297 204.593154 
L 530.783157 213.886485 
L 531.640695 221.065363 
L 532.529079 226.691801 
L 533.448309 231.134958 
L 534.404556 234.692665 
L 535.397819 237.559336 
L 536.440437 239.908255 
L 537.538578 241.847148 
L 538.704582 243.46372 
L 539.956957 244.82544 
L 541.32038 245.981684 
L 542.825698 246.966372 
L 544.509926 247.800343 
L 546.41625 248.493022 
L 548.587856 249.041592 
L 551.043251 249.428969 
L 553.74542 249.62822 
L 556.564806 249.613443 
L 559.297821 249.379713 
L 561.790232 248.94745 
L 563.980346 248.346238 
L 565.88667 247.595991 
L 567.55239 246.704116 
L 569.026861 245.663374 
L 570.347099 244.459465 
L 571.550119 243.060212 
L 572.660599 241.424696 
L 573.703217 239.485704 
L 574.684141 237.182278 
L 575.62188 234.394962 
L 576.516433 231.014531 
L 577.373971 226.874515 
L 578.200661 221.744204 
L 578.996506 215.355437 
L 579.767672 207.298674 
L 580.520331 197.003468 
L 581.260651 183.68764 
L 582.000971 166.169331 
L 582.772138 142.326988 
L 583.672861 106.953331 
L 585.104147 50.408783 
L 585.523661 42.008013 
L 585.776604 40.261391 
L 585.832128 40.237454 
L 585.875313 40.309088 
L 585.9987 40.946745 
L 586.208457 43.467303 
L 586.523094 50.358337 
L 587.004302 66.512471 
L 588.188814 116.744979 
L 589.175907 152.93723 
L 590.014937 175.915569 
L 590.829289 192.400915 
L 591.643641 204.601097 
L 592.476501 213.892423 
L 593.334039 221.069838 
L 594.222423 226.695201 
L 595.141654 231.137566 
L 596.097901 234.69468 
L 597.091163 237.560906 
L 598.133781 239.909483 
L 599.231922 241.848112 
L 600.397927 243.464477 
L 601.650302 244.826033 
L 603.013724 245.982144 
L 604.519042 246.966725 
L 606.20327 247.800606 
L 608.109595 248.493211 
L 610.2812 249.041718 
L 612.736595 249.42904 
L 615.438764 249.628241 
L 618.25815 249.613416 
L 620.991165 249.379634 
L 623.483576 248.947312 
L 625.67369 248.346033 
L 627.580014 247.595706 
L 629.245734 246.703736 
L 630.720205 245.662878 
L 632.040443 244.458829 
L 633.243463 243.059405 
L 634.353943 241.423676 
L 635.396561 239.484416 
L 636.377485 237.180652 
L 637.315224 234.392899 
L 638.209777 231.011902 
L 639.067315 226.871148 
L 639.894006 221.739862 
L 640.68985 215.349805 
L 641.461017 207.291323 
L 642.213675 196.993821 
L 642.953995 183.674946 
L 643.694316 166.152671 
L 644.465482 142.305423 
L 645.366205 106.926929 
L 646.797491 50.391956 
L 647.217006 42.000545 
L 647.469948 40.260408 
L 647.525472 40.237922 
L 647.568658 40.310683 
L 647.692044 40.951533 
L 647.901802 43.477294 
L 648.216438 50.37514 
L 648.697646 66.536368 
L 649.888327 117.025112 
L 650.875421 153.151315 
L 651.71445 176.074547 
L 652.528802 192.518402 
L 653.349324 204.767508 
L 654.182184 214.016824 
L 655.039722 221.163603 
L 655.928106 226.76646 
L 656.847337 231.192218 
L 657.803583 234.73692 
L 658.803016 237.609439 
L 659.845633 239.947463 
L 660.943775 241.87793 
L 662.115948 243.495435 
L 663.374492 244.856168 
L 664.744085 246.010124 
L 666.255572 246.991639 
L 667.945969 247.821832 
L 669.858463 248.51031 
L 672.036238 249.054344 
L 674.497802 249.436844 
L 677.20614 249.630716 
L 678.353636 249.649091 
L 678.353636 249.649091 
" clip-path="url(#p9fc8d4a022)" style="fill: none; stroke: #ff7f0e; stroke-width: 1.5; stroke-linecap: square"/>
   </g>
   <g id="patch_3">
    <path d="M 30.58 260.12 
L 30.58 29.76 
" style="fill: none; stroke: #000000; stroke-width: 0.8; stroke-linejoin: miter; stroke-linecap: square"/>
   </g>
   <g id="patch_4">
    <path d="M 709.2 260.12 
L 709.2 29.76 
" style="fill: none; stroke: #000000; stroke-width: 0.8; stroke-linejoin: miter; stroke-linecap: square"/>
   </g>
   <g id="patch_5">
    <path d="M 30.58 260.12 
L 709.2 260.12 
" style="fill: none; stroke: #000000; stroke-width: 0.8; stroke-linejoin: miter; stroke-linecap: square"/>
   </g>
   <g id="patch_6">
    <path d="M 30.58 29.76 
L 709.2 29.76 
" style="fill: none; stroke: #000000; stroke-width: 0.8; stroke-linejoin: miter; stroke-linecap: square"/>
   </g>
   <g id="text_13">
    <!-- 1D Diffusion Coefficient -->
    <g transform="translate(275.10625 23.76) scale(0.16 -0.16)">
     <defs>
      <path id="DejaVuSans-44" d="M 1259 4147 
L 1259 519 
L 2022 519 
Q 2988 519 3436 956 
Q 3884 1394 3884 2338 
Q 3884 3275 3436 3711 
Q 2988 4147 2022 4147 
L 1259 4147 
z
M 628 4666 
L 1925 4666 
Q 3281 4666 3915 4102 
Q 4550 3538 4550 2338 
Q 4550 1131 3912 565 
Q 3275 0 1925 0 
L 628 0 
L 628 4666 
z
" transform="scale(0.015625)"/>
      <path id="DejaVuSans-20" transform="scale(0.015625)"/>
      <path id="DejaVuSans-69" d="M 603 3500 
L 1178 3500 
L 1178 0 
L 603 0 
L 603 3500 
z
M 603 4863 
L 1178 4863 
L 1178 4134 
L 603 4134 
L 603 4863 
z
" transform="scale(0.015625)"/>
      <path id="DejaVuSans-66" d="M 2375 4863 
L 2375 4384 
L 1825 4384 
Q 1516 4384 1395 4259 
Q 1275 4134 1275 3809 
L 1275 3500 
L 2222 3500 
L 2222 3053 
L 1275 3053 
L 1275 0 
L 697 0 
L 697 3053 
L 147 3053 
L 147 3500 
L 697 3500 
L 697 3744 
Q 697 4328 969 4595 
Q 1241 4863 1831 4863 
L 2375 4863 
z
" transform="scale(0.015625)"/>
      <path id="DejaVuSans-75" d="M 544 1381 
L 544 3500 
L 1119 3500 
L 1119 1403 
Q 1119 906 1312 657 
Q 1506 409 1894 409 
Q 2359 409 2629 706 
Q 2900 1003 2900 1516 
L 2900 3500 
L 3475 3500 
L 3475 0 
L 2900 0 
L 2900 538 
Q 2691 219 2414 64 
Q 2138 -91 1772 -91 
Q 1169 -91 856 284 
Q 544 659 544 1381 
z
M 1991 3584 
L 1991 3584 
z
" transform="scale(0.015625)"/>
      <path id="DejaVuSans-73" d="M 2834 3397 
L 2834 2853 
Q 2591 2978 2328 3040 
Q 2066 3103 1784 3103 
Q 1356 3103 1142 2972 
Q 928 2841 928 2578 
Q 928 2378 1081 2264 
Q 1234 2150 1697 2047 
L 1894 2003 
Q 2506 1872 2764 1633 
Q 3022 1394 3022 966 
Q 3022 478 2636 193 
Q 2250 -91 1575 -91 
Q 1294 -91 989 -36 
Q 684 19 347 128 
L 347 722 
Q 666 556 975 473 
Q 1284 391 1588 391 
Q 1994 391 2212 530 
Q 2431 669 2431 922 
Q 2431 1156 2273 1281 
Q 2116 1406 1581 1522 
L 1381 1569 
Q 847 1681 609 1914 
Q 372 2147 372 2553 
Q 372 3047 722 3315 
Q 1072 3584 1716 3584 
Q 2034 3584 2315 3537 
Q 2597 3491 2834 3397 
z
" transform="scale(0.015625)"/>
      <path id="DejaVuSans-6f" d="M 1959 3097 
Q 1497 3097 1228 2736 
Q 959 2375 959 1747 
Q 959 1119 1226 758 
Q 1494 397 1959 397 
Q 2419 397 2687 759 
Q 2956 1122 2956 1747 
Q 2956 2369 2687 2733 
Q 2419 3097 1959 3097 
z
M 1959 3584 
Q 2709 3584 3137 3096 
Q 3566 2609 3566 1747 
Q 3566 888 3137 398 
Q 2709 -91 1959 -91 
Q 1206 -91 779 398 
Q 353 888 353 1747 
Q 353 2609 779 3096 
Q 1206 3584 1959 3584 
z
" transform="scale(0.015625)"/>
      <path id="DejaVuSans-6e" d="M 3513 2113 
L 3513 0 
L 2938 0 
L 2938 2094 
Q 2938 2591 2744 2837 
Q 2550 3084 2163 3084 
Q 1697 3084 1428 2787 
Q 1159 2491 1159 1978 
L 1159 0 
L 581 0 
L 581 3500 
L 1159 3500 
L 1159 2956 
Q 1366 3272 1645 3428 
Q 1925 3584 2291 3584 
Q 2894 3584 3203 3211 
Q 3513 2838 3513 2113 
z
" transform="scale(0.015625)"/>
      <path id="DejaVuSans-43" d="M 4122 4306 
L 4122 3641 
Q 3803 3938 3442 4084 
Q 3081 4231 2675 4231 
Q 1875 4231 1450 3742 
Q 1025 3253 1025 2328 
Q 1025 1406 1450 917 
Q 1875 428 2675 428 
Q 3081 428 3442 575 
Q 3803 722 4122 1019 
L 4122 359 
Q 3791 134 3420 21 
Q 3050 -91 2638 -91 
Q 1578 -91 968 557 
Q 359 1206 359 2328 
Q 359 3453 968 4101 
Q 1578 4750 2638 4750 
Q 3056 4750 3426 4639 
Q 3797 4528 4122 4306 
z
" transform="scale(0.015625)"/>
      <path id="DejaVuSans-65" d="M 3597 1894 
L 3597 1613 
L 953 1613 
Q 991 1019 1311 708 
Q 1631 397 2203 397 
Q 2534 397 2845 478 
Q 3156 559 3463 722 
L 3463 178 
Q 3153 47 2828 -22 
Q 2503 -91 2169 -91 
Q 1331 -91 842 396 
Q 353 884 353 1716 
Q 353 2575 817 3079 
Q 1281 3584 2069 3584 
Q 2775 3584 3186 3129 
Q 3597 2675 3597 1894 
z
M 3022 2063 
Q 3016 2534 2758 2815 
Q 2500 3097 2075 3097 
Q 1594 3097 1305 2825 
Q 1016 2553 972 2059 
L 3022 2063 
z
" transform="scale(0.015625)"/>
      <path id="DejaVuSans-63" d="M 3122 3366 
L 3122 2828 
Q 2878 2963 2633 3030 
Q 2388 3097 2138 3097 
Q 1578 3097 1268 2742 
Q 959 2388 959 1747 
Q 959 1106 1268 751 
Q 1578 397 2138 397 
Q 2388 397 2633 464 
Q 2878 531 3122 666 
L 3122 134 
Q 2881 22 2623 -34 
Q 2366 -91 2075 -91 
Q 1284 -91 818 406 
Q 353 903 353 1747 
Q 353 2603 823 3093 
Q 1294 3584 2113 3584 
Q 2378 3584 2631 3529 
Q 2884 3475 3122 3366 
z
" transform="scale(0.015625)"/>
      <path id="DejaVuSans-74" d="M 1172 4494 
L 1172 3500 
L 2356 3500 
L 2356 3053 
L 1172 3053 
L 1172 1153 
Q 1172 725 1289 603 
Q 1406 481 1766 481 
L 2356 481 
L 2356 0 
L 1766 0 
Q 1100 0 847 248 
Q 594 497 594 1153 
L 594 3053 
L 172 3053 
L 172 3500 
L 594 3500 
L 594 4494 
L 1172 4494 
z
" transform="scale(0.015625)"/>
     </defs>
     <use xlink:href="#DejaVuSans-31"/>
     <use xlink:href="#DejaVuSans-44" transform="translate(63.623047 0)"/>
     <use xlink:href="#DejaVuSans-20" transform="translate(140.625 0)"/>
     <use xlink:href="#DejaVuSans-44" transform="translate(172.412109 0)"/>
     <use xlink:href="#DejaVuSans-69" transform="translate(249.414062 0)"/>
     <use xlink:href="#DejaVuSans-66" transform="translate(277.197266 0)"/>
     <use xlink:href="#DejaVuSans-66" transform="translate(312.402344 0)"/>
     <use xlink:href="#DejaVuSans-75" transform="translate(347.607422 0)"/>
     <use xlink:href="#DejaVuSans-73" transform="translate(410.986328 0)"/>
     <use xlink:href="#DejaVuSans-69" transform="translate(463.085938 0)"/>
     <use xlink:href="#DejaVuSans-6f" transform="translate(490.869141 0)"/>
     <use xlink:href="#DejaVuSans-6e" transform="translate(552.050781 0)"/>
     <use xlink:href="#DejaVuSans-20" transform="translate(615.429688 0)"/>
     <use xlink:href="#DejaVuSans-43" transform="translate(647.216797 0)"/>
     <use xlink:href="#DejaVuSans-6f" transform="translate(717.041016 0)"/>
     <use xlink:href="#DejaVuSans-65" transform="translate(778.222656 0)"/>
     <use xlink:href="#DejaVuSans-66" transform="translate(839.746094 0)"/>
     <use xlink:href="#DejaVuSans-66" transform="translate(874.951172 0)"/>
     <use xlink:href="#DejaVuSans-69" transform="translate(910.15625 0)"/>
     <use xlink:href="#DejaVuSans-63" transform="translate(937.939453 0)"/>
     <use xlink:href="#DejaVuSans-69" transform="translate(992.919922 0)"/>
     <use xlink:href="#DejaVuSans-65" transform="translate(1020.703125 0)"/>
     <use xlink:href="#DejaVuSans-6e" transform="translate(1082.226562 0)"/>
     <use xlink:href="#DejaVuSans-74" transform="translate(1145.605469 0)"/>
    </g>
   </g>
   <g id="legend_1">
    <g id="patch_7">
     <path d="M 459.86 82.089375 
L 699.4 82.089375 
Q 702.2 82.089375 702.2 79.289375 
L 702.2 39.56 
Q 702.2 36.76 699.4 36.76 
L 459.86 36.76 
Q 457.06 36.76 457.06 39.56 
L 457.06 79.289375 
Q 457.06 82.089375 459.86 82.089375 
z
" style="fill: #ffffff; opacity: 0.8; stroke: #cccccc; stroke-linejoin: miter"/>
    </g>
    <g id="line2d_15">
     <path d="M 462.66 48.1 
L 476.66 48.1 
L 490.66 48.1 
" style="fill: none; stroke: #1f77b4; stroke-width: 1.5; stroke-linecap: square"/>
    </g>
    <g id="text_14">
     <!-- $D$ Sampled on a course grid -->
     <g transform="translate(501.86 53) scale(0.14 -0.14)">
      <defs>
       <path id="DejaVuSans-Oblique-44" d="M 1081 4666 
L 2438 4666 
Q 3519 4666 4070 4208 
Q 4622 3750 4622 2847 
Q 4622 2250 4412 1698 
Q 4203 1147 3834 769 
Q 3463 381 2891 190 
Q 2319 0 1538 0 
L 172 0 
L 1081 4666 
z
M 1613 4147 
L 909 519 
L 1734 519 
Q 2794 519 3375 1128 
Q 3956 1738 3956 2847 
Q 3956 3519 3581 3833 
Q 3206 4147 2406 4147 
L 1613 4147 
z
" transform="scale(0.015625)"/>
       <path id="DejaVuSans-53" d="M 3425 4513 
L 3425 3897 
Q 3066 4069 2747 4153 
Q 2428 4238 2131 4238 
Q 1616 4238 1336 4038 
Q 1056 3838 1056 3469 
Q 1056 3159 1242 3001 
Q 1428 2844 1947 2747 
L 2328 2669 
Q 3034 2534 3370 2195 
Q 3706 1856 3706 1288 
Q 3706 609 3251 259 
Q 2797 -91 1919 -91 
Q 1588 -91 1214 -16 
Q 841 59 441 206 
L 441 856 
Q 825 641 1194 531 
Q 1563 422 1919 422 
Q 2459 422 2753 634 
Q 3047 847 3047 1241 
Q 3047 1584 2836 1778 
Q 2625 1972 2144 2069 
L 1759 2144 
Q 1053 2284 737 2584 
Q 422 2884 422 3419 
Q 422 4038 858 4394 
Q 1294 4750 2059 4750 
Q 2388 4750 2728 4690 
Q 3069 4631 3425 4513 
z
" transform="scale(0.015625)"/>
       <path id="DejaVuSans-61" d="M 2194 1759 
Q 1497 1759 1228 1600 
Q 959 1441 959 1056 
Q 959 750 1161 570 
Q 1363 391 1709 391 
Q 2188 391 2477 730 
Q 2766 1069 2766 1631 
L 2766 1759 
L 2194 1759 
z
M 3341 1997 
L 3341 0 
L 2766 0 
L 2766 531 
Q 2569 213 2275 61 
Q 1981 -91 1556 -91 
Q 1019 -91 701 211 
Q 384 513 384 1019 
Q 384 1609 779 1909 
Q 1175 2209 1959 2209 
L 2766 2209 
L 2766 2266 
Q 2766 2663 2505 2880 
Q 2244 3097 1772 3097 
Q 1472 3097 1187 3025 
Q 903 2953 641 2809 
L 641 3341 
Q 956 3463 1253 3523 
Q 1550 3584 1831 3584 
Q 2591 3584 2966 3190 
Q 3341 2797 3341 1997 
z
" transform="scale(0.015625)"/>
       <path id="DejaVuSans-6d" d="M 3328 2828 
Q 3544 3216 3844 3400 
Q 4144 3584 4550 3584 
Q 5097 3584 5394 3201 
Q 5691 2819 5691 2113 
L 5691 0 
L 5113 0 
L 5113 2094 
Q 5113 2597 4934 2840 
Q 4756 3084 4391 3084 
Q 3944 3084 3684 2787 
Q 3425 2491 3425 1978 
L 3425 0 
L 2847 0 
L 2847 2094 
Q 2847 2600 2669 2842 
Q 2491 3084 2119 3084 
Q 1678 3084 1418 2786 
Q 1159 2488 1159 1978 
L 1159 0 
L 581 0 
L 581 3500 
L 1159 3500 
L 1159 2956 
Q 1356 3278 1631 3431 
Q 1906 3584 2284 3584 
Q 2666 3584 2933 3390 
Q 3200 3197 3328 2828 
z
" transform="scale(0.015625)"/>
       <path id="DejaVuSans-70" d="M 1159 525 
L 1159 -1331 
L 581 -1331 
L 581 3500 
L 1159 3500 
L 1159 2969 
Q 1341 3281 1617 3432 
Q 1894 3584 2278 3584 
Q 2916 3584 3314 3078 
Q 3713 2572 3713 1747 
Q 3713 922 3314 415 
Q 2916 -91 2278 -91 
Q 1894 -91 1617 61 
Q 1341 213 1159 525 
z
M 3116 1747 
Q 3116 2381 2855 2742 
Q 2594 3103 2138 3103 
Q 1681 3103 1420 2742 
Q 1159 2381 1159 1747 
Q 1159 1113 1420 752 
Q 1681 391 2138 391 
Q 2594 391 2855 752 
Q 3116 1113 3116 1747 
z
" transform="scale(0.015625)"/>
       <path id="DejaVuSans-6c" d="M 603 4863 
L 1178 4863 
L 1178 0 
L 603 0 
L 603 4863 
z
" transform="scale(0.015625)"/>
       <path id="DejaVuSans-64" d="M 2906 2969 
L 2906 4863 
L 3481 4863 
L 3481 0 
L 2906 0 
L 2906 525 
Q 2725 213 2448 61 
Q 2172 -91 1784 -91 
Q 1150 -91 751 415 
Q 353 922 353 1747 
Q 353 2572 751 3078 
Q 1150 3584 1784 3584 
Q 2172 3584 2448 3432 
Q 2725 3281 2906 2969 
z
M 947 1747 
Q 947 1113 1208 752 
Q 1469 391 1925 391 
Q 2381 391 2643 752 
Q 2906 1113 2906 1747 
Q 2906 2381 2643 2742 
Q 2381 3103 1925 3103 
Q 1469 3103 1208 2742 
Q 947 2381 947 1747 
z
" transform="scale(0.015625)"/>
       <path id="DejaVuSans-72" d="M 2631 2963 
Q 2534 3019 2420 3045 
Q 2306 3072 2169 3072 
Q 1681 3072 1420 2755 
Q 1159 2438 1159 1844 
L 1159 0 
L 581 0 
L 581 3500 
L 1159 3500 
L 1159 2956 
Q 1341 3275 1631 3429 
Q 1922 3584 2338 3584 
Q 2397 3584 2469 3576 
Q 2541 3569 2628 3553 
L 2631 2963 
z
" transform="scale(0.015625)"/>
       <path id="DejaVuSans-67" d="M 2906 1791 
Q 2906 2416 2648 2759 
Q 2391 3103 1925 3103 
Q 1463 3103 1205 2759 
Q 947 2416 947 1791 
Q 947 1169 1205 825 
Q 1463 481 1925 481 
Q 2391 481 2648 825 
Q 2906 1169 2906 1791 
z
M 3481 434 
Q 3481 -459 3084 -895 
Q 2688 -1331 1869 -1331 
Q 1566 -1331 1297 -1286 
Q 1028 -1241 775 -1147 
L 775 -588 
Q 1028 -725 1275 -790 
Q 1522 -856 1778 -856 
Q 2344 -856 2625 -561 
Q 2906 -266 2906 331 
L 2906 616 
Q 2728 306 2450 153 
Q 2172 0 1784 0 
Q 1141 0 747 490 
Q 353 981 353 1791 
Q 353 2603 747 3093 
Q 1141 3584 1784 3584 
Q 2172 3584 2450 3431 
Q 2728 3278 2906 2969 
L 2906 3500 
L 3481 3500 
L 3481 434 
z
" transform="scale(0.015625)"/>
      </defs>
      <use xlink:href="#DejaVuSans-Oblique-44" transform="translate(0 0.015625)"/>
      <use xlink:href="#DejaVuSans-20" transform="translate(77.001953 0.015625)"/>
      <use xlink:href="#DejaVuSans-53" transform="translate(108.789062 0.015625)"/>
      <use xlink:href="#DejaVuSans-61" transform="translate(172.265625 0.015625)"/>
      <use xlink:href="#DejaVuSans-6d" transform="translate(233.544922 0.015625)"/>
      <use xlink:href="#DejaVuSans-70" transform="translate(330.957031 0.015625)"/>
      <use xlink:href="#DejaVuSans-6c" transform="translate(394.433594 0.015625)"/>
      <use xlink:href="#DejaVuSans-65" transform="translate(422.216797 0.015625)"/>
      <use xlink:href="#DejaVuSans-64" transform="translate(483.740234 0.015625)"/>
      <use xlink:href="#DejaVuSans-20" transform="translate(547.216797 0.015625)"/>
      <use xlink:href="#DejaVuSans-6f" transform="translate(579.003906 0.015625)"/>
      <use xlink:href="#DejaVuSans-6e" transform="translate(640.185547 0.015625)"/>
      <use xlink:href="#DejaVuSans-20" transform="translate(703.564453 0.015625)"/>
      <use xlink:href="#DejaVuSans-61" transform="translate(735.351562 0.015625)"/>
      <use xlink:href="#DejaVuSans-20" transform="translate(796.630859 0.015625)"/>
      <use xlink:href="#DejaVuSans-63" transform="translate(828.417969 0.015625)"/>
      <use xlink:href="#DejaVuSans-6f" transform="translate(883.398438 0.015625)"/>
      <use xlink:href="#DejaVuSans-75" transform="translate(944.580078 0.015625)"/>
      <use xlink:href="#DejaVuSans-72" transform="translate(1007.958984 0.015625)"/>
      <use xlink:href="#DejaVuSans-73" transform="translate(1049.072266 0.015625)"/>
      <use xlink:href="#DejaVuSans-65" transform="translate(1101.171875 0.015625)"/>
      <use xlink:href="#DejaVuSans-20" transform="translate(1162.695312 0.015625)"/>
      <use xlink:href="#DejaVuSans-67" transform="translate(1194.482422 0.015625)"/>
      <use xlink:href="#DejaVuSans-72" transform="translate(1257.958984 0.015625)"/>
      <use xlink:href="#DejaVuSans-69" transform="translate(1299.072266 0.015625)"/>
      <use xlink:href="#DejaVuSans-64" transform="translate(1326.855469 0.015625)"/>
     </g>
    </g>
    <g id="line2d_16">
     <path d="M 462.66 68.677812 
L 476.66 68.677812 
L 490.66 68.677812 
" style="fill: none; stroke: #ff7f0e; stroke-width: 1.5; stroke-linecap: square"/>
    </g>
    <g id="text_15">
     <!-- $D$ -->
     <g transform="translate(501.86 73.577812) scale(0.14 -0.14)">
      <use xlink:href="#DejaVuSans-Oblique-44" transform="translate(0 0.09375)"/>
     </g>
    </g>
   </g>
  </g>
 </g>
 <defs>
  <clipPath id="p9fc8d4a022">
   <rect x="30.58" y="29.76" width="678.62" height="230.36"/>
  </clipPath>
 </defs>
</svg>
