<?xml version="1.0" encoding="utf-8" standalone="no"?>
<!DOCTYPE svg PUBLIC "-//W3C//DTD SVG 1.1//EN"
  "http://www.w3.org/Graphics/SVG/1.1/DTD/svg11.dtd">
<svg xmlns:xlink="http://www.w3.org/1999/xlink" width="460.8pt" height="345.6pt" viewBox="0 0 460.8 345.6" xmlns="http://www.w3.org/2000/svg" version="1.1">
 <metadata>
  <rdf:RDF xmlns:dc="http://purl.org/dc/elements/1.1/" xmlns:cc="http://creativecommons.org/ns#" xmlns:rdf="http://www.w3.org/1999/02/22-rdf-syntax-ns#">
   <cc:Work>
    <dc:type rdf:resource="http://purl.org/dc/dcmitype/StillImage"/>
    <dc:date>2025-07-08T10:54:24.966897</dc:date>
    <dc:format>image/svg+xml</dc:format>
    <dc:creator>
     <cc:Agent>
      <dc:title>Matplotlib v3.10.3, https://matplotlib.org/</dc:title>
     </cc:Agent>
    </dc:creator>
   </cc:Work>
  </rdf:RDF>
 </metadata>
 <defs>
  <style type="text/css">*{stroke-linejoin: round; stroke-linecap: butt}</style>
 </defs>
 <g id="figure_1">
  <g id="patch_1">
   <path d="M 0 345.6 
L 460.8 345.6 
L 460.8 0 
L 0 0 
z
" style="fill: #ffffff"/>
  </g>
  <g id="axes_1">
   <g id="patch_2">
    <path d="M 57.6 307.584 
L 414.72 307.584 
L 414.72 41.472 
L 57.6 41.472 
z
" style="fill: #ffffff"/>
   </g>
   <g id="matplotlib.axis_1">
    <g id="xtick_1">
     <g id="line2d_1">
      <defs>
       <path id="md5c1c23b6b" d="M 0 0 
L 0 3.5 
" style="stroke: #000000; stroke-width: 0.8"/>
      </defs>
      <g>
       <use xlink:href="#md5c1c23b6b" x="73.832727" y="307.584" style="stroke: #000000; stroke-width: 0.8"/>
      </g>
     </g>
     <g id="text_1">
      <!-- 0.0 -->
      <g transform="translate(65.881165 322.182437) scale(0.1 -0.1)">
       <defs>
        <path id="DejaVuSans-30" d="M 2034 4250 
Q 1547 4250 1301 3770 
Q 1056 3291 1056 2328 
Q 1056 1369 1301 889 
Q 1547 409 2034 409 
Q 2525 409 2770 889 
Q 3016 1369 3016 2328 
Q 3016 3291 2770 3770 
Q 2525 4250 2034 4250 
z
M 2034 4750 
Q 2819 4750 3233 4129 
Q 3647 3509 3647 2328 
Q 3647 1150 3233 529 
Q 2819 -91 2034 -91 
Q 1250 -91 836 529 
Q 422 1150 422 2328 
Q 422 3509 836 4129 
Q 1250 4750 2034 4750 
z
" transform="scale(0.015625)"/>
        <path id="DejaVuSans-2e" d="M 684 794 
L 1344 794 
L 1344 0 
L 684 0 
L 684 794 
z
" transform="scale(0.015625)"/>
       </defs>
       <use xlink:href="#DejaVuSans-30"/>
       <use xlink:href="#DejaVuSans-2e" transform="translate(63.623047 0)"/>
       <use xlink:href="#DejaVuSans-30" transform="translate(95.410156 0)"/>
      </g>
     </g>
    </g>
    <g id="xtick_2">
     <g id="line2d_2">
      <g>
       <use xlink:href="#md5c1c23b6b" x="138.763636" y="307.584" style="stroke: #000000; stroke-width: 0.8"/>
      </g>
     </g>
     <g id="text_2">
      <!-- 0.2 -->
      <g transform="translate(130.812074 322.182437) scale(0.1 -0.1)">
       <defs>
        <path id="DejaVuSans-32" d="M 1228 531 
L 3431 531 
L 3431 0 
L 469 0 
L 469 531 
Q 828 903 1448 1529 
Q 2069 2156 2228 2338 
Q 2531 2678 2651 2914 
Q 2772 3150 2772 3378 
Q 2772 3750 2511 3984 
Q 2250 4219 1831 4219 
Q 1534 4219 1204 4116 
Q 875 4013 500 3803 
L 500 4441 
Q 881 4594 1212 4672 
Q 1544 4750 1819 4750 
Q 2544 4750 2975 4387 
Q 3406 4025 3406 3419 
Q 3406 3131 3298 2873 
Q 3191 2616 2906 2266 
Q 2828 2175 2409 1742 
Q 1991 1309 1228 531 
z
" transform="scale(0.015625)"/>
       </defs>
       <use xlink:href="#DejaVuSans-30"/>
       <use xlink:href="#DejaVuSans-2e" transform="translate(63.623047 0)"/>
       <use xlink:href="#DejaVuSans-32" transform="translate(95.410156 0)"/>
      </g>
     </g>
    </g>
    <g id="xtick_3">
     <g id="line2d_3">
      <g>
       <use xlink:href="#md5c1c23b6b" x="203.694545" y="307.584" style="stroke: #000000; stroke-width: 0.8"/>
      </g>
     </g>
     <g id="text_3">
      <!-- 0.4 -->
      <g transform="translate(195.742983 322.182437) scale(0.1 -0.1)">
       <defs>
        <path id="DejaVuSans-34" d="M 2419 4116 
L 825 1625 
L 2419 1625 
L 2419 4116 
z
M 2253 4666 
L 3047 4666 
L 3047 1625 
L 3713 1625 
L 3713 1100 
L 3047 1100 
L 3047 0 
L 2419 0 
L 2419 1100 
L 313 1100 
L 313 1709 
L 2253 4666 
z
" transform="scale(0.015625)"/>
       </defs>
       <use xlink:href="#DejaVuSans-30"/>
       <use xlink:href="#DejaVuSans-2e" transform="translate(63.623047 0)"/>
       <use xlink:href="#DejaVuSans-34" transform="translate(95.410156 0)"/>
      </g>
     </g>
    </g>
    <g id="xtick_4">
     <g id="line2d_4">
      <g>
       <use xlink:href="#md5c1c23b6b" x="268.625455" y="307.584" style="stroke: #000000; stroke-width: 0.8"/>
      </g>
     </g>
     <g id="text_4">
      <!-- 0.6 -->
      <g transform="translate(260.673892 322.182437) scale(0.1 -0.1)">
       <defs>
        <path id="DejaVuSans-36" d="M 2113 2584 
Q 1688 2584 1439 2293 
Q 1191 2003 1191 1497 
Q 1191 994 1439 701 
Q 1688 409 2113 409 
Q 2538 409 2786 701 
Q 3034 994 3034 1497 
Q 3034 2003 2786 2293 
Q 2538 2584 2113 2584 
z
M 3366 4563 
L 3366 3988 
Q 3128 4100 2886 4159 
Q 2644 4219 2406 4219 
Q 1781 4219 1451 3797 
Q 1122 3375 1075 2522 
Q 1259 2794 1537 2939 
Q 1816 3084 2150 3084 
Q 2853 3084 3261 2657 
Q 3669 2231 3669 1497 
Q 3669 778 3244 343 
Q 2819 -91 2113 -91 
Q 1303 -91 875 529 
Q 447 1150 447 2328 
Q 447 3434 972 4092 
Q 1497 4750 2381 4750 
Q 2619 4750 2861 4703 
Q 3103 4656 3366 4563 
z
" transform="scale(0.015625)"/>
       </defs>
       <use xlink:href="#DejaVuSans-30"/>
       <use xlink:href="#DejaVuSans-2e" transform="translate(63.623047 0)"/>
       <use xlink:href="#DejaVuSans-36" transform="translate(95.410156 0)"/>
      </g>
     </g>
    </g>
    <g id="xtick_5">
     <g id="line2d_5">
      <g>
       <use xlink:href="#md5c1c23b6b" x="333.556364" y="307.584" style="stroke: #000000; stroke-width: 0.8"/>
      </g>
     </g>
     <g id="text_5">
      <!-- 0.8 -->
      <g transform="translate(325.604801 322.182437) scale(0.1 -0.1)">
       <defs>
        <path id="DejaVuSans-38" d="M 2034 2216 
Q 1584 2216 1326 1975 
Q 1069 1734 1069 1313 
Q 1069 891 1326 650 
Q 1584 409 2034 409 
Q 2484 409 2743 651 
Q 3003 894 3003 1313 
Q 3003 1734 2745 1975 
Q 2488 2216 2034 2216 
z
M 1403 2484 
Q 997 2584 770 2862 
Q 544 3141 544 3541 
Q 544 4100 942 4425 
Q 1341 4750 2034 4750 
Q 2731 4750 3128 4425 
Q 3525 4100 3525 3541 
Q 3525 3141 3298 2862 
Q 3072 2584 2669 2484 
Q 3125 2378 3379 2068 
Q 3634 1759 3634 1313 
Q 3634 634 3220 271 
Q 2806 -91 2034 -91 
Q 1263 -91 848 271 
Q 434 634 434 1313 
Q 434 1759 690 2068 
Q 947 2378 1403 2484 
z
M 1172 3481 
Q 1172 3119 1398 2916 
Q 1625 2713 2034 2713 
Q 2441 2713 2670 2916 
Q 2900 3119 2900 3481 
Q 2900 3844 2670 4047 
Q 2441 4250 2034 4250 
Q 1625 4250 1398 4047 
Q 1172 3844 1172 3481 
z
" transform="scale(0.015625)"/>
       </defs>
       <use xlink:href="#DejaVuSans-30"/>
       <use xlink:href="#DejaVuSans-2e" transform="translate(63.623047 0)"/>
       <use xlink:href="#DejaVuSans-38" transform="translate(95.410156 0)"/>
      </g>
     </g>
    </g>
    <g id="xtick_6">
     <g id="line2d_6">
      <g>
       <use xlink:href="#md5c1c23b6b" x="398.487273" y="307.584" style="stroke: #000000; stroke-width: 0.8"/>
      </g>
     </g>
     <g id="text_6">
      <!-- 1.0 -->
      <g transform="translate(390.53571 322.182437) scale(0.1 -0.1)">
       <defs>
        <path id="DejaVuSans-31" d="M 794 531 
L 1825 531 
L 1825 4091 
L 703 3866 
L 703 4441 
L 1819 4666 
L 2450 4666 
L 2450 531 
L 3481 531 
L 3481 0 
L 794 0 
L 794 531 
z
" transform="scale(0.015625)"/>
       </defs>
       <use xlink:href="#DejaVuSans-31"/>
       <use xlink:href="#DejaVuSans-2e" transform="translate(63.623047 0)"/>
       <use xlink:href="#DejaVuSans-30" transform="translate(95.410156 0)"/>
      </g>
     </g>
    </g>
   </g>
   <g id="matplotlib.axis_2">
    <g id="ytick_1">
     <g id="line2d_7">
      <defs>
       <path id="m1e007eab46" d="M 0 0 
L -3.5 0 
" style="stroke: #000000; stroke-width: 0.8"/>
      </defs>
      <g>
       <use xlink:href="#m1e007eab46" x="57.6" y="301.854316" style="stroke: #000000; stroke-width: 0.8"/>
      </g>
     </g>
     <g id="text_7">
      <!-- 0 -->
      <g transform="translate(44.2375 305.653535) scale(0.1 -0.1)">
       <use xlink:href="#DejaVuSans-30"/>
      </g>
     </g>
    </g>
    <g id="ytick_2">
     <g id="line2d_8">
      <g>
       <use xlink:href="#m1e007eab46" x="57.6" y="252.197052" style="stroke: #000000; stroke-width: 0.8"/>
      </g>
     </g>
     <g id="text_8">
      <!-- 2 -->
      <g transform="translate(44.2375 255.996271) scale(0.1 -0.1)">
       <use xlink:href="#DejaVuSans-32"/>
      </g>
     </g>
    </g>
    <g id="ytick_3">
     <g id="line2d_9">
      <g>
       <use xlink:href="#m1e007eab46" x="57.6" y="202.539789" style="stroke: #000000; stroke-width: 0.8"/>
      </g>
     </g>
     <g id="text_9">
      <!-- 4 -->
      <g transform="translate(44.2375 206.339007) scale(0.1 -0.1)">
       <use xlink:href="#DejaVuSans-34"/>
      </g>
     </g>
    </g>
    <g id="ytick_4">
     <g id="line2d_10">
      <g>
       <use xlink:href="#m1e007eab46" x="57.6" y="152.882525" style="stroke: #000000; stroke-width: 0.8"/>
      </g>
     </g>
     <g id="text_10">
      <!-- 6 -->
      <g transform="translate(44.2375 156.681744) scale(0.1 -0.1)">
       <use xlink:href="#DejaVuSans-36"/>
      </g>
     </g>
    </g>
    <g id="ytick_5">
     <g id="line2d_11">
      <g>
       <use xlink:href="#m1e007eab46" x="57.6" y="103.225261" style="stroke: #000000; stroke-width: 0.8"/>
      </g>
     </g>
     <g id="text_11">
      <!-- 8 -->
      <g transform="translate(44.2375 107.02448) scale(0.1 -0.1)">
       <use xlink:href="#DejaVuSans-38"/>
      </g>
     </g>
    </g>
    <g id="ytick_6">
     <g id="line2d_12">
      <g>
       <use xlink:href="#m1e007eab46" x="57.6" y="53.567998" style="stroke: #000000; stroke-width: 0.8"/>
      </g>
     </g>
     <g id="text_12">
      <!-- 10 -->
      <g transform="translate(37.875 57.367216) scale(0.1 -0.1)">
       <use xlink:href="#DejaVuSans-31"/>
       <use xlink:href="#DejaVuSans-30" transform="translate(63.623047 0)"/>
      </g>
     </g>
    </g>
   </g>
   <g id="line2d_13">
    <path d="M 73.832727 295.488 
L 109.905455 294.669033 
L 145.978182 291.197938 
L 182.050909 278.208 
L 218.123636 186.148441 
L 254.196364 186.148441 
L 290.269091 278.208 
L 326.341818 291.197938 
L 362.414545 294.669033 
L 398.487273 295.488 
" clip-path="url(#p25eef84268)" style="fill: none; stroke: #1f77b4; stroke-width: 1.5; stroke-linecap: square"/>
   </g>
   <g id="line2d_14">
    <path d="M 73.832727 295.488 
L 75.209276 295.376672 
L 76.520894 295.049374 
L 77.725374 294.521253 
L 78.816224 293.800149 
L 79.803184 292.879878 
L 80.708979 291.726972 
L 81.549843 290.288167 
L 82.338761 288.482929 
L 83.082228 286.205951 
L 83.786735 283.30368 
L 84.45553 279.567806 
L 85.09186 274.69853 
L 85.69897 268.256872 
L 86.280107 259.590067 
L 86.835272 247.801336 
L 87.370957 231.426646 
L 87.896903 208.122665 
L 88.435835 173.683518 
L 89.10463 114.82828 
L 89.783165 60.412405 
L 90.036398 53.642567 
L 90.065617 53.568 
L 90.114316 53.778737 
L 90.221453 55.699346 
L 90.416247 63.979726 
L 90.760385 89.930054 
L 92.133687 202.614079 
L 92.737551 230.600391 
L 93.344661 249.022668 
L 93.97125 261.643694 
L 94.623812 270.530213 
L 95.305594 276.929645 
L 96.019841 281.635594 
L 96.7698 285.159628 
L 97.558719 287.838176 
L 98.386596 289.890326 
L 99.263172 291.486305 
L 100.19494 292.731743 
L 101.194886 293.703676 
L 102.28249 294.452738 
L 103.467491 294.999254 
L 104.753135 295.34733 
L 106.116698 295.486087 
L 107.496494 295.403869 
L 108.817851 295.104719 
L 110.038564 294.601995 
L 111.142401 293.907612 
L 112.142347 293.014896 
L 113.057882 291.895593 
L 113.905239 290.50137 
L 114.70065 288.751089 
L 115.45061 286.542847 
L 116.16161 283.727893 
L 116.836898 280.10409 
L 117.479721 275.380052 
L 118.090077 269.167126 
L 118.674462 260.820716 
L 119.232873 249.481295 
L 119.771805 233.738135 
L 120.29775 211.47188 
L 120.833436 178.702577 
L 121.466519 124.722534 
L 122.258684 59.945482 
L 122.50867 53.611684 
L 122.531396 53.568019 
L 122.576848 53.754305 
L 122.680739 55.535443 
L 122.872287 63.450475 
L 123.206684 88.231563 
L 124.638425 204.816882 
L 125.239042 231.923255 
L 125.846152 249.895405 
L 126.472742 262.229173 
L 127.125304 270.93054 
L 127.810332 277.233487 
L 128.527825 281.868585 
L 129.281032 285.339829 
L 130.06995 287.969228 
L 130.901074 289.993254 
L 131.780897 291.566983 
L 132.715911 292.794465 
L 133.72235 293.754087 
L 134.8132 294.489445 
L 136.004694 295.024869 
L 137.296832 295.361398 
L 138.663642 295.487419 
L 140.040191 295.392412 
L 141.358301 295.080601 
L 142.569275 294.56793 
L 143.666618 293.862875 
L 144.663318 292.956233 
L 145.575606 291.820792 
L 146.419716 290.407431 
L 147.211881 288.633856 
L 147.958594 286.396881 
L 148.666348 283.545993 
L 149.33839 279.876898 
L 149.977966 275.095412 
L 150.588322 268.770407 
L 151.16946 260.315918 
L 151.727871 248.759152 
L 152.266803 232.694103 
L 152.792749 209.959109 
L 153.331681 176.302493 
L 153.980996 120.048741 
L 154.714723 60.381825 
L 154.967956 53.639272 
L 154.997175 53.568056 
L 155.045874 53.78437 
L 155.153011 55.71697 
L 155.351052 64.202227 
L 155.698436 90.568407 
L 157.049013 201.72359 
L 157.652876 230.017881 
L 158.259986 248.638749 
L 158.883329 261.3326 
L 159.535891 270.317816 
L 160.217673 276.781846 
L 160.93192 281.530971 
L 161.681879 285.084487 
L 162.467551 287.774136 
L 163.295428 289.843376 
L 164.168758 291.446699 
L 165.100526 292.70275 
L 166.100472 293.682792 
L 167.184829 294.436401 
L 168.366583 294.987644 
L 169.652228 295.341389 
L 171.012544 295.485275 
L 172.39234 295.40876 
L 173.716944 295.114704 
L 174.937657 294.618315 
L 176.04474 293.929049 
L 177.047933 293.041302 
L 177.966714 291.926792 
L 178.817317 290.537021 
L 179.612729 288.798728 
L 180.362689 286.606674 
L 181.073689 283.813979 
L 181.748977 280.221259 
L 182.3918 275.541328 
L 183.005403 269.353096 
L 183.589787 261.083303 
L 184.148198 249.856539 
L 184.68713 234.280198 
L 185.213076 212.257284 
L 185.748761 179.826569 
L 186.372104 127.124617 
L 187.193489 59.768815 
L 187.440228 53.609171 
L 187.462954 53.568112 
L 187.508407 53.759604 
L 187.612297 55.552395 
L 187.803845 63.486589 
L 188.138243 88.288806 
L 189.566737 204.673081 
L 190.167354 231.829029 
L 190.774464 249.8332 
L 191.401054 262.187405 
L 192.053616 270.901955 
L 192.738644 277.213583 
L 193.456137 281.854487 
L 194.209343 285.329697 
L 194.998262 287.961855 
L 195.829386 289.987846 
L 196.709208 291.563008 
L 197.644223 292.791557 
L 198.650662 293.751997 
L 199.741512 294.488 
L 200.933006 295.023956 
L 202.225144 295.360943 
L 203.591954 295.487389 
L 204.968503 295.392804 
L 206.286613 295.08145 
L 207.497587 294.569301 
L 208.59493 293.864871 
L 209.59163 292.959001 
L 210.503918 291.82454 
L 211.348028 290.412449 
L 212.140193 288.640561 
L 212.886906 286.405867 
L 213.59466 283.558117 
L 214.266702 279.893403 
L 214.906278 275.118135 
L 215.516634 268.802101 
L 216.097772 260.360666 
L 216.656183 248.823207 
L 217.195115 232.786755 
L 217.721061 210.093359 
L 218.259993 176.494331 
L 218.906062 120.607147 
L 219.646281 60.351308 
L 219.899514 53.636052 
L 219.928734 53.568186 
L 219.977432 53.790078 
L 220.084569 55.734666 
L 220.282611 64.239508 
L 220.629995 90.626569 
L 221.977324 201.574247 
L 222.581188 229.920174 
L 223.188298 248.574374 
L 223.811641 261.289408 
L 224.460956 270.251445 
L 225.142738 276.73569 
L 225.856985 281.498316 
L 226.606944 285.061046 
L 227.392616 287.757092 
L 228.220494 289.830885 
L 229.093823 291.43751 
L 230.022344 292.692283 
L 231.02229 293.675252 
L 232.106647 294.431168 
L 233.288402 294.984298 
L 234.5708 295.339051 
L 235.931116 295.484956 
L 237.310912 295.410445 
L 238.635516 295.118536 
L 239.859476 294.622943 
L 240.966559 293.935828 
L 241.969751 293.050728 
L 242.888533 291.939572 
L 243.739136 290.554147 
L 244.534548 288.821606 
L 245.284507 286.637313 
L 245.995508 283.855285 
L 246.670796 280.277448 
L 247.313618 275.618624 
L 247.927222 269.460824 
L 248.511606 261.235321 
L 249.070017 250.073649 
L 249.608949 234.593686 
L 250.134895 212.711481 
L 250.67058 180.477284 
L 251.290676 128.291036 
L 252.128294 59.594439 
L 252.375033 53.595654 
L 252.394513 53.568279 
L 252.436718 53.73885 
L 252.537362 55.402386 
L 252.725664 62.986268 
L 253.053568 86.92173 
L 254.537254 206.838168 
L 255.137871 233.247492 
L 255.744981 250.770317 
L 256.374817 262.868218 
L 257.030626 271.403289 
L 257.715654 277.563032 
L 258.433148 282.102255 
L 259.186354 285.507905 
L 259.978519 288.100694 
L 260.812889 290.09637 
L 261.695959 291.647701 
L 262.63422 292.857123 
L 263.643905 293.801686 
L 264.741249 294.525845 
L 265.939236 295.050037 
L 267.237867 295.374858 
L 268.604676 295.487975 
L 269.981225 295.380044 
L 271.292843 295.056425 
L 272.497323 294.532532 
L 273.588174 293.816496 
L 274.57838 292.898957 
L 275.487422 291.747998 
L 276.328285 290.316312 
L 277.117204 288.520545 
L 277.86067 286.256368 
L 278.565178 283.371712 
L 279.233973 279.660445 
L 279.873548 274.797179 
L 280.480658 268.394471 
L 281.061796 259.784701 
L 281.616961 248.079833 
L 282.152646 231.829029 
L 282.678592 208.705664 
L 283.217524 174.513865 
L 283.879826 116.50732 
L 284.574593 60.473752 
L 284.827826 53.649379 
L 284.860292 53.568391 
L 284.908991 53.795859 
L 285.019374 55.842318 
L 285.220662 64.653309 
L 285.574539 91.852813 
L 286.88291 200.10414 
L 287.486774 228.958103 
L 288.090637 247.858842 
L 288.71398 260.80972 
L 289.363296 269.923818 
L 290.04183 276.481974 
L 290.752831 281.30052 
L 291.499544 284.905929 
L 292.285216 287.644391 
L 293.109847 289.741291 
L 293.979929 291.366448 
L 294.905204 292.636433 
L 295.898657 293.629538 
L 296.976521 294.395603 
L 298.151782 294.959041 
L 299.430934 295.325261 
L 300.788003 295.482668 
L 302.167799 295.420168 
L 303.498896 295.139127 
L 304.729349 294.653627 
L 305.842925 293.976071 
L 306.852611 293.100086 
L 307.774639 292.001989 
L 308.628489 290.631742 
L 309.427147 288.917165 
L 310.180353 286.754446 
L 310.8946 283.99857 
L 311.573135 280.452474 
L 312.215958 275.859201 
L 312.829561 269.795823 
L 313.413945 261.707612 
L 313.975603 250.671623 
L 314.514535 235.456556 
L 315.04048 213.961539 
L 315.572919 182.498707 
L 316.183276 131.894338 
L 317.069592 59.140719 
L 317.309838 53.584816 
L 317.326071 53.568521 
L 317.36503 53.719283 
L 317.462428 55.258145 
L 317.647483 62.497385 
L 317.968894 85.569339 
L 319.507772 208.94442 
L 320.108389 234.627156 
L 320.718745 251.757075 
L 321.348581 263.531602 
L 322.00439 271.858035 
L 322.692665 277.904507 
L 323.413405 282.36176 
L 324.169858 285.707065 
L 324.965269 288.25465 
L 325.802886 290.215872 
L 326.689202 291.740364 
L 327.633956 292.931908 
L 328.650135 293.860378 
L 329.753972 294.569643 
L 330.958452 295.079538 
L 332.263576 295.38994 
L 333.633632 295.487653 
L 335.006935 295.36422 
L 336.312059 295.02601 
L 337.510046 294.487638 
L 338.594403 293.756699 
L 339.578116 292.823418 
L 340.480665 291.655498 
L 341.318282 290.198955 
L 342.103954 288.372329 
L 342.844174 286.069275 
L 343.545435 283.134851 
L 344.21423 279.337695 
L 344.850559 274.381348 
L 345.457669 267.813971 
L 346.03556 259.02152 
L 346.590725 246.986998 
L 347.12641 230.249222 
L 347.652356 206.416939 
L 348.194534 171.010332 
L 348.892548 108.679551 
L 349.509398 60.290462 
L 349.762631 53.629835 
L 349.791851 53.56867 
L 349.837303 53.773178 
L 349.94444 55.681792 
L 350.139234 63.94284 
L 350.483372 89.872153 
L 351.856674 202.577165 
L 352.460538 230.576247 
L 353.067648 249.006751 
L 353.694237 261.633026 
L 354.346799 270.522926 
L 355.028581 276.924572 
L 355.742828 281.632002 
L 356.492787 285.157046 
L 357.281706 287.836301 
L 358.109583 289.888951 
L 358.986159 291.485294 
L 359.917927 292.731003 
L 360.917873 293.703143 
L 362.005477 294.452368 
L 363.190478 294.999019 
L 364.476122 295.34721 
L 365.839685 295.486073 
L 367.219481 295.403961 
L 368.540838 295.104924 
L 369.761551 294.60233 
L 370.865388 293.908101 
L 371.865334 293.015576 
L 372.780869 291.896514 
L 373.628226 290.502603 
L 374.423637 288.752737 
L 375.173597 286.545056 
L 375.884597 283.730873 
L 376.559885 280.108148 
L 377.202708 275.38564 
L 377.813065 269.174908 
L 378.397449 260.831708 
L 378.95586 249.497008 
L 379.494792 233.760839 
L 380.020738 211.504777 
L 380.556423 178.749624 
L 381.186259 125.092718 
L 381.981671 59.975149 
L 382.231657 53.614272 
L 382.25763 53.568838 
L 382.303082 53.775948 
L 382.410219 55.69056 
L 382.605014 63.961276 
L 382.949151 89.901101 
L 384.322453 202.595624 
L 384.926317 230.58832 
L 385.533427 249.014711 
L 386.160016 261.638361 
L 386.812579 270.52657 
L 387.49436 276.927108 
L 388.208607 281.633798 
L 388.958567 285.158337 
L 389.747485 287.837239 
L 390.575362 289.889639 
L 391.451938 291.4858 
L 392.383706 292.731373 
L 393.383652 293.70341 
L 394.471256 294.452553 
L 395.656257 294.999137 
L 396.941902 295.34727 
L 398.305464 295.48608 
L 398.487273 295.488 
L 398.487273 295.488 
" clip-path="url(#p25eef84268)" style="fill: none; stroke: #ff7f0e; stroke-width: 1.5; stroke-linecap: square"/>
   </g>
   <g id="patch_3">
    <path d="M 57.6 307.584 
L 57.6 41.472 
" style="fill: none; stroke: #000000; stroke-width: 0.8; stroke-linejoin: miter; stroke-linecap: square"/>
   </g>
   <g id="patch_4">
    <path d="M 414.72 307.584 
L 414.72 41.472 
" style="fill: none; stroke: #000000; stroke-width: 0.8; stroke-linejoin: miter; stroke-linecap: square"/>
   </g>
   <g id="patch_5">
    <path d="M 57.6 307.584 
L 414.72 307.584 
" style="fill: none; stroke: #000000; stroke-width: 0.8; stroke-linejoin: miter; stroke-linecap: square"/>
   </g>
   <g id="patch_6">
    <path d="M 57.6 41.472 
L 414.72 41.472 
" style="fill: none; stroke: #000000; stroke-width: 0.8; stroke-linejoin: miter; stroke-linecap: square"/>
   </g>
   <g id="text_13">
    <!-- Diffusion Coefficient -->
    <g transform="translate(175.416562 35.472) scale(0.12 -0.12)">
     <defs>
      <path id="DejaVuSans-44" d="M 1259 4147 
L 1259 519 
L 2022 519 
Q 2988 519 3436 956 
Q 3884 1394 3884 2338 
Q 3884 3275 3436 3711 
Q 2988 4147 2022 4147 
L 1259 4147 
z
M 628 4666 
L 1925 4666 
Q 3281 4666 3915 4102 
Q 4550 3538 4550 2338 
Q 4550 1131 3912 565 
Q 3275 0 1925 0 
L 628 0 
L 628 4666 
z
" transform="scale(0.015625)"/>
      <path id="DejaVuSans-69" d="M 603 3500 
L 1178 3500 
L 1178 0 
L 603 0 
L 603 3500 
z
M 603 4863 
L 1178 4863 
L 1178 4134 
L 603 4134 
L 603 4863 
z
" transform="scale(0.015625)"/>
      <path id="DejaVuSans-66" d="M 2375 4863 
L 2375 4384 
L 1825 4384 
Q 1516 4384 1395 4259 
Q 1275 4134 1275 3809 
L 1275 3500 
L 2222 3500 
L 2222 3053 
L 1275 3053 
L 1275 0 
L 697 0 
L 697 3053 
L 147 3053 
L 147 3500 
L 697 3500 
L 697 3744 
Q 697 4328 969 4595 
Q 1241 4863 1831 4863 
L 2375 4863 
z
" transform="scale(0.015625)"/>
      <path id="DejaVuSans-75" d="M 544 1381 
L 544 3500 
L 1119 3500 
L 1119 1403 
Q 1119 906 1312 657 
Q 1506 409 1894 409 
Q 2359 409 2629 706 
Q 2900 1003 2900 1516 
L 2900 3500 
L 3475 3500 
L 3475 0 
L 2900 0 
L 2900 538 
Q 2691 219 2414 64 
Q 2138 -91 1772 -91 
Q 1169 -91 856 284 
Q 544 659 544 1381 
z
M 1991 3584 
L 1991 3584 
z
" transform="scale(0.015625)"/>
      <path id="DejaVuSans-73" d="M 2834 3397 
L 2834 2853 
Q 2591 2978 2328 3040 
Q 2066 3103 1784 3103 
Q 1356 3103 1142 2972 
Q 928 2841 928 2578 
Q 928 2378 1081 2264 
Q 1234 2150 1697 2047 
L 1894 2003 
Q 2506 1872 2764 1633 
Q 3022 1394 3022 966 
Q 3022 478 2636 193 
Q 2250 -91 1575 -91 
Q 1294 -91 989 -36 
Q 684 19 347 128 
L 347 722 
Q 666 556 975 473 
Q 1284 391 1588 391 
Q 1994 391 2212 530 
Q 2431 669 2431 922 
Q 2431 1156 2273 1281 
Q 2116 1406 1581 1522 
L 1381 1569 
Q 847 1681 609 1914 
Q 372 2147 372 2553 
Q 372 3047 722 3315 
Q 1072 3584 1716 3584 
Q 2034 3584 2315 3537 
Q 2597 3491 2834 3397 
z
" transform="scale(0.015625)"/>
      <path id="DejaVuSans-6f" d="M 1959 3097 
Q 1497 3097 1228 2736 
Q 959 2375 959 1747 
Q 959 1119 1226 758 
Q 1494 397 1959 397 
Q 2419 397 2687 759 
Q 2956 1122 2956 1747 
Q 2956 2369 2687 2733 
Q 2419 3097 1959 3097 
z
M 1959 3584 
Q 2709 3584 3137 3096 
Q 3566 2609 3566 1747 
Q 3566 888 3137 398 
Q 2709 -91 1959 -91 
Q 1206 -91 779 398 
Q 353 888 353 1747 
Q 353 2609 779 3096 
Q 1206 3584 1959 3584 
z
" transform="scale(0.015625)"/>
      <path id="DejaVuSans-6e" d="M 3513 2113 
L 3513 0 
L 2938 0 
L 2938 2094 
Q 2938 2591 2744 2837 
Q 2550 3084 2163 3084 
Q 1697 3084 1428 2787 
Q 1159 2491 1159 1978 
L 1159 0 
L 581 0 
L 581 3500 
L 1159 3500 
L 1159 2956 
Q 1366 3272 1645 3428 
Q 1925 3584 2291 3584 
Q 2894 3584 3203 3211 
Q 3513 2838 3513 2113 
z
" transform="scale(0.015625)"/>
      <path id="DejaVuSans-20" transform="scale(0.015625)"/>
      <path id="DejaVuSans-43" d="M 4122 4306 
L 4122 3641 
Q 3803 3938 3442 4084 
Q 3081 4231 2675 4231 
Q 1875 4231 1450 3742 
Q 1025 3253 1025 2328 
Q 1025 1406 1450 917 
Q 1875 428 2675 428 
Q 3081 428 3442 575 
Q 3803 722 4122 1019 
L 4122 359 
Q 3791 134 3420 21 
Q 3050 -91 2638 -91 
Q 1578 -91 968 557 
Q 359 1206 359 2328 
Q 359 3453 968 4101 
Q 1578 4750 2638 4750 
Q 3056 4750 3426 4639 
Q 3797 4528 4122 4306 
z
" transform="scale(0.015625)"/>
      <path id="DejaVuSans-65" d="M 3597 1894 
L 3597 1613 
L 953 1613 
Q 991 1019 1311 708 
Q 1631 397 2203 397 
Q 2534 397 2845 478 
Q 3156 559 3463 722 
L 3463 178 
Q 3153 47 2828 -22 
Q 2503 -91 2169 -91 
Q 1331 -91 842 396 
Q 353 884 353 1716 
Q 353 2575 817 3079 
Q 1281 3584 2069 3584 
Q 2775 3584 3186 3129 
Q 3597 2675 3597 1894 
z
M 3022 2063 
Q 3016 2534 2758 2815 
Q 2500 3097 2075 3097 
Q 1594 3097 1305 2825 
Q 1016 2553 972 2059 
L 3022 2063 
z
" transform="scale(0.015625)"/>
      <path id="DejaVuSans-63" d="M 3122 3366 
L 3122 2828 
Q 2878 2963 2633 3030 
Q 2388 3097 2138 3097 
Q 1578 3097 1268 2742 
Q 959 2388 959 1747 
Q 959 1106 1268 751 
Q 1578 397 2138 397 
Q 2388 397 2633 464 
Q 2878 531 3122 666 
L 3122 134 
Q 2881 22 2623 -34 
Q 2366 -91 2075 -91 
Q 1284 -91 818 406 
Q 353 903 353 1747 
Q 353 2603 823 3093 
Q 1294 3584 2113 3584 
Q 2378 3584 2631 3529 
Q 2884 3475 3122 3366 
z
" transform="scale(0.015625)"/>
      <path id="DejaVuSans-74" d="M 1172 4494 
L 1172 3500 
L 2356 3500 
L 2356 3053 
L 1172 3053 
L 1172 1153 
Q 1172 725 1289 603 
Q 1406 481 1766 481 
L 2356 481 
L 2356 0 
L 1766 0 
Q 1100 0 847 248 
Q 594 497 594 1153 
L 594 3053 
L 172 3053 
L 172 3500 
L 594 3500 
L 594 4494 
L 1172 4494 
z
" transform="scale(0.015625)"/>
     </defs>
     <use xlink:href="#DejaVuSans-44"/>
     <use xlink:href="#DejaVuSans-69" transform="translate(77.001953 0)"/>
     <use xlink:href="#DejaVuSans-66" transform="translate(104.785156 0)"/>
     <use xlink:href="#DejaVuSans-66" transform="translate(139.990234 0)"/>
     <use xlink:href="#DejaVuSans-75" transform="translate(175.195312 0)"/>
     <use xlink:href="#DejaVuSans-73" transform="translate(238.574219 0)"/>
     <use xlink:href="#DejaVuSans-69" transform="translate(290.673828 0)"/>
     <use xlink:href="#DejaVuSans-6f" transform="translate(318.457031 0)"/>
     <use xlink:href="#DejaVuSans-6e" transform="translate(379.638672 0)"/>
     <use xlink:href="#DejaVuSans-20" transform="translate(443.017578 0)"/>
     <use xlink:href="#DejaVuSans-43" transform="translate(474.804688 0)"/>
     <use xlink:href="#DejaVuSans-6f" transform="translate(544.628906 0)"/>
     <use xlink:href="#DejaVuSans-65" transform="translate(605.810547 0)"/>
     <use xlink:href="#DejaVuSans-66" transform="translate(667.333984 0)"/>
     <use xlink:href="#DejaVuSans-66" transform="translate(702.539062 0)"/>
     <use xlink:href="#DejaVuSans-69" transform="translate(737.744141 0)"/>
     <use xlink:href="#DejaVuSans-63" transform="translate(765.527344 0)"/>
     <use xlink:href="#DejaVuSans-69" transform="translate(820.507812 0)"/>
     <use xlink:href="#DejaVuSans-65" transform="translate(848.291016 0)"/>
     <use xlink:href="#DejaVuSans-6e" transform="translate(909.814453 0)"/>
     <use xlink:href="#DejaVuSans-74" transform="translate(973.193359 0)"/>
    </g>
   </g>
   <g id="legend_1">
    <g id="patch_7">
     <path d="M 226.32 190.717062 
L 407.72 190.717062 
Q 409.72 190.717062 409.72 188.717062 
L 409.72 160.338938 
Q 409.72 158.338938 407.72 158.338938 
L 226.32 158.338938 
Q 224.32 158.338938 224.32 160.338938 
L 224.32 188.717062 
Q 224.32 190.717062 226.32 190.717062 
z
" style="fill: #ffffff; opacity: 0.8; stroke: #cccccc; stroke-linejoin: miter"/>
    </g>
    <g id="line2d_15">
     <path d="M 228.32 166.438938 
L 238.32 166.438938 
L 248.32 166.438938 
" style="fill: none; stroke: #1f77b4; stroke-width: 1.5; stroke-linecap: square"/>
    </g>
    <g id="text_14">
     <!-- $D$ Sampled on the course grid -->
     <g transform="translate(256.32 169.938938) scale(0.1 -0.1)">
      <defs>
       <path id="DejaVuSans-Oblique-44" d="M 1081 4666 
L 2438 4666 
Q 3519 4666 4070 4208 
Q 4622 3750 4622 2847 
Q 4622 2250 4412 1698 
Q 4203 1147 3834 769 
Q 3463 381 2891 190 
Q 2319 0 1538 0 
L 172 0 
L 1081 4666 
z
M 1613 4147 
L 909 519 
L 1734 519 
Q 2794 519 3375 1128 
Q 3956 1738 3956 2847 
Q 3956 3519 3581 3833 
Q 3206 4147 2406 4147 
L 1613 4147 
z
" transform="scale(0.015625)"/>
       <path id="DejaVuSans-53" d="M 3425 4513 
L 3425 3897 
Q 3066 4069 2747 4153 
Q 2428 4238 2131 4238 
Q 1616 4238 1336 4038 
Q 1056 3838 1056 3469 
Q 1056 3159 1242 3001 
Q 1428 2844 1947 2747 
L 2328 2669 
Q 3034 2534 3370 2195 
Q 3706 1856 3706 1288 
Q 3706 609 3251 259 
Q 2797 -91 1919 -91 
Q 1588 -91 1214 -16 
Q 841 59 441 206 
L 441 856 
Q 825 641 1194 531 
Q 1563 422 1919 422 
Q 2459 422 2753 634 
Q 3047 847 3047 1241 
Q 3047 1584 2836 1778 
Q 2625 1972 2144 2069 
L 1759 2144 
Q 1053 2284 737 2584 
Q 422 2884 422 3419 
Q 422 4038 858 4394 
Q 1294 4750 2059 4750 
Q 2388 4750 2728 4690 
Q 3069 4631 3425 4513 
z
" transform="scale(0.015625)"/>
       <path id="DejaVuSans-61" d="M 2194 1759 
Q 1497 1759 1228 1600 
Q 959 1441 959 1056 
Q 959 750 1161 570 
Q 1363 391 1709 391 
Q 2188 391 2477 730 
Q 2766 1069 2766 1631 
L 2766 1759 
L 2194 1759 
z
M 3341 1997 
L 3341 0 
L 2766 0 
L 2766 531 
Q 2569 213 2275 61 
Q 1981 -91 1556 -91 
Q 1019 -91 701 211 
Q 384 513 384 1019 
Q 384 1609 779 1909 
Q 1175 2209 1959 2209 
L 2766 2209 
L 2766 2266 
Q 2766 2663 2505 2880 
Q 2244 3097 1772 3097 
Q 1472 3097 1187 3025 
Q 903 2953 641 2809 
L 641 3341 
Q 956 3463 1253 3523 
Q 1550 3584 1831 3584 
Q 2591 3584 2966 3190 
Q 3341 2797 3341 1997 
z
" transform="scale(0.015625)"/>
       <path id="DejaVuSans-6d" d="M 3328 2828 
Q 3544 3216 3844 3400 
Q 4144 3584 4550 3584 
Q 5097 3584 5394 3201 
Q 5691 2819 5691 2113 
L 5691 0 
L 5113 0 
L 5113 2094 
Q 5113 2597 4934 2840 
Q 4756 3084 4391 3084 
Q 3944 3084 3684 2787 
Q 3425 2491 3425 1978 
L 3425 0 
L 2847 0 
L 2847 2094 
Q 2847 2600 2669 2842 
Q 2491 3084 2119 3084 
Q 1678 3084 1418 2786 
Q 1159 2488 1159 1978 
L 1159 0 
L 581 0 
L 581 3500 
L 1159 3500 
L 1159 2956 
Q 1356 3278 1631 3431 
Q 1906 3584 2284 3584 
Q 2666 3584 2933 3390 
Q 3200 3197 3328 2828 
z
" transform="scale(0.015625)"/>
       <path id="DejaVuSans-70" d="M 1159 525 
L 1159 -1331 
L 581 -1331 
L 581 3500 
L 1159 3500 
L 1159 2969 
Q 1341 3281 1617 3432 
Q 1894 3584 2278 3584 
Q 2916 3584 3314 3078 
Q 3713 2572 3713 1747 
Q 3713 922 3314 415 
Q 2916 -91 2278 -91 
Q 1894 -91 1617 61 
Q 1341 213 1159 525 
z
M 3116 1747 
Q 3116 2381 2855 2742 
Q 2594 3103 2138 3103 
Q 1681 3103 1420 2742 
Q 1159 2381 1159 1747 
Q 1159 1113 1420 752 
Q 1681 391 2138 391 
Q 2594 391 2855 752 
Q 3116 1113 3116 1747 
z
" transform="scale(0.015625)"/>
       <path id="DejaVuSans-6c" d="M 603 4863 
L 1178 4863 
L 1178 0 
L 603 0 
L 603 4863 
z
" transform="scale(0.015625)"/>
       <path id="DejaVuSans-64" d="M 2906 2969 
L 2906 4863 
L 3481 4863 
L 3481 0 
L 2906 0 
L 2906 525 
Q 2725 213 2448 61 
Q 2172 -91 1784 -91 
Q 1150 -91 751 415 
Q 353 922 353 1747 
Q 353 2572 751 3078 
Q 1150 3584 1784 3584 
Q 2172 3584 2448 3432 
Q 2725 3281 2906 2969 
z
M 947 1747 
Q 947 1113 1208 752 
Q 1469 391 1925 391 
Q 2381 391 2643 752 
Q 2906 1113 2906 1747 
Q 2906 2381 2643 2742 
Q 2381 3103 1925 3103 
Q 1469 3103 1208 2742 
Q 947 2381 947 1747 
z
" transform="scale(0.015625)"/>
       <path id="DejaVuSans-68" d="M 3513 2113 
L 3513 0 
L 2938 0 
L 2938 2094 
Q 2938 2591 2744 2837 
Q 2550 3084 2163 3084 
Q 1697 3084 1428 2787 
Q 1159 2491 1159 1978 
L 1159 0 
L 581 0 
L 581 4863 
L 1159 4863 
L 1159 2956 
Q 1366 3272 1645 3428 
Q 1925 3584 2291 3584 
Q 2894 3584 3203 3211 
Q 3513 2838 3513 2113 
z
" transform="scale(0.015625)"/>
       <path id="DejaVuSans-72" d="M 2631 2963 
Q 2534 3019 2420 3045 
Q 2306 3072 2169 3072 
Q 1681 3072 1420 2755 
Q 1159 2438 1159 1844 
L 1159 0 
L 581 0 
L 581 3500 
L 1159 3500 
L 1159 2956 
Q 1341 3275 1631 3429 
Q 1922 3584 2338 3584 
Q 2397 3584 2469 3576 
Q 2541 3569 2628 3553 
L 2631 2963 
z
" transform="scale(0.015625)"/>
       <path id="DejaVuSans-67" d="M 2906 1791 
Q 2906 2416 2648 2759 
Q 2391 3103 1925 3103 
Q 1463 3103 1205 2759 
Q 947 2416 947 1791 
Q 947 1169 1205 825 
Q 1463 481 1925 481 
Q 2391 481 2648 825 
Q 2906 1169 2906 1791 
z
M 3481 434 
Q 3481 -459 3084 -895 
Q 2688 -1331 1869 -1331 
Q 1566 -1331 1297 -1286 
Q 1028 -1241 775 -1147 
L 775 -588 
Q 1028 -725 1275 -790 
Q 1522 -856 1778 -856 
Q 2344 -856 2625 -561 
Q 2906 -266 2906 331 
L 2906 616 
Q 2728 306 2450 153 
Q 2172 0 1784 0 
Q 1141 0 747 490 
Q 353 981 353 1791 
Q 353 2603 747 3093 
Q 1141 3584 1784 3584 
Q 2172 3584 2450 3431 
Q 2728 3278 2906 2969 
L 2906 3500 
L 3481 3500 
L 3481 434 
z
" transform="scale(0.015625)"/>
      </defs>
      <use xlink:href="#DejaVuSans-Oblique-44" transform="translate(0 0.015625)"/>
      <use xlink:href="#DejaVuSans-20" transform="translate(77.001953 0.015625)"/>
      <use xlink:href="#DejaVuSans-53" transform="translate(108.789062 0.015625)"/>
      <use xlink:href="#DejaVuSans-61" transform="translate(172.265625 0.015625)"/>
      <use xlink:href="#DejaVuSans-6d" transform="translate(233.544922 0.015625)"/>
      <use xlink:href="#DejaVuSans-70" transform="translate(330.957031 0.015625)"/>
      <use xlink:href="#DejaVuSans-6c" transform="translate(394.433594 0.015625)"/>
      <use xlink:href="#DejaVuSans-65" transform="translate(422.216797 0.015625)"/>
      <use xlink:href="#DejaVuSans-64" transform="translate(483.740234 0.015625)"/>
      <use xlink:href="#DejaVuSans-20" transform="translate(547.216797 0.015625)"/>
      <use xlink:href="#DejaVuSans-6f" transform="translate(579.003906 0.015625)"/>
      <use xlink:href="#DejaVuSans-6e" transform="translate(640.185547 0.015625)"/>
      <use xlink:href="#DejaVuSans-20" transform="translate(703.564453 0.015625)"/>
      <use xlink:href="#DejaVuSans-74" transform="translate(735.351562 0.015625)"/>
      <use xlink:href="#DejaVuSans-68" transform="translate(774.560547 0.015625)"/>
      <use xlink:href="#DejaVuSans-65" transform="translate(837.939453 0.015625)"/>
      <use xlink:href="#DejaVuSans-20" transform="translate(899.462891 0.015625)"/>
      <use xlink:href="#DejaVuSans-63" transform="translate(931.25 0.015625)"/>
      <use xlink:href="#DejaVuSans-6f" transform="translate(986.230469 0.015625)"/>
      <use xlink:href="#DejaVuSans-75" transform="translate(1047.412109 0.015625)"/>
      <use xlink:href="#DejaVuSans-72" transform="translate(1110.791016 0.015625)"/>
      <use xlink:href="#DejaVuSans-73" transform="translate(1151.904297 0.015625)"/>
      <use xlink:href="#DejaVuSans-65" transform="translate(1204.003906 0.015625)"/>
      <use xlink:href="#DejaVuSans-20" transform="translate(1265.527344 0.015625)"/>
      <use xlink:href="#DejaVuSans-67" transform="translate(1297.314453 0.015625)"/>
      <use xlink:href="#DejaVuSans-72" transform="translate(1360.791016 0.015625)"/>
      <use xlink:href="#DejaVuSans-69" transform="translate(1401.904297 0.015625)"/>
      <use xlink:href="#DejaVuSans-64" transform="translate(1429.6875 0.015625)"/>
     </g>
    </g>
    <g id="line2d_16">
     <path d="M 228.32 181.137375 
L 238.32 181.137375 
L 248.32 181.137375 
" style="fill: none; stroke: #ff7f0e; stroke-width: 1.5; stroke-linecap: square"/>
    </g>
    <g id="text_15">
     <!-- $D$ -->
     <g transform="translate(256.32 184.637375) scale(0.1 -0.1)">
      <use xlink:href="#DejaVuSans-Oblique-44" transform="translate(0 0.09375)"/>
     </g>
    </g>
   </g>
  </g>
 </g>
 <defs>
  <clipPath id="p25eef84268">
   <rect x="57.6" y="41.472" width="357.12" height="266.112"/>
  </clipPath>
 </defs>
</svg>
