<?xml version="1.0" encoding="utf-8" standalone="no"?>
<!DOCTYPE svg PUBLIC "-//W3C//DTD SVG 1.1//EN"
  "http://www.w3.org/Graphics/SVG/1.1/DTD/svg11.dtd">
<svg xmlns:xlink="http://www.w3.org/1999/xlink" width="864pt" height="288pt" viewBox="0 0 864 288" xmlns="http://www.w3.org/2000/svg" version="1.1">
 <metadata>
  <rdf:RDF xmlns:dc="http://purl.org/dc/elements/1.1/" xmlns:cc="http://creativecommons.org/ns#" xmlns:rdf="http://www.w3.org/1999/02/22-rdf-syntax-ns#">
   <cc:Work>
    <dc:type rdf:resource="http://purl.org/dc/dcmitype/StillImage"/>
    <dc:date>2025-08-18T14:25:37.263341</dc:date>
    <dc:format>image/svg+xml</dc:format>
    <dc:creator>
     <cc:Agent>
      <dc:title>Matplotlib v3.10.3, https://matplotlib.org/</dc:title>
     </cc:Agent>
    </dc:creator>
   </cc:Work>
  </rdf:RDF>
 </metadata>
 <defs>
  <style type="text/css">*{stroke-linejoin: round; stroke-linecap: butt}</style>
 </defs>
 <g id="figure_1">
  <g id="patch_1">
   <path d="M 0 288 
L 864 288 
L 864 0 
L 0 0 
z
" style="fill: #ffffff"/>
  </g>
  <g id="axes_1">
   <g id="patch_2">
    <path d="M 33.73 260.12 
L 853.2 260.12 
L 853.2 25.44 
L 33.73 25.44 
z
" style="fill: #ffffff"/>
   </g>
   <g id="matplotlib.axis_1">
    <g id="xtick_1">
     <g id="line2d_1">
      <defs>
       <path id="m8d40ba901b" d="M 0 0 
L 0 3.5 
" style="stroke: #000000; stroke-width: 0.8"/>
      </defs>
      <g>
       <use xlink:href="#m8d40ba901b" x="70.978636" y="260.12" style="stroke: #000000; stroke-width: 0.8"/>
      </g>
     </g>
     <g id="text_1">
      <!-- 0.0 -->
      <g transform="translate(63.027074 274.718437) scale(0.1 -0.1)">
       <defs>
        <path id="DejaVuSans-30" d="M 2034 4250 
Q 1547 4250 1301 3770 
Q 1056 3291 1056 2328 
Q 1056 1369 1301 889 
Q 1547 409 2034 409 
Q 2525 409 2770 889 
Q 3016 1369 3016 2328 
Q 3016 3291 2770 3770 
Q 2525 4250 2034 4250 
z
M 2034 4750 
Q 2819 4750 3233 4129 
Q 3647 3509 3647 2328 
Q 3647 1150 3233 529 
Q 2819 -91 2034 -91 
Q 1250 -91 836 529 
Q 422 1150 422 2328 
Q 422 3509 836 4129 
Q 1250 4750 2034 4750 
z
" transform="scale(0.015625)"/>
        <path id="DejaVuSans-2e" d="M 684 794 
L 1344 794 
L 1344 0 
L 684 0 
L 684 794 
z
" transform="scale(0.015625)"/>
       </defs>
       <use xlink:href="#DejaVuSans-30"/>
       <use xlink:href="#DejaVuSans-2e" transform="translate(63.623047 0)"/>
       <use xlink:href="#DejaVuSans-30" transform="translate(95.410156 0)"/>
      </g>
     </g>
    </g>
    <g id="xtick_2">
     <g id="line2d_2">
      <g>
       <use xlink:href="#m8d40ba901b" x="219.973182" y="260.12" style="stroke: #000000; stroke-width: 0.8"/>
      </g>
     </g>
     <g id="text_2">
      <!-- 0.2 -->
      <g transform="translate(212.021619 274.718437) scale(0.1 -0.1)">
       <defs>
        <path id="DejaVuSans-32" d="M 1228 531 
L 3431 531 
L 3431 0 
L 469 0 
L 469 531 
Q 828 903 1448 1529 
Q 2069 2156 2228 2338 
Q 2531 2678 2651 2914 
Q 2772 3150 2772 3378 
Q 2772 3750 2511 3984 
Q 2250 4219 1831 4219 
Q 1534 4219 1204 4116 
Q 875 4013 500 3803 
L 500 4441 
Q 881 4594 1212 4672 
Q 1544 4750 1819 4750 
Q 2544 4750 2975 4387 
Q 3406 4025 3406 3419 
Q 3406 3131 3298 2873 
Q 3191 2616 2906 2266 
Q 2828 2175 2409 1742 
Q 1991 1309 1228 531 
z
" transform="scale(0.015625)"/>
       </defs>
       <use xlink:href="#DejaVuSans-30"/>
       <use xlink:href="#DejaVuSans-2e" transform="translate(63.623047 0)"/>
       <use xlink:href="#DejaVuSans-32" transform="translate(95.410156 0)"/>
      </g>
     </g>
    </g>
    <g id="xtick_3">
     <g id="line2d_3">
      <g>
       <use xlink:href="#m8d40ba901b" x="368.967727" y="260.12" style="stroke: #000000; stroke-width: 0.8"/>
      </g>
     </g>
     <g id="text_3">
      <!-- 0.4 -->
      <g transform="translate(361.016165 274.718437) scale(0.1 -0.1)">
       <defs>
        <path id="DejaVuSans-34" d="M 2419 4116 
L 825 1625 
L 2419 1625 
L 2419 4116 
z
M 2253 4666 
L 3047 4666 
L 3047 1625 
L 3713 1625 
L 3713 1100 
L 3047 1100 
L 3047 0 
L 2419 0 
L 2419 1100 
L 313 1100 
L 313 1709 
L 2253 4666 
z
" transform="scale(0.015625)"/>
       </defs>
       <use xlink:href="#DejaVuSans-30"/>
       <use xlink:href="#DejaVuSans-2e" transform="translate(63.623047 0)"/>
       <use xlink:href="#DejaVuSans-34" transform="translate(95.410156 0)"/>
      </g>
     </g>
    </g>
    <g id="xtick_4">
     <g id="line2d_4">
      <g>
       <use xlink:href="#m8d40ba901b" x="517.962273" y="260.12" style="stroke: #000000; stroke-width: 0.8"/>
      </g>
     </g>
     <g id="text_4">
      <!-- 0.6 -->
      <g transform="translate(510.01071 274.718437) scale(0.1 -0.1)">
       <defs>
        <path id="DejaVuSans-36" d="M 2113 2584 
Q 1688 2584 1439 2293 
Q 1191 2003 1191 1497 
Q 1191 994 1439 701 
Q 1688 409 2113 409 
Q 2538 409 2786 701 
Q 3034 994 3034 1497 
Q 3034 2003 2786 2293 
Q 2538 2584 2113 2584 
z
M 3366 4563 
L 3366 3988 
Q 3128 4100 2886 4159 
Q 2644 4219 2406 4219 
Q 1781 4219 1451 3797 
Q 1122 3375 1075 2522 
Q 1259 2794 1537 2939 
Q 1816 3084 2150 3084 
Q 2853 3084 3261 2657 
Q 3669 2231 3669 1497 
Q 3669 778 3244 343 
Q 2819 -91 2113 -91 
Q 1303 -91 875 529 
Q 447 1150 447 2328 
Q 447 3434 972 4092 
Q 1497 4750 2381 4750 
Q 2619 4750 2861 4703 
Q 3103 4656 3366 4563 
z
" transform="scale(0.015625)"/>
       </defs>
       <use xlink:href="#DejaVuSans-30"/>
       <use xlink:href="#DejaVuSans-2e" transform="translate(63.623047 0)"/>
       <use xlink:href="#DejaVuSans-36" transform="translate(95.410156 0)"/>
      </g>
     </g>
    </g>
    <g id="xtick_5">
     <g id="line2d_5">
      <g>
       <use xlink:href="#m8d40ba901b" x="666.956818" y="260.12" style="stroke: #000000; stroke-width: 0.8"/>
      </g>
     </g>
     <g id="text_5">
      <!-- 0.8 -->
      <g transform="translate(659.005256 274.718437) scale(0.1 -0.1)">
       <defs>
        <path id="DejaVuSans-38" d="M 2034 2216 
Q 1584 2216 1326 1975 
Q 1069 1734 1069 1313 
Q 1069 891 1326 650 
Q 1584 409 2034 409 
Q 2484 409 2743 651 
Q 3003 894 3003 1313 
Q 3003 1734 2745 1975 
Q 2488 2216 2034 2216 
z
M 1403 2484 
Q 997 2584 770 2862 
Q 544 3141 544 3541 
Q 544 4100 942 4425 
Q 1341 4750 2034 4750 
Q 2731 4750 3128 4425 
Q 3525 4100 3525 3541 
Q 3525 3141 3298 2862 
Q 3072 2584 2669 2484 
Q 3125 2378 3379 2068 
Q 3634 1759 3634 1313 
Q 3634 634 3220 271 
Q 2806 -91 2034 -91 
Q 1263 -91 848 271 
Q 434 634 434 1313 
Q 434 1759 690 2068 
Q 947 2378 1403 2484 
z
M 1172 3481 
Q 1172 3119 1398 2916 
Q 1625 2713 2034 2713 
Q 2441 2713 2670 2916 
Q 2900 3119 2900 3481 
Q 2900 3844 2670 4047 
Q 2441 4250 2034 4250 
Q 1625 4250 1398 4047 
Q 1172 3844 1172 3481 
z
" transform="scale(0.015625)"/>
       </defs>
       <use xlink:href="#DejaVuSans-30"/>
       <use xlink:href="#DejaVuSans-2e" transform="translate(63.623047 0)"/>
       <use xlink:href="#DejaVuSans-38" transform="translate(95.410156 0)"/>
      </g>
     </g>
    </g>
    <g id="xtick_6">
     <g id="line2d_6">
      <g>
       <use xlink:href="#m8d40ba901b" x="815.951364" y="260.12" style="stroke: #000000; stroke-width: 0.8"/>
      </g>
     </g>
     <g id="text_6">
      <!-- 1.0 -->
      <g transform="translate(807.999801 274.718437) scale(0.1 -0.1)">
       <defs>
        <path id="DejaVuSans-31" d="M 794 531 
L 1825 531 
L 1825 4091 
L 703 3866 
L 703 4441 
L 1819 4666 
L 2450 4666 
L 2450 531 
L 3481 531 
L 3481 0 
L 794 0 
L 794 531 
z
" transform="scale(0.015625)"/>
       </defs>
       <use xlink:href="#DejaVuSans-31"/>
       <use xlink:href="#DejaVuSans-2e" transform="translate(63.623047 0)"/>
       <use xlink:href="#DejaVuSans-30" transform="translate(95.410156 0)"/>
      </g>
     </g>
    </g>
   </g>
   <g id="matplotlib.axis_2">
    <g id="ytick_1">
     <g id="line2d_7">
      <defs>
       <path id="m348da5600f" d="M 0 0 
L -3.5 0 
" style="stroke: #000000; stroke-width: 0.8"/>
      </defs>
      <g>
       <use xlink:href="#m348da5600f" x="33.73" y="255.067081" style="stroke: #000000; stroke-width: 0.8"/>
      </g>
     </g>
     <g id="text_7">
      <!-- 0 -->
      <g transform="translate(20.3675 258.8663) scale(0.1 -0.1)">
       <use xlink:href="#DejaVuSans-30"/>
      </g>
     </g>
    </g>
    <g id="ytick_2">
     <g id="line2d_8">
      <g>
       <use xlink:href="#m348da5600f" x="33.73" y="211.275119" style="stroke: #000000; stroke-width: 0.8"/>
      </g>
     </g>
     <g id="text_8">
      <!-- 2 -->
      <g transform="translate(20.3675 215.074338) scale(0.1 -0.1)">
       <use xlink:href="#DejaVuSans-32"/>
      </g>
     </g>
    </g>
    <g id="ytick_3">
     <g id="line2d_9">
      <g>
       <use xlink:href="#m348da5600f" x="33.73" y="167.483157" style="stroke: #000000; stroke-width: 0.8"/>
      </g>
     </g>
     <g id="text_9">
      <!-- 4 -->
      <g transform="translate(20.3675 171.282376) scale(0.1 -0.1)">
       <use xlink:href="#DejaVuSans-34"/>
      </g>
     </g>
    </g>
    <g id="ytick_4">
     <g id="line2d_10">
      <g>
       <use xlink:href="#m348da5600f" x="33.73" y="123.691195" style="stroke: #000000; stroke-width: 0.8"/>
      </g>
     </g>
     <g id="text_10">
      <!-- 6 -->
      <g transform="translate(20.3675 127.490414) scale(0.1 -0.1)">
       <use xlink:href="#DejaVuSans-36"/>
      </g>
     </g>
    </g>
    <g id="ytick_5">
     <g id="line2d_11">
      <g>
       <use xlink:href="#m348da5600f" x="33.73" y="79.899233" style="stroke: #000000; stroke-width: 0.8"/>
      </g>
     </g>
     <g id="text_11">
      <!-- 8 -->
      <g transform="translate(20.3675 83.698452) scale(0.1 -0.1)">
       <use xlink:href="#DejaVuSans-38"/>
      </g>
     </g>
    </g>
    <g id="ytick_6">
     <g id="line2d_12">
      <g>
       <use xlink:href="#m348da5600f" x="33.73" y="36.107271" style="stroke: #000000; stroke-width: 0.8"/>
      </g>
     </g>
     <g id="text_12">
      <!-- 10 -->
      <g transform="translate(14.005 39.906489) scale(0.1 -0.1)">
       <use xlink:href="#DejaVuSans-31"/>
       <use xlink:href="#DejaVuSans-30" transform="translate(63.623047 0)"/>
      </g>
     </g>
    </g>
   </g>
   <g id="line2d_13">
    <path d="M 70.978636 249.452727 
L 153.753384 248.730493 
L 236.528131 245.669388 
L 319.302879 234.213766 
L 402.077626 153.027885 
L 484.852374 153.027885 
L 567.627121 234.213766 
L 650.401869 245.669388 
L 733.176616 248.730493 
L 815.951364 249.452727 
" clip-path="url(#p729b72079a)" style="fill: none; stroke: #1f77b4; stroke-width: 1.5; stroke-linecap: square"/>
   </g>
   <g id="line2d_14">
    <path d="M 70.978636 249.452727 
L 74.338497 249.341479 
L 77.497213 249.018486 
L 80.320688 248.511617 
L 82.786572 247.84814 
L 84.932115 247.044469 
L 86.802015 246.110506 
L 88.463321 245.033837 
L 89.953281 243.802957 
L 91.309145 242.392339 
L 92.560712 240.764634 
L 93.722881 238.883741 
L 94.818002 236.682312 
L 95.860974 234.075451 
L 96.859248 230.964059 
L 97.812822 227.245795 
L 98.736598 222.71853 
L 99.630574 217.179578 
L 100.494751 210.375863 
L 101.336579 201.913666 
L 102.163507 191.250652 
L 102.975535 177.793491 
L 103.795013 160.368182 
L 104.65174 137.182816 
L 105.664913 103.219277 
L 107.28897 48.39692 
L 107.780657 39.019122 
L 108.100999 36.342951 
L 108.235095 36.108176 
L 108.272344 36.137325 
L 108.384091 36.470544 
L 108.577786 37.910095 
L 108.868328 42.022326 
L 109.285517 51.502574 
L 109.93365 72.055774 
L 112.280337 150.768277 
L 113.196663 172.269849 
L 114.090639 188.235481 
L 114.984615 200.369274 
L 115.893491 209.78202 
L 116.824716 217.184768 
L 117.778291 223.047627 
L 118.761665 227.761217 
L 119.782288 231.601081 
L 120.847609 234.764217 
L 121.95763 237.378102 
L 123.119799 239.557947 
L 124.349016 241.39865 
L 125.660181 242.965842 
L 127.075644 244.312152 
L 128.617753 245.471908 
L 130.323757 246.475333 
L 132.238356 247.340437 
L 134.406249 248.072346 
L 136.879583 248.668711 
L 139.695608 249.114899 
L 142.839424 249.384566 
L 146.184385 249.447841 
L 149.521896 249.290456 
L 152.621014 248.925693 
L 155.369991 248.38327 
L 157.761377 247.689944 
L 159.839872 246.860553 
L 161.665073 245.895956 
L 163.28168 244.792423 
L 164.741841 243.526071 
L 166.067906 242.081131 
L 167.297123 240.410039 
L 168.444393 238.47075 
L 169.532064 236.186162 
L 170.567586 233.478757 
L 171.55841 230.244861 
L 172.504535 226.377531 
L 173.420861 221.665499 
L 174.307387 215.89748 
L 175.164114 208.810762 
L 175.998492 199.997866 
L 176.81797 188.901396 
L 177.629999 174.777217 
L 178.456927 156.326727 
L 179.328553 131.642871 
L 180.431124 93.393952 
L 181.71994 50.079378 
L 182.233976 39.610761 
L 182.569217 36.463685 
L 182.733113 36.108357 
L 182.755462 36.121413 
L 182.859759 36.37746 
L 183.038555 37.556517 
L 183.314197 41.132833 
L 183.709037 49.559803 
L 184.305021 67.690109 
L 187.053998 157.867066 
L 187.962874 177.541811 
L 188.8494 192.133471 
L 189.743376 203.340809 
L 190.652252 212.060082 
L 191.590927 218.991432 
L 192.551951 224.4917 
L 193.550225 228.952684 
L 194.585747 232.587646 
L 195.658519 235.564761 
L 196.783439 238.045211 
L 197.960508 240.114719 
L 199.212074 241.872232 
L 200.553039 243.374047 
L 201.9983 244.66034 
L 203.585108 245.774291 
L 205.350711 246.739023 
L 207.332358 247.565015 
L 209.582198 248.258353 
L 212.15238 248.813647 
L 215.065252 249.211808 
L 218.283567 249.424864 
L 221.650877 249.425257 
L 224.93624 249.206209 
L 227.93851 248.787996 
L 230.58319 248.200324 
L 232.885178 247.465327 
L 234.889175 246.595408 
L 236.647328 245.592831 
L 238.211787 244.447239 
L 239.627249 243.135915 
L 240.923514 241.631052 
L 242.130382 239.884759 
L 243.262752 237.847082 
L 244.335524 235.446447 
L 245.356146 232.601553 
L 246.33207 229.203826 
L 247.270745 225.105798 
L 248.179621 220.103879 
L 249.058698 213.971352 
L 249.907975 206.427697 
L 250.742353 196.944875 
L 251.561831 184.979257 
L 252.37386 169.74424 
L 253.208237 149.708802 
L 254.117113 122.17729 
L 256.657496 40.719323 
L 257.015086 36.73782 
L 257.23113 36.108554 
L 257.320528 36.251349 
L 257.476974 37.06635 
L 257.722817 39.758783 
L 258.080408 46.49317 
L 258.609344 61.28941 
L 259.637416 97.876868 
L 260.933682 141.232998 
L 261.879807 165.602972 
L 262.773783 183.164948 
L 263.660309 196.41513 
L 264.561735 206.68786 
L 265.478061 214.69324 
L 266.424186 221.073136 
L 267.40011 226.185771 
L 268.405833 230.309918 
L 269.456255 233.702774 
L 270.543926 236.485475 
L 271.683746 238.8069 
L 272.890614 240.767875 
L 274.17198 242.429511 
L 275.542743 243.846355 
L 277.032704 245.068131 
L 278.67911 246.128748 
L 280.511761 247.0422 
L 282.582806 247.822479 
L 284.944393 248.470014 
L 287.633771 248.972669 
L 290.665841 249.309553 
L 293.958653 249.450178 
L 297.325964 249.37266 
L 300.529378 249.080109 
L 303.412452 248.598139 
L 305.930485 247.956765 
L 308.120726 247.173527 
L 310.027876 246.259375 
L 311.711531 245.209176 
L 313.223841 244.004692 
L 314.594604 242.62827 
L 315.86107 241.037641 
L 317.038139 239.196615 
L 318.14816 237.038269 
L 319.198582 234.498027 
L 320.204305 231.466316 
L 321.165329 227.843058 
L 322.089105 223.47066 
L 322.983081 218.132022 
L 323.847258 211.587484 
L 324.689085 203.462708 
L 325.516013 193.240045 
L 326.335492 180.213895 
L 327.15497 163.468367 
L 328.004247 141.32 
L 328.972721 109.813558 
L 330.879871 46.051077 
L 331.334309 38.276151 
L 331.624851 36.238604 
L 331.729148 36.108767 
L 331.773847 36.151626 
L 331.893044 36.554093 
L 332.094188 38.169371 
L 332.39963 42.750419 
L 332.839169 53.208347 
L 333.532 75.83728 
L 335.610495 146.357698 
L 336.54172 169.205632 
L 337.435696 185.906345 
L 338.329673 198.596509 
L 339.231099 208.35617 
L 340.154874 216.033433 
L 341.108449 222.154311 
L 342.091822 227.062966 
L 343.104995 231.026154 
L 344.162867 234.289513 
L 345.265438 236.984886 
L 346.420157 239.231594 
L 347.634475 241.117621 
L 348.93074 242.72546 
L 350.323853 244.10191 
L 351.843613 245.29106 
L 353.519818 246.319001 
L 355.397168 247.206536 
L 357.520362 247.960618 
L 359.941547 248.580371 
L 362.697974 249.052506 
L 365.789642 249.353327 
L 369.119703 249.452503 
L 372.472114 249.331564 
L 375.62338 248.999066 
L 378.431955 248.484124 
L 380.88294 247.813537 
L 383.013584 247.004021 
L 384.876034 246.061724 
L 386.52244 244.982205 
L 388.004951 243.744577 
L 389.353365 242.327889 
L 390.597482 240.695163 
L 391.759651 238.797419 
L 392.854772 236.575075 
L 393.897744 233.941927 
L 394.888568 230.82341 
L 395.842142 227.069527 
L 396.765918 222.496271 
L 397.652444 216.95018 
L 398.516621 210.083691 
L 399.358449 201.539735 
L 400.185377 190.770079 
L 400.997405 177.176439 
L 401.816883 159.578796 
L 402.68106 135.961703 
L 403.709133 101.21954 
L 405.258692 48.879385 
L 405.750379 39.273406 
L 406.07817 36.389485 
L 406.227166 36.108997 
L 406.256965 36.13166 
L 406.368712 36.450162 
L 406.562407 37.864778 
L 406.852949 41.942336 
L 407.270138 51.381926 
L 407.910821 71.637225 
L 410.294758 151.44192 
L 411.211083 172.785036 
L 412.105059 188.626919 
L 412.999036 200.66739 
L 413.907911 210.010217 
L 414.839137 217.360596 
L 415.792711 223.184251 
L 416.783535 227.899493 
L 417.804158 231.709983 
L 418.869479 234.850393 
L 419.9795 237.446637 
L 421.141669 239.612646 
L 422.370886 241.442347 
L 423.682051 243.0007 
L 425.097514 244.339824 
L 426.647073 245.498633 
L 428.360527 246.499909 
L 430.282576 247.361995 
L 432.457918 248.090276 
L 434.938702 248.682549 
L 437.762177 249.124236 
L 440.913443 249.388919 
L 444.265854 249.446483 
L 447.595915 249.283436 
L 450.687583 248.91349 
L 453.42911 248.366217 
L 455.813046 247.668401 
L 457.884091 246.835015 
L 459.701843 245.867122 
L 461.31845 244.755536 
L 462.771161 243.486784 
L 464.097226 242.031992 
L 465.326443 240.348848 
L 466.473713 238.394741 
L 467.553934 236.1092 
L 468.582007 233.404694 
L 469.565381 230.179533 
L 470.511505 226.29559 
L 471.427831 221.562102 
L 472.314357 215.766306 
L 473.171085 208.643655 
L 474.005462 199.784059 
L 474.824941 188.626919 
L 475.636969 174.424854 
L 476.463897 155.876236 
L 477.342974 130.842792 
L 478.460444 91.914049 
L 479.704561 50.195901 
L 480.218597 39.673842 
L 480.553838 36.484457 
L 480.717734 36.107519 
L 480.740083 36.11762 
L 480.836931 36.33197 
L 481.008276 37.384259 
L 481.276469 40.695516 
L 481.663859 48.692925 
L 482.237493 65.77153 
L 485.187615 161.362017 
L 486.089041 180.066318 
L 486.975567 194.055324 
L 487.869543 204.808571 
L 488.785869 213.248425 
L 489.724544 219.909693 
L 490.693018 225.243712 
L 491.691292 229.542287 
L 492.726814 233.052815 
L 493.807035 235.951922 
L 494.939405 238.367855 
L 496.131374 240.395349 
L 497.39039 242.105572 
L 498.738804 243.567261 
L 500.206415 244.830746 
L 501.815572 245.921466 
L 503.603525 246.862959 
L 505.622421 247.671233 
L 507.91696 248.346219 
L 510.53929 248.88116 
L 513.504311 249.254928 
L 516.759875 249.438639 
L 520.134635 249.40657 
L 523.390198 249.156203 
L 526.34777 248.709912 
L 528.940301 248.098545 
L 531.190141 247.344236 
L 533.149439 246.457176 
L 534.877793 245.433518 
L 536.419902 244.263379 
L 537.820464 242.9204 
L 539.10183 241.381698 
L 540.293799 239.599003 
L 541.411269 237.522433 
L 542.469141 235.080477 
L 543.482314 232.168698 
L 544.450788 228.691718 
L 545.382013 224.499213 
L 546.283439 219.383891 
L 547.155066 213.116087 
L 548.004343 205.336131 
L 548.831271 195.642587 
L 549.65075 183.304713 
L 550.470228 167.434672 
L 551.312055 146.565188 
L 552.243281 117.533224 
L 554.53782 42.610105 
L 554.932659 37.246868 
L 555.178502 36.122809 
L 555.253 36.133483 
L 555.27535 36.168699 
L 555.409446 36.688952 
L 555.625491 38.621053 
L 555.945832 43.815372 
L 556.40772 55.416109 
L 557.1676 81.03301 
L 558.963002 142.401992 
L 559.901677 166.334469 
L 560.795653 183.721896 
L 561.682179 196.839452 
L 562.583605 207.012119 
L 563.507381 214.999352 
L 564.453506 221.310222 
L 565.42943 226.370717 
L 566.442603 230.482091 
L 567.493025 233.83876 
L 568.588146 236.610377 
L 569.735415 238.919921 
L 570.942283 240.858112 
L 572.223649 242.501541 
L 573.601862 243.910497 
L 575.099272 245.124204 
L 576.753128 246.176694 
L 578.600679 247.085344 
L 580.686624 247.859319 
L 583.06311 248.499442 
L 585.774838 248.994887 
L 588.821807 249.322024 
L 592.122069 249.451619 
L 595.48938 249.362479 
L 598.677895 249.059339 
L 601.538619 248.569089 
L 604.041752 247.919235 
L 606.217094 247.128505 
L 608.116794 246.204179 
L 609.792999 245.143458 
L 611.297859 243.92811 
L 612.661173 242.540661 
L 613.920189 240.938879 
L 615.089808 239.086929 
L 616.192379 236.918191 
L 617.242801 234.348569 
L 618.241074 231.304989 
L 619.202099 227.640912 
L 620.125874 223.216269 
L 621.019851 217.810096 
L 621.884028 211.178222 
L 622.725855 202.93977 
L 623.552783 192.568719 
L 624.364811 179.485841 
L 625.18429 162.535237 
L 626.033567 140.139951 
L 627.016941 107.852515 
L 628.834693 46.838786 
L 629.30403 38.49754 
L 629.602022 36.2739 
L 629.721219 36.109786 
L 629.758468 36.144681 
L 629.877665 36.53147 
L 630.078809 38.12097 
L 630.376802 42.526569 
L 630.80889 52.666737 
L 631.486822 74.613406 
L 633.647265 147.678551 
L 634.57104 170.05915 
L 635.465016 186.555301 
L 636.358992 199.090271 
L 637.260418 208.734279 
L 638.184194 216.324727 
L 639.137768 222.380112 
L 640.121142 227.239297 
L 641.141765 231.190501 
L 642.199637 234.419479 
L 643.302208 237.088175 
L 644.456927 239.313975 
L 645.678694 241.193714 
L 646.97496 242.786195 
L 648.375523 244.1567 
L 649.902732 245.33939 
L 651.586387 246.36061 
L 653.471187 247.241293 
L 655.60928 247.990742 
L 658.045365 248.604529 
L 660.816692 249.069609 
L 663.923259 249.362255 
L 667.25332 249.451872 
L 670.605731 249.321208 
L 673.742098 248.980252 
L 676.535773 248.45784 
L 678.971858 247.780856 
L 681.087602 246.966358 
L 682.942603 246.016683 
L 684.581559 244.93001 
L 686.05662 243.685599 
L 687.397584 242.262825 
L 688.634251 240.625088 
L 689.79642 238.710302 
L 690.891541 236.466788 
L 691.927064 233.828187 
L 692.917887 230.681453 
L 693.871462 226.891521 
L 694.787788 222.313453 
L 695.674314 216.718718 
L 696.538491 209.788756 
L 697.380319 201.16212 
L 698.199797 190.395399 
L 699.011825 176.695358 
L 699.831303 158.963653 
L 700.69548 135.186829 
L 701.738453 99.754634 
L 703.235863 49.180033 
L 703.735 39.333531 
L 704.062791 36.408011 
L 704.211787 36.107864 
L 704.241586 36.126586 
L 704.345883 36.398675 
L 704.532128 37.674915 
L 704.815221 41.472929 
L 705.21751 50.273795 
L 705.835844 69.405604 
L 708.413475 154.816156 
L 709.322351 175.214973 
L 710.208877 190.362199 
L 711.102854 201.989701 
L 712.011729 211.023309 
L 712.942955 218.142015 
L 713.903979 223.830958 
L 714.894803 228.405378 
L 715.922875 232.132821 
L 716.988197 235.185366 
L 718.105667 237.72843 
L 719.275286 239.849849 
L 720.511953 241.641664 
L 721.838018 243.175224 
L 723.26838 244.490692 
L 724.832838 245.626973 
L 726.568642 246.610639 
L 728.52049 247.457218 
L 730.733081 248.170198 
L 733.258564 248.745871 
L 736.126738 249.16745 
L 739.307803 249.407677 
L 742.667664 249.438376 
L 745.975376 249.249134 
L 749.029794 248.855772 
L 751.726623 248.288968 
L 754.07331 247.572793 
L 756.114556 246.720775 
L 757.902508 245.73666 
L 759.496766 244.606401 
L 760.934578 243.313499 
L 762.245743 241.833841 
L 763.46006 240.125238 
L 764.59988 238.13122 
L 765.680101 235.781638 
L 766.708174 232.996648 
L 767.691548 229.669528 
L 768.637673 225.655188 
L 769.546548 220.797818 
L 770.425625 214.852392 
L 771.282352 207.478264 
L 772.11673 198.291799 
L 772.936208 186.710334 
L 773.748237 171.96494 
L 774.575165 152.736191 
L 775.469141 126.435761 
L 776.720708 81.956379 
L 777.718981 49.540711 
L 778.225567 39.424731 
L 778.553359 36.436899 
L 778.709805 36.108012 
L 778.732154 36.120083 
L 778.836451 36.371546 
L 779.015246 37.542887 
L 779.290889 41.108052 
L 779.685729 49.521629 
L 780.281713 67.639235 
L 783.03069 157.83027 
L 783.939565 177.513782 
L 784.826092 192.112135 
L 785.720068 203.324525 
L 786.628944 212.047576 
L 787.567619 218.981779 
L 788.528643 224.484184 
L 789.526917 228.946798 
L 790.562439 232.583008 
L 791.635211 235.561081 
L 792.760131 238.042283 
L 793.937199 240.11238 
L 795.188766 241.870364 
L 796.522281 243.365115 
L 797.967542 244.65326 
L 799.55435 245.768738 
L 801.312503 246.731164 
L 803.29415 247.559099 
L 805.543991 248.254075 
L 808.114172 248.810769 
L 811.027045 249.210151 
L 814.245359 249.424319 
L 815.951364 249.452727 
L 815.951364 249.452727 
" clip-path="url(#p729b72079a)" style="fill: none; stroke: #ff7f0e; stroke-width: 1.5; stroke-linecap: square"/>
   </g>
   <g id="patch_3">
    <path d="M 33.73 260.12 
L 33.73 25.44 
" style="fill: none; stroke: #000000; stroke-width: 0.8; stroke-linejoin: miter; stroke-linecap: square"/>
   </g>
   <g id="patch_4">
    <path d="M 853.2 260.12 
L 853.2 25.44 
" style="fill: none; stroke: #000000; stroke-width: 0.8; stroke-linejoin: miter; stroke-linecap: square"/>
   </g>
   <g id="patch_5">
    <path d="M 33.73 260.12 
L 853.2 260.12 
" style="fill: none; stroke: #000000; stroke-width: 0.8; stroke-linejoin: miter; stroke-linecap: square"/>
   </g>
   <g id="patch_6">
    <path d="M 33.73 25.44 
L 853.2 25.44 
" style="fill: none; stroke: #000000; stroke-width: 0.8; stroke-linejoin: miter; stroke-linecap: square"/>
   </g>
   <g id="text_13">
    <!-- 1D Diffusion Coefficient -->
    <g transform="translate(372.377187 19.44) scale(0.12 -0.12)">
     <defs>
      <path id="DejaVuSans-44" d="M 1259 4147 
L 1259 519 
L 2022 519 
Q 2988 519 3436 956 
Q 3884 1394 3884 2338 
Q 3884 3275 3436 3711 
Q 2988 4147 2022 4147 
L 1259 4147 
z
M 628 4666 
L 1925 4666 
Q 3281 4666 3915 4102 
Q 4550 3538 4550 2338 
Q 4550 1131 3912 565 
Q 3275 0 1925 0 
L 628 0 
L 628 4666 
z
" transform="scale(0.015625)"/>
      <path id="DejaVuSans-20" transform="scale(0.015625)"/>
      <path id="DejaVuSans-69" d="M 603 3500 
L 1178 3500 
L 1178 0 
L 603 0 
L 603 3500 
z
M 603 4863 
L 1178 4863 
L 1178 4134 
L 603 4134 
L 603 4863 
z
" transform="scale(0.015625)"/>
      <path id="DejaVuSans-66" d="M 2375 4863 
L 2375 4384 
L 1825 4384 
Q 1516 4384 1395 4259 
Q 1275 4134 1275 3809 
L 1275 3500 
L 2222 3500 
L 2222 3053 
L 1275 3053 
L 1275 0 
L 697 0 
L 697 3053 
L 147 3053 
L 147 3500 
L 697 3500 
L 697 3744 
Q 697 4328 969 4595 
Q 1241 4863 1831 4863 
L 2375 4863 
z
" transform="scale(0.015625)"/>
      <path id="DejaVuSans-75" d="M 544 1381 
L 544 3500 
L 1119 3500 
L 1119 1403 
Q 1119 906 1312 657 
Q 1506 409 1894 409 
Q 2359 409 2629 706 
Q 2900 1003 2900 1516 
L 2900 3500 
L 3475 3500 
L 3475 0 
L 2900 0 
L 2900 538 
Q 2691 219 2414 64 
Q 2138 -91 1772 -91 
Q 1169 -91 856 284 
Q 544 659 544 1381 
z
M 1991 3584 
L 1991 3584 
z
" transform="scale(0.015625)"/>
      <path id="DejaVuSans-73" d="M 2834 3397 
L 2834 2853 
Q 2591 2978 2328 3040 
Q 2066 3103 1784 3103 
Q 1356 3103 1142 2972 
Q 928 2841 928 2578 
Q 928 2378 1081 2264 
Q 1234 2150 1697 2047 
L 1894 2003 
Q 2506 1872 2764 1633 
Q 3022 1394 3022 966 
Q 3022 478 2636 193 
Q 2250 -91 1575 -91 
Q 1294 -91 989 -36 
Q 684 19 347 128 
L 347 722 
Q 666 556 975 473 
Q 1284 391 1588 391 
Q 1994 391 2212 530 
Q 2431 669 2431 922 
Q 2431 1156 2273 1281 
Q 2116 1406 1581 1522 
L 1381 1569 
Q 847 1681 609 1914 
Q 372 2147 372 2553 
Q 372 3047 722 3315 
Q 1072 3584 1716 3584 
Q 2034 3584 2315 3537 
Q 2597 3491 2834 3397 
z
" transform="scale(0.015625)"/>
      <path id="DejaVuSans-6f" d="M 1959 3097 
Q 1497 3097 1228 2736 
Q 959 2375 959 1747 
Q 959 1119 1226 758 
Q 1494 397 1959 397 
Q 2419 397 2687 759 
Q 2956 1122 2956 1747 
Q 2956 2369 2687 2733 
Q 2419 3097 1959 3097 
z
M 1959 3584 
Q 2709 3584 3137 3096 
Q 3566 2609 3566 1747 
Q 3566 888 3137 398 
Q 2709 -91 1959 -91 
Q 1206 -91 779 398 
Q 353 888 353 1747 
Q 353 2609 779 3096 
Q 1206 3584 1959 3584 
z
" transform="scale(0.015625)"/>
      <path id="DejaVuSans-6e" d="M 3513 2113 
L 3513 0 
L 2938 0 
L 2938 2094 
Q 2938 2591 2744 2837 
Q 2550 3084 2163 3084 
Q 1697 3084 1428 2787 
Q 1159 2491 1159 1978 
L 1159 0 
L 581 0 
L 581 3500 
L 1159 3500 
L 1159 2956 
Q 1366 3272 1645 3428 
Q 1925 3584 2291 3584 
Q 2894 3584 3203 3211 
Q 3513 2838 3513 2113 
z
" transform="scale(0.015625)"/>
      <path id="DejaVuSans-43" d="M 4122 4306 
L 4122 3641 
Q 3803 3938 3442 4084 
Q 3081 4231 2675 4231 
Q 1875 4231 1450 3742 
Q 1025 3253 1025 2328 
Q 1025 1406 1450 917 
Q 1875 428 2675 428 
Q 3081 428 3442 575 
Q 3803 722 4122 1019 
L 4122 359 
Q 3791 134 3420 21 
Q 3050 -91 2638 -91 
Q 1578 -91 968 557 
Q 359 1206 359 2328 
Q 359 3453 968 4101 
Q 1578 4750 2638 4750 
Q 3056 4750 3426 4639 
Q 3797 4528 4122 4306 
z
" transform="scale(0.015625)"/>
      <path id="DejaVuSans-65" d="M 3597 1894 
L 3597 1613 
L 953 1613 
Q 991 1019 1311 708 
Q 1631 397 2203 397 
Q 2534 397 2845 478 
Q 3156 559 3463 722 
L 3463 178 
Q 3153 47 2828 -22 
Q 2503 -91 2169 -91 
Q 1331 -91 842 396 
Q 353 884 353 1716 
Q 353 2575 817 3079 
Q 1281 3584 2069 3584 
Q 2775 3584 3186 3129 
Q 3597 2675 3597 1894 
z
M 3022 2063 
Q 3016 2534 2758 2815 
Q 2500 3097 2075 3097 
Q 1594 3097 1305 2825 
Q 1016 2553 972 2059 
L 3022 2063 
z
" transform="scale(0.015625)"/>
      <path id="DejaVuSans-63" d="M 3122 3366 
L 3122 2828 
Q 2878 2963 2633 3030 
Q 2388 3097 2138 3097 
Q 1578 3097 1268 2742 
Q 959 2388 959 1747 
Q 959 1106 1268 751 
Q 1578 397 2138 397 
Q 2388 397 2633 464 
Q 2878 531 3122 666 
L 3122 134 
Q 2881 22 2623 -34 
Q 2366 -91 2075 -91 
Q 1284 -91 818 406 
Q 353 903 353 1747 
Q 353 2603 823 3093 
Q 1294 3584 2113 3584 
Q 2378 3584 2631 3529 
Q 2884 3475 3122 3366 
z
" transform="scale(0.015625)"/>
      <path id="DejaVuSans-74" d="M 1172 4494 
L 1172 3500 
L 2356 3500 
L 2356 3053 
L 1172 3053 
L 1172 1153 
Q 1172 725 1289 603 
Q 1406 481 1766 481 
L 2356 481 
L 2356 0 
L 1766 0 
Q 1100 0 847 248 
Q 594 497 594 1153 
L 594 3053 
L 172 3053 
L 172 3500 
L 594 3500 
L 594 4494 
L 1172 4494 
z
" transform="scale(0.015625)"/>
     </defs>
     <use xlink:href="#DejaVuSans-31"/>
     <use xlink:href="#DejaVuSans-44" transform="translate(63.623047 0)"/>
     <use xlink:href="#DejaVuSans-20" transform="translate(140.625 0)"/>
     <use xlink:href="#DejaVuSans-44" transform="translate(172.412109 0)"/>
     <use xlink:href="#DejaVuSans-69" transform="translate(249.414062 0)"/>
     <use xlink:href="#DejaVuSans-66" transform="translate(277.197266 0)"/>
     <use xlink:href="#DejaVuSans-66" transform="translate(312.402344 0)"/>
     <use xlink:href="#DejaVuSans-75" transform="translate(347.607422 0)"/>
     <use xlink:href="#DejaVuSans-73" transform="translate(410.986328 0)"/>
     <use xlink:href="#DejaVuSans-69" transform="translate(463.085938 0)"/>
     <use xlink:href="#DejaVuSans-6f" transform="translate(490.869141 0)"/>
     <use xlink:href="#DejaVuSans-6e" transform="translate(552.050781 0)"/>
     <use xlink:href="#DejaVuSans-20" transform="translate(615.429688 0)"/>
     <use xlink:href="#DejaVuSans-43" transform="translate(647.216797 0)"/>
     <use xlink:href="#DejaVuSans-6f" transform="translate(717.041016 0)"/>
     <use xlink:href="#DejaVuSans-65" transform="translate(778.222656 0)"/>
     <use xlink:href="#DejaVuSans-66" transform="translate(839.746094 0)"/>
     <use xlink:href="#DejaVuSans-66" transform="translate(874.951172 0)"/>
     <use xlink:href="#DejaVuSans-69" transform="translate(910.15625 0)"/>
     <use xlink:href="#DejaVuSans-63" transform="translate(937.939453 0)"/>
     <use xlink:href="#DejaVuSans-69" transform="translate(992.919922 0)"/>
     <use xlink:href="#DejaVuSans-65" transform="translate(1020.703125 0)"/>
     <use xlink:href="#DejaVuSans-6e" transform="translate(1082.226562 0)"/>
     <use xlink:href="#DejaVuSans-74" transform="translate(1145.605469 0)"/>
    </g>
   </g>
   <g id="legend_1">
    <g id="patch_7">
     <path d="M 675.1 62.818125 
L 846.2 62.818125 
Q 848.2 62.818125 848.2 60.818125 
L 848.2 32.44 
Q 848.2 30.44 846.2 30.44 
L 675.1 30.44 
Q 673.1 30.44 673.1 32.44 
L 673.1 60.818125 
Q 673.1 62.818125 675.1 62.818125 
z
" style="fill: #ffffff; opacity: 0.8; stroke: #cccccc; stroke-linejoin: miter"/>
    </g>
    <g id="line2d_15">
     <path d="M 677.1 38.54 
L 687.1 38.54 
L 697.1 38.54 
" style="fill: none; stroke: #1f77b4; stroke-width: 1.5; stroke-linecap: square"/>
    </g>
    <g id="text_14">
     <!-- $D$ Sampled on a course grid -->
     <g transform="translate(705.1 42.04) scale(0.1 -0.1)">
      <defs>
       <path id="DejaVuSans-Oblique-44" d="M 1081 4666 
L 2438 4666 
Q 3519 4666 4070 4208 
Q 4622 3750 4622 2847 
Q 4622 2250 4412 1698 
Q 4203 1147 3834 769 
Q 3463 381 2891 190 
Q 2319 0 1538 0 
L 172 0 
L 1081 4666 
z
M 1613 4147 
L 909 519 
L 1734 519 
Q 2794 519 3375 1128 
Q 3956 1738 3956 2847 
Q 3956 3519 3581 3833 
Q 3206 4147 2406 4147 
L 1613 4147 
z
" transform="scale(0.015625)"/>
       <path id="DejaVuSans-53" d="M 3425 4513 
L 3425 3897 
Q 3066 4069 2747 4153 
Q 2428 4238 2131 4238 
Q 1616 4238 1336 4038 
Q 1056 3838 1056 3469 
Q 1056 3159 1242 3001 
Q 1428 2844 1947 2747 
L 2328 2669 
Q 3034 2534 3370 2195 
Q 3706 1856 3706 1288 
Q 3706 609 3251 259 
Q 2797 -91 1919 -91 
Q 1588 -91 1214 -16 
Q 841 59 441 206 
L 441 856 
Q 825 641 1194 531 
Q 1563 422 1919 422 
Q 2459 422 2753 634 
Q 3047 847 3047 1241 
Q 3047 1584 2836 1778 
Q 2625 1972 2144 2069 
L 1759 2144 
Q 1053 2284 737 2584 
Q 422 2884 422 3419 
Q 422 4038 858 4394 
Q 1294 4750 2059 4750 
Q 2388 4750 2728 4690 
Q 3069 4631 3425 4513 
z
" transform="scale(0.015625)"/>
       <path id="DejaVuSans-61" d="M 2194 1759 
Q 1497 1759 1228 1600 
Q 959 1441 959 1056 
Q 959 750 1161 570 
Q 1363 391 1709 391 
Q 2188 391 2477 730 
Q 2766 1069 2766 1631 
L 2766 1759 
L 2194 1759 
z
M 3341 1997 
L 3341 0 
L 2766 0 
L 2766 531 
Q 2569 213 2275 61 
Q 1981 -91 1556 -91 
Q 1019 -91 701 211 
Q 384 513 384 1019 
Q 384 1609 779 1909 
Q 1175 2209 1959 2209 
L 2766 2209 
L 2766 2266 
Q 2766 2663 2505 2880 
Q 2244 3097 1772 3097 
Q 1472 3097 1187 3025 
Q 903 2953 641 2809 
L 641 3341 
Q 956 3463 1253 3523 
Q 1550 3584 1831 3584 
Q 2591 3584 2966 3190 
Q 3341 2797 3341 1997 
z
" transform="scale(0.015625)"/>
       <path id="DejaVuSans-6d" d="M 3328 2828 
Q 3544 3216 3844 3400 
Q 4144 3584 4550 3584 
Q 5097 3584 5394 3201 
Q 5691 2819 5691 2113 
L 5691 0 
L 5113 0 
L 5113 2094 
Q 5113 2597 4934 2840 
Q 4756 3084 4391 3084 
Q 3944 3084 3684 2787 
Q 3425 2491 3425 1978 
L 3425 0 
L 2847 0 
L 2847 2094 
Q 2847 2600 2669 2842 
Q 2491 3084 2119 3084 
Q 1678 3084 1418 2786 
Q 1159 2488 1159 1978 
L 1159 0 
L 581 0 
L 581 3500 
L 1159 3500 
L 1159 2956 
Q 1356 3278 1631 3431 
Q 1906 3584 2284 3584 
Q 2666 3584 2933 3390 
Q 3200 3197 3328 2828 
z
" transform="scale(0.015625)"/>
       <path id="DejaVuSans-70" d="M 1159 525 
L 1159 -1331 
L 581 -1331 
L 581 3500 
L 1159 3500 
L 1159 2969 
Q 1341 3281 1617 3432 
Q 1894 3584 2278 3584 
Q 2916 3584 3314 3078 
Q 3713 2572 3713 1747 
Q 3713 922 3314 415 
Q 2916 -91 2278 -91 
Q 1894 -91 1617 61 
Q 1341 213 1159 525 
z
M 3116 1747 
Q 3116 2381 2855 2742 
Q 2594 3103 2138 3103 
Q 1681 3103 1420 2742 
Q 1159 2381 1159 1747 
Q 1159 1113 1420 752 
Q 1681 391 2138 391 
Q 2594 391 2855 752 
Q 3116 1113 3116 1747 
z
" transform="scale(0.015625)"/>
       <path id="DejaVuSans-6c" d="M 603 4863 
L 1178 4863 
L 1178 0 
L 603 0 
L 603 4863 
z
" transform="scale(0.015625)"/>
       <path id="DejaVuSans-64" d="M 2906 2969 
L 2906 4863 
L 3481 4863 
L 3481 0 
L 2906 0 
L 2906 525 
Q 2725 213 2448 61 
Q 2172 -91 1784 -91 
Q 1150 -91 751 415 
Q 353 922 353 1747 
Q 353 2572 751 3078 
Q 1150 3584 1784 3584 
Q 2172 3584 2448 3432 
Q 2725 3281 2906 2969 
z
M 947 1747 
Q 947 1113 1208 752 
Q 1469 391 1925 391 
Q 2381 391 2643 752 
Q 2906 1113 2906 1747 
Q 2906 2381 2643 2742 
Q 2381 3103 1925 3103 
Q 1469 3103 1208 2742 
Q 947 2381 947 1747 
z
" transform="scale(0.015625)"/>
       <path id="DejaVuSans-72" d="M 2631 2963 
Q 2534 3019 2420 3045 
Q 2306 3072 2169 3072 
Q 1681 3072 1420 2755 
Q 1159 2438 1159 1844 
L 1159 0 
L 581 0 
L 581 3500 
L 1159 3500 
L 1159 2956 
Q 1341 3275 1631 3429 
Q 1922 3584 2338 3584 
Q 2397 3584 2469 3576 
Q 2541 3569 2628 3553 
L 2631 2963 
z
" transform="scale(0.015625)"/>
       <path id="DejaVuSans-67" d="M 2906 1791 
Q 2906 2416 2648 2759 
Q 2391 3103 1925 3103 
Q 1463 3103 1205 2759 
Q 947 2416 947 1791 
Q 947 1169 1205 825 
Q 1463 481 1925 481 
Q 2391 481 2648 825 
Q 2906 1169 2906 1791 
z
M 3481 434 
Q 3481 -459 3084 -895 
Q 2688 -1331 1869 -1331 
Q 1566 -1331 1297 -1286 
Q 1028 -1241 775 -1147 
L 775 -588 
Q 1028 -725 1275 -790 
Q 1522 -856 1778 -856 
Q 2344 -856 2625 -561 
Q 2906 -266 2906 331 
L 2906 616 
Q 2728 306 2450 153 
Q 2172 0 1784 0 
Q 1141 0 747 490 
Q 353 981 353 1791 
Q 353 2603 747 3093 
Q 1141 3584 1784 3584 
Q 2172 3584 2450 3431 
Q 2728 3278 2906 2969 
L 2906 3500 
L 3481 3500 
L 3481 434 
z
" transform="scale(0.015625)"/>
      </defs>
      <use xlink:href="#DejaVuSans-Oblique-44" transform="translate(0 0.015625)"/>
      <use xlink:href="#DejaVuSans-20" transform="translate(77.001953 0.015625)"/>
      <use xlink:href="#DejaVuSans-53" transform="translate(108.789062 0.015625)"/>
      <use xlink:href="#DejaVuSans-61" transform="translate(172.265625 0.015625)"/>
      <use xlink:href="#DejaVuSans-6d" transform="translate(233.544922 0.015625)"/>
      <use xlink:href="#DejaVuSans-70" transform="translate(330.957031 0.015625)"/>
      <use xlink:href="#DejaVuSans-6c" transform="translate(394.433594 0.015625)"/>
      <use xlink:href="#DejaVuSans-65" transform="translate(422.216797 0.015625)"/>
      <use xlink:href="#DejaVuSans-64" transform="translate(483.740234 0.015625)"/>
      <use xlink:href="#DejaVuSans-20" transform="translate(547.216797 0.015625)"/>
      <use xlink:href="#DejaVuSans-6f" transform="translate(579.003906 0.015625)"/>
      <use xlink:href="#DejaVuSans-6e" transform="translate(640.185547 0.015625)"/>
      <use xlink:href="#DejaVuSans-20" transform="translate(703.564453 0.015625)"/>
      <use xlink:href="#DejaVuSans-61" transform="translate(735.351562 0.015625)"/>
      <use xlink:href="#DejaVuSans-20" transform="translate(796.630859 0.015625)"/>
      <use xlink:href="#DejaVuSans-63" transform="translate(828.417969 0.015625)"/>
      <use xlink:href="#DejaVuSans-6f" transform="translate(883.398438 0.015625)"/>
      <use xlink:href="#DejaVuSans-75" transform="translate(944.580078 0.015625)"/>
      <use xlink:href="#DejaVuSans-72" transform="translate(1007.958984 0.015625)"/>
      <use xlink:href="#DejaVuSans-73" transform="translate(1049.072266 0.015625)"/>
      <use xlink:href="#DejaVuSans-65" transform="translate(1101.171875 0.015625)"/>
      <use xlink:href="#DejaVuSans-20" transform="translate(1162.695312 0.015625)"/>
      <use xlink:href="#DejaVuSans-67" transform="translate(1194.482422 0.015625)"/>
      <use xlink:href="#DejaVuSans-72" transform="translate(1257.958984 0.015625)"/>
      <use xlink:href="#DejaVuSans-69" transform="translate(1299.072266 0.015625)"/>
      <use xlink:href="#DejaVuSans-64" transform="translate(1326.855469 0.015625)"/>
     </g>
    </g>
    <g id="line2d_16">
     <path d="M 677.1 53.238438 
L 687.1 53.238438 
L 697.1 53.238438 
" style="fill: none; stroke: #ff7f0e; stroke-width: 1.5; stroke-linecap: square"/>
    </g>
    <g id="text_15">
     <!-- $D$ -->
     <g transform="translate(705.1 56.738438) scale(0.1 -0.1)">
      <use xlink:href="#DejaVuSans-Oblique-44" transform="translate(0 0.09375)"/>
     </g>
    </g>
   </g>
  </g>
 </g>
 <defs>
  <clipPath id="p729b72079a">
   <rect x="33.73" y="25.44" width="819.47" height="234.68"/>
  </clipPath>
 </defs>
</svg>
