<?xml version="1.0" encoding="utf-8" standalone="no"?>
<!DOCTYPE svg PUBLIC "-//W3C//DTD SVG 1.1//EN"
  "http://www.w3.org/Graphics/SVG/1.1/DTD/svg11.dtd">
<svg xmlns:xlink="http://www.w3.org/1999/xlink" width="460.8pt" height="345.6pt" viewBox="0 0 460.8 345.6" xmlns="http://www.w3.org/2000/svg" version="1.1">
 <metadata>
  <rdf:RDF xmlns:dc="http://purl.org/dc/elements/1.1/" xmlns:cc="http://creativecommons.org/ns#" xmlns:rdf="http://www.w3.org/1999/02/22-rdf-syntax-ns#">
   <cc:Work>
    <dc:type rdf:resource="http://purl.org/dc/dcmitype/StillImage"/>
    <dc:date>2025-07-08T10:54:26.019504</dc:date>
    <dc:format>image/svg+xml</dc:format>
    <dc:creator>
     <cc:Agent>
      <dc:title>Matplotlib v3.10.3, https://matplotlib.org/</dc:title>
     </cc:Agent>
    </dc:creator>
   </cc:Work>
  </rdf:RDF>
 </metadata>
 <defs>
  <style type="text/css">*{stroke-linejoin: round; stroke-linecap: butt}</style>
 </defs>
 <g id="figure_1">
  <g id="patch_1">
   <path d="M 0 345.6 
L 460.8 345.6 
L 460.8 0 
L 0 0 
z
" style="fill: #ffffff"/>
  </g>
  <g id="axes_1">
   <g id="patch_2">
    <path d="M 57.6 307.584 
L 414.72 307.584 
L 414.72 41.472 
L 57.6 41.472 
z
" style="fill: #ffffff"/>
   </g>
   <g id="matplotlib.axis_1">
    <g id="xtick_1">
     <g id="line2d_1">
      <defs>
       <path id="m8208f27875" d="M 0 0 
L 0 3.5 
" style="stroke: #000000; stroke-width: 0.8"/>
      </defs>
      <g>
       <use xlink:href="#m8208f27875" x="73.832727" y="307.584" style="stroke: #000000; stroke-width: 0.8"/>
      </g>
     </g>
     <g id="text_1">
      <!-- 0.0 -->
      <g transform="translate(65.881165 322.182437) scale(0.1 -0.1)">
       <defs>
        <path id="DejaVuSans-30" d="M 2034 4250 
Q 1547 4250 1301 3770 
Q 1056 3291 1056 2328 
Q 1056 1369 1301 889 
Q 1547 409 2034 409 
Q 2525 409 2770 889 
Q 3016 1369 3016 2328 
Q 3016 3291 2770 3770 
Q 2525 4250 2034 4250 
z
M 2034 4750 
Q 2819 4750 3233 4129 
Q 3647 3509 3647 2328 
Q 3647 1150 3233 529 
Q 2819 -91 2034 -91 
Q 1250 -91 836 529 
Q 422 1150 422 2328 
Q 422 3509 836 4129 
Q 1250 4750 2034 4750 
z
" transform="scale(0.015625)"/>
        <path id="DejaVuSans-2e" d="M 684 794 
L 1344 794 
L 1344 0 
L 684 0 
L 684 794 
z
" transform="scale(0.015625)"/>
       </defs>
       <use xlink:href="#DejaVuSans-30"/>
       <use xlink:href="#DejaVuSans-2e" transform="translate(63.623047 0)"/>
       <use xlink:href="#DejaVuSans-30" transform="translate(95.410156 0)"/>
      </g>
     </g>
    </g>
    <g id="xtick_2">
     <g id="line2d_2">
      <g>
       <use xlink:href="#m8208f27875" x="138.763636" y="307.584" style="stroke: #000000; stroke-width: 0.8"/>
      </g>
     </g>
     <g id="text_2">
      <!-- 0.2 -->
      <g transform="translate(130.812074 322.182437) scale(0.1 -0.1)">
       <defs>
        <path id="DejaVuSans-32" d="M 1228 531 
L 3431 531 
L 3431 0 
L 469 0 
L 469 531 
Q 828 903 1448 1529 
Q 2069 2156 2228 2338 
Q 2531 2678 2651 2914 
Q 2772 3150 2772 3378 
Q 2772 3750 2511 3984 
Q 2250 4219 1831 4219 
Q 1534 4219 1204 4116 
Q 875 4013 500 3803 
L 500 4441 
Q 881 4594 1212 4672 
Q 1544 4750 1819 4750 
Q 2544 4750 2975 4387 
Q 3406 4025 3406 3419 
Q 3406 3131 3298 2873 
Q 3191 2616 2906 2266 
Q 2828 2175 2409 1742 
Q 1991 1309 1228 531 
z
" transform="scale(0.015625)"/>
       </defs>
       <use xlink:href="#DejaVuSans-30"/>
       <use xlink:href="#DejaVuSans-2e" transform="translate(63.623047 0)"/>
       <use xlink:href="#DejaVuSans-32" transform="translate(95.410156 0)"/>
      </g>
     </g>
    </g>
    <g id="xtick_3">
     <g id="line2d_3">
      <g>
       <use xlink:href="#m8208f27875" x="203.694545" y="307.584" style="stroke: #000000; stroke-width: 0.8"/>
      </g>
     </g>
     <g id="text_3">
      <!-- 0.4 -->
      <g transform="translate(195.742983 322.182437) scale(0.1 -0.1)">
       <defs>
        <path id="DejaVuSans-34" d="M 2419 4116 
L 825 1625 
L 2419 1625 
L 2419 4116 
z
M 2253 4666 
L 3047 4666 
L 3047 1625 
L 3713 1625 
L 3713 1100 
L 3047 1100 
L 3047 0 
L 2419 0 
L 2419 1100 
L 313 1100 
L 313 1709 
L 2253 4666 
z
" transform="scale(0.015625)"/>
       </defs>
       <use xlink:href="#DejaVuSans-30"/>
       <use xlink:href="#DejaVuSans-2e" transform="translate(63.623047 0)"/>
       <use xlink:href="#DejaVuSans-34" transform="translate(95.410156 0)"/>
      </g>
     </g>
    </g>
    <g id="xtick_4">
     <g id="line2d_4">
      <g>
       <use xlink:href="#m8208f27875" x="268.625455" y="307.584" style="stroke: #000000; stroke-width: 0.8"/>
      </g>
     </g>
     <g id="text_4">
      <!-- 0.6 -->
      <g transform="translate(260.673892 322.182437) scale(0.1 -0.1)">
       <defs>
        <path id="DejaVuSans-36" d="M 2113 2584 
Q 1688 2584 1439 2293 
Q 1191 2003 1191 1497 
Q 1191 994 1439 701 
Q 1688 409 2113 409 
Q 2538 409 2786 701 
Q 3034 994 3034 1497 
Q 3034 2003 2786 2293 
Q 2538 2584 2113 2584 
z
M 3366 4563 
L 3366 3988 
Q 3128 4100 2886 4159 
Q 2644 4219 2406 4219 
Q 1781 4219 1451 3797 
Q 1122 3375 1075 2522 
Q 1259 2794 1537 2939 
Q 1816 3084 2150 3084 
Q 2853 3084 3261 2657 
Q 3669 2231 3669 1497 
Q 3669 778 3244 343 
Q 2819 -91 2113 -91 
Q 1303 -91 875 529 
Q 447 1150 447 2328 
Q 447 3434 972 4092 
Q 1497 4750 2381 4750 
Q 2619 4750 2861 4703 
Q 3103 4656 3366 4563 
z
" transform="scale(0.015625)"/>
       </defs>
       <use xlink:href="#DejaVuSans-30"/>
       <use xlink:href="#DejaVuSans-2e" transform="translate(63.623047 0)"/>
       <use xlink:href="#DejaVuSans-36" transform="translate(95.410156 0)"/>
      </g>
     </g>
    </g>
    <g id="xtick_5">
     <g id="line2d_5">
      <g>
       <use xlink:href="#m8208f27875" x="333.556364" y="307.584" style="stroke: #000000; stroke-width: 0.8"/>
      </g>
     </g>
     <g id="text_5">
      <!-- 0.8 -->
      <g transform="translate(325.604801 322.182437) scale(0.1 -0.1)">
       <defs>
        <path id="DejaVuSans-38" d="M 2034 2216 
Q 1584 2216 1326 1975 
Q 1069 1734 1069 1313 
Q 1069 891 1326 650 
Q 1584 409 2034 409 
Q 2484 409 2743 651 
Q 3003 894 3003 1313 
Q 3003 1734 2745 1975 
Q 2488 2216 2034 2216 
z
M 1403 2484 
Q 997 2584 770 2862 
Q 544 3141 544 3541 
Q 544 4100 942 4425 
Q 1341 4750 2034 4750 
Q 2731 4750 3128 4425 
Q 3525 4100 3525 3541 
Q 3525 3141 3298 2862 
Q 3072 2584 2669 2484 
Q 3125 2378 3379 2068 
Q 3634 1759 3634 1313 
Q 3634 634 3220 271 
Q 2806 -91 2034 -91 
Q 1263 -91 848 271 
Q 434 634 434 1313 
Q 434 1759 690 2068 
Q 947 2378 1403 2484 
z
M 1172 3481 
Q 1172 3119 1398 2916 
Q 1625 2713 2034 2713 
Q 2441 2713 2670 2916 
Q 2900 3119 2900 3481 
Q 2900 3844 2670 4047 
Q 2441 4250 2034 4250 
Q 1625 4250 1398 4047 
Q 1172 3844 1172 3481 
z
" transform="scale(0.015625)"/>
       </defs>
       <use xlink:href="#DejaVuSans-30"/>
       <use xlink:href="#DejaVuSans-2e" transform="translate(63.623047 0)"/>
       <use xlink:href="#DejaVuSans-38" transform="translate(95.410156 0)"/>
      </g>
     </g>
    </g>
    <g id="xtick_6">
     <g id="line2d_6">
      <g>
       <use xlink:href="#m8208f27875" x="398.487273" y="307.584" style="stroke: #000000; stroke-width: 0.8"/>
      </g>
     </g>
     <g id="text_6">
      <!-- 1.0 -->
      <g transform="translate(390.53571 322.182437) scale(0.1 -0.1)">
       <defs>
        <path id="DejaVuSans-31" d="M 794 531 
L 1825 531 
L 1825 4091 
L 703 3866 
L 703 4441 
L 1819 4666 
L 2450 4666 
L 2450 531 
L 3481 531 
L 3481 0 
L 794 0 
L 794 531 
z
" transform="scale(0.015625)"/>
       </defs>
       <use xlink:href="#DejaVuSans-31"/>
       <use xlink:href="#DejaVuSans-2e" transform="translate(63.623047 0)"/>
       <use xlink:href="#DejaVuSans-30" transform="translate(95.410156 0)"/>
      </g>
     </g>
    </g>
    <g id="text_7">
     <!-- $x$ -->
     <g transform="translate(233.16 335.860562) scale(0.1 -0.1)">
      <defs>
       <path id="DejaVuSans-Oblique-78" d="M 3841 3500 
L 2234 1784 
L 3219 0 
L 2559 0 
L 1819 1388 
L 531 0 
L -166 0 
L 1556 1844 
L 641 3500 
L 1300 3500 
L 1972 2234 
L 3144 3500 
L 3841 3500 
z
" transform="scale(0.015625)"/>
      </defs>
      <use xlink:href="#DejaVuSans-Oblique-78" transform="translate(0 0.3125)"/>
     </g>
    </g>
   </g>
   <g id="matplotlib.axis_2">
    <g id="ytick_1">
     <g id="line2d_7">
      <defs>
       <path id="m74b6a67850" d="M 0 0 
L -3.5 0 
" style="stroke: #000000; stroke-width: 0.8"/>
      </defs>
      <g>
       <use xlink:href="#m74b6a67850" x="57.6" y="295.488" style="stroke: #000000; stroke-width: 0.8"/>
      </g>
     </g>
     <g id="text_8">
      <!-- 0.00 -->
      <g transform="translate(28.334375 299.287219) scale(0.1 -0.1)">
       <use xlink:href="#DejaVuSans-30"/>
       <use xlink:href="#DejaVuSans-2e" transform="translate(63.623047 0)"/>
       <use xlink:href="#DejaVuSans-30" transform="translate(95.410156 0)"/>
       <use xlink:href="#DejaVuSans-30" transform="translate(159.033203 0)"/>
      </g>
     </g>
    </g>
    <g id="ytick_2">
     <g id="line2d_8">
      <g>
       <use xlink:href="#m74b6a67850" x="57.6" y="248.292147" style="stroke: #000000; stroke-width: 0.8"/>
      </g>
     </g>
     <g id="text_9">
      <!-- 0.05 -->
      <g transform="translate(28.334375 252.091365) scale(0.1 -0.1)">
       <defs>
        <path id="DejaVuSans-35" d="M 691 4666 
L 3169 4666 
L 3169 4134 
L 1269 4134 
L 1269 2991 
Q 1406 3038 1543 3061 
Q 1681 3084 1819 3084 
Q 2600 3084 3056 2656 
Q 3513 2228 3513 1497 
Q 3513 744 3044 326 
Q 2575 -91 1722 -91 
Q 1428 -91 1123 -41 
Q 819 9 494 109 
L 494 744 
Q 775 591 1075 516 
Q 1375 441 1709 441 
Q 2250 441 2565 725 
Q 2881 1009 2881 1497 
Q 2881 1984 2565 2268 
Q 2250 2553 1709 2553 
Q 1456 2553 1204 2497 
Q 953 2441 691 2322 
L 691 4666 
z
" transform="scale(0.015625)"/>
       </defs>
       <use xlink:href="#DejaVuSans-30"/>
       <use xlink:href="#DejaVuSans-2e" transform="translate(63.623047 0)"/>
       <use xlink:href="#DejaVuSans-30" transform="translate(95.410156 0)"/>
       <use xlink:href="#DejaVuSans-35" transform="translate(159.033203 0)"/>
      </g>
     </g>
    </g>
    <g id="ytick_3">
     <g id="line2d_9">
      <g>
       <use xlink:href="#m74b6a67850" x="57.6" y="201.096293" style="stroke: #000000; stroke-width: 0.8"/>
      </g>
     </g>
     <g id="text_10">
      <!-- 0.10 -->
      <g transform="translate(28.334375 204.895512) scale(0.1 -0.1)">
       <use xlink:href="#DejaVuSans-30"/>
       <use xlink:href="#DejaVuSans-2e" transform="translate(63.623047 0)"/>
       <use xlink:href="#DejaVuSans-31" transform="translate(95.410156 0)"/>
       <use xlink:href="#DejaVuSans-30" transform="translate(159.033203 0)"/>
      </g>
     </g>
    </g>
    <g id="ytick_4">
     <g id="line2d_10">
      <g>
       <use xlink:href="#m74b6a67850" x="57.6" y="153.90044" style="stroke: #000000; stroke-width: 0.8"/>
      </g>
     </g>
     <g id="text_11">
      <!-- 0.15 -->
      <g transform="translate(28.334375 157.699658) scale(0.1 -0.1)">
       <use xlink:href="#DejaVuSans-30"/>
       <use xlink:href="#DejaVuSans-2e" transform="translate(63.623047 0)"/>
       <use xlink:href="#DejaVuSans-31" transform="translate(95.410156 0)"/>
       <use xlink:href="#DejaVuSans-35" transform="translate(159.033203 0)"/>
      </g>
     </g>
    </g>
    <g id="ytick_5">
     <g id="line2d_11">
      <g>
       <use xlink:href="#m74b6a67850" x="57.6" y="106.704586" style="stroke: #000000; stroke-width: 0.8"/>
      </g>
     </g>
     <g id="text_12">
      <!-- 0.20 -->
      <g transform="translate(28.334375 110.503805) scale(0.1 -0.1)">
       <use xlink:href="#DejaVuSans-30"/>
       <use xlink:href="#DejaVuSans-2e" transform="translate(63.623047 0)"/>
       <use xlink:href="#DejaVuSans-32" transform="translate(95.410156 0)"/>
       <use xlink:href="#DejaVuSans-30" transform="translate(159.033203 0)"/>
      </g>
     </g>
    </g>
    <g id="ytick_6">
     <g id="line2d_12">
      <g>
       <use xlink:href="#m74b6a67850" x="57.6" y="59.508733" style="stroke: #000000; stroke-width: 0.8"/>
      </g>
     </g>
     <g id="text_13">
      <!-- 0.25 -->
      <g transform="translate(28.334375 63.307951) scale(0.1 -0.1)">
       <use xlink:href="#DejaVuSans-30"/>
       <use xlink:href="#DejaVuSans-2e" transform="translate(63.623047 0)"/>
       <use xlink:href="#DejaVuSans-32" transform="translate(95.410156 0)"/>
       <use xlink:href="#DejaVuSans-35" transform="translate(159.033203 0)"/>
      </g>
     </g>
    </g>
    <g id="text_14">
     <!-- $c(x)$ -->
     <g transform="translate(22.254688 184.178) rotate(-90) scale(0.1 -0.1)">
      <defs>
       <path id="DejaVuSans-Oblique-63" d="M 3431 3366 
L 3316 2797 
Q 3109 2947 2876 3022 
Q 2644 3097 2394 3097 
Q 2119 3097 1870 3000 
Q 1622 2903 1453 2725 
Q 1184 2453 1037 2087 
Q 891 1722 891 1331 
Q 891 859 1127 628 
Q 1363 397 1844 397 
Q 2081 397 2348 469 
Q 2616 541 2906 684 
L 2797 116 
Q 2547 13 2283 -39 
Q 2019 -91 1741 -91 
Q 1044 -91 669 257 
Q 294 606 294 1253 
Q 294 1797 489 2255 
Q 684 2713 1069 3078 
Q 1331 3328 1684 3456 
Q 2038 3584 2456 3584 
Q 2700 3584 2940 3529 
Q 3181 3475 3431 3366 
z
" transform="scale(0.015625)"/>
       <path id="DejaVuSans-28" d="M 1984 4856 
Q 1566 4138 1362 3434 
Q 1159 2731 1159 2009 
Q 1159 1288 1364 580 
Q 1569 -128 1984 -844 
L 1484 -844 
Q 1016 -109 783 600 
Q 550 1309 550 2009 
Q 550 2706 781 3412 
Q 1013 4119 1484 4856 
L 1984 4856 
z
" transform="scale(0.015625)"/>
       <path id="DejaVuSans-29" d="M 513 4856 
L 1013 4856 
Q 1481 4119 1714 3412 
Q 1947 2706 1947 2009 
Q 1947 1309 1714 600 
Q 1481 -109 1013 -844 
L 513 -844 
Q 928 -128 1133 580 
Q 1338 1288 1338 2009 
Q 1338 2731 1133 3434 
Q 928 4138 513 4856 
z
" transform="scale(0.015625)"/>
      </defs>
      <use xlink:href="#DejaVuSans-Oblique-63" transform="translate(0 0.125)"/>
      <use xlink:href="#DejaVuSans-28" transform="translate(54.980469 0.125)"/>
      <use xlink:href="#DejaVuSans-Oblique-78" transform="translate(93.994141 0.125)"/>
      <use xlink:href="#DejaVuSans-29" transform="translate(153.173828 0.125)"/>
     </g>
    </g>
   </g>
   <g id="line2d_13">
    <path d="M 73.832727 295.488 
L 109.905455 285.485555 
L 145.978182 248.777669 
L 182.050909 194.474899 
L 218.123636 154.207112 
L 254.196364 154.207112 
L 290.269091 194.474899 
L 326.341818 248.777669 
L 362.414545 285.485555 
L 398.487273 295.488 
" clip-path="url(#p0cb5305083)" style="fill: none; stroke: #1f77b4; stroke-width: 1.5; stroke-linecap: square"/>
   </g>
   <g id="line2d_14">
    <path d="M 73.832727 295.488 
L 109.905455 194.189997 
L 145.978182 120.990031 
L 182.050909 75.13355 
L 218.123636 53.568 
L 254.196364 53.669213 
L 290.269091 75.343745 
L 326.341818 121.119069 
L 362.414545 194.156047 
L 398.487273 295.488 
" clip-path="url(#p0cb5305083)" style="fill: none; stroke: #ff7f0e; stroke-width: 1.5; stroke-linecap: square"/>
   </g>
   <g id="line2d_15">
    <path d="M 73.832727 295.488 
L 77.082884 279.292127 
L 78.888527 271.436805 
L 80.333041 266.093719 
L 81.777555 261.721821 
L 82.86094 259.10929 
L 83.944326 257.057763 
L 85.027712 255.531073 
L 86.111097 254.469831 
L 87.194483 253.794106 
L 88.277868 253.407022 
L 90.083511 253.102322 
L 91.889154 252.748527 
L 92.972539 252.287633 
L 94.055925 251.509975 
L 95.13931 250.325007 
L 96.222696 248.66058 
L 97.306082 246.466128 
L 98.389467 243.714885 
L 99.472853 240.405038 
L 100.917367 235.166516 
L 102.361881 229.099035 
L 104.528652 218.863987 
L 109.584451 194.189997 
L 109.94558 194.189997 
L 111.751223 188.431956 
L 113.195737 184.563864 
L 114.279122 182.14919 
L 115.362508 180.165737 
L 116.445893 178.60566 
L 117.529279 177.442335 
L 118.612665 176.631577 
L 119.69605 176.113632 
L 120.779436 175.815866 
L 122.585078 175.582656 
L 124.390721 175.320723 
L 125.474107 174.979879 
L 126.557492 174.402671 
L 127.640878 173.520399 
L 128.724263 172.278133 
L 129.807649 170.637146 
L 130.891034 168.576611 
L 131.97442 166.094498 
L 133.418934 162.160953 
L 134.863448 157.599146 
L 137.030219 149.893096 
L 142.447147 130.069786 
L 144.25279 124.610369 
L 145.697304 120.990031 
L 146.058433 120.990031 
L 147.502947 119.018971 
L 148.586332 117.874793 
L 149.669718 117.003485 
L 150.753103 116.379733 
L 151.836489 115.967275 
L 153.281003 115.666143 
L 156.170031 115.424166 
L 157.614545 115.201955 
L 159.05906 114.733023 
L 160.142445 114.150925 
L 161.225831 113.329293 
L 162.309216 112.241843 
L 163.392602 110.874216 
L 164.837116 108.613587 
L 166.28163 105.883502 
L 168.087273 101.916746 
L 170.615172 95.702789 
L 174.226458 86.788004 
L 176.0321 82.886279 
L 177.476614 80.221266 
L 178.921129 78.031144 
L 180.004514 76.716311 
L 181.0879 75.678826 
L 181.810157 75.13355 
L 182.171285 75.13355 
L 183.615799 74.738328 
L 185.421442 74.484475 
L 189.032727 74.316149 
L 191.199498 74.068952 
L 192.644013 73.710099 
L 194.088527 73.140381 
L 195.533041 72.330633 
L 196.977555 71.270767 
L 198.783197 69.610902 
L 200.58884 67.637128 
L 203.477868 64.083261 
L 207.089154 59.675268 
L 208.894796 57.779704 
L 210.700439 56.218154 
L 212.144953 55.242975 
L 213.589467 54.515835 
L 215.033981 54.020077 
L 216.839624 53.671181 
L 218.645266 53.56811 
L 254.396991 53.669213 
L 256.202633 53.885904 
L 257.647147 54.237391 
L 259.091661 54.799072 
L 260.536176 55.601201 
L 261.98069 56.654917 
L 263.425204 57.951402 
L 265.230846 59.869018 
L 267.758746 62.935764 
L 272.092288 68.297165 
L 273.897931 70.215951 
L 275.703574 71.801552 
L 277.148088 72.79516 
L 278.592602 73.538912 
L 280.037116 74.048601 
L 281.842759 74.410177 
L 284.00953 74.576212 
L 287.981944 74.830588 
L 289.787586 75.228286 
L 290.870972 75.606658 
L 291.954357 76.569783 
L 293.037743 77.808572 
L 294.121129 79.330748 
L 295.565643 81.790764 
L 297.010157 84.698503 
L 298.815799 88.836162 
L 302.427085 97.900691 
L 304.954984 103.938397 
L 306.760627 107.660543 
L 308.205141 110.146934 
L 309.649655 112.142871 
L 310.733041 113.311258 
L 311.816426 114.209 
L 312.899812 114.859018 
L 313.983197 115.295192 
L 315.427712 115.62009 
L 317.594483 115.812287 
L 319.761254 116.062607 
L 321.205768 116.48572 
L 322.289154 117.020672 
L 323.372539 117.78515 
L 324.455925 118.806778 
L 325.53931 120.101633 
L 326.261567 121.119069 
L 326.622696 121.119069 
L 328.06721 124.803824 
L 329.511724 129.164625 
L 331.317367 135.377477 
L 334.567524 147.643678 
L 337.095423 156.884842 
L 338.901066 162.683258 
L 340.34558 166.616595 
L 341.790094 169.825839 
L 342.87348 171.737754 
L 343.956865 173.234308 
L 345.040251 174.343538 
L 346.123636 175.110621 
L 347.207022 175.595833 
L 348.651536 175.931303 
L 352.262821 176.460948 
L 353.346207 176.888593 
L 354.429592 177.579914 
L 355.512978 178.597044 
L 356.596364 179.987428 
L 357.679749 181.78173 
L 358.763135 183.992497 
L 360.207649 187.57481 
L 361.652163 191.819819 
L 362.37442 194.156047 
L 362.735549 194.156047 
L 364.90232 204.631685 
L 369.958119 229.764312 
L 371.763762 237.323285 
L 373.208276 242.386554 
L 374.291661 245.538948 
L 375.375047 248.121434 
L 376.458433 250.146101 
L 377.541818 251.649768 
L 378.625204 252.692306 
L 379.708589 253.353933 
L 380.791975 253.731604 
L 382.597618 254.030591 
L 384.40326 254.389428 
L 385.486646 254.857245 
L 386.570031 255.643726 
L 387.653417 256.838475 
L 388.736803 258.512658 
L 389.820188 260.71586 
L 390.903574 263.473913 
L 391.986959 266.787782 
L 393.431473 272.026105 
L 394.875987 278.085903 
L 397.042759 288.294114 
L 398.487273 295.488 
L 398.487273 295.488 
" clip-path="url(#p0cb5305083)" style="fill: none; stroke: #2ca02c; stroke-width: 1.5; stroke-linecap: square"/>
   </g>
   <g id="line2d_16">
    <path d="M 73.832727 295.488 
L 76.757543 279.472667 
L 78.382441 271.582404 
L 80.007338 264.816615 
L 81.307256 260.346645 
L 82.607174 256.761144 
L 83.582113 254.645688 
L 84.557052 252.99493 
L 85.53199 251.767638 
L 86.506929 250.908706 
L 87.481867 250.351283 
L 88.456806 250.019305 
L 90.081704 249.741401 
L 92.031581 249.37287 
L 93.006519 248.981123 
L 93.981458 248.352069 
L 94.956396 247.42334 
L 95.931335 246.144637 
L 96.906274 244.479356 
L 97.881212 242.4057 
L 99.18113 238.996708 
L 100.481048 234.879216 
L 102.105946 228.851106 
L 104.055823 220.638515 
L 110.230434 193.765358 
L 111.855332 188.030917 
L 113.15525 184.166001 
L 114.455168 180.999042 
L 115.430106 179.086991 
L 116.405045 177.558416 
L 117.379984 176.38724 
L 118.354922 175.535732 
L 119.329861 174.956039 
L 120.304799 174.592052 
L 121.604717 174.334125 
L 124.854513 173.849214 
L 125.829451 173.485087 
L 126.80439 172.919891 
L 127.779328 172.109657 
L 128.754267 171.020489 
L 129.729206 169.6296 
L 131.029124 167.288331 
L 132.329042 164.398977 
L 133.953939 160.084844 
L 135.903817 154.089633 
L 139.478591 142.041685 
L 141.753448 134.711795 
L 143.378346 130.076542 
L 145.003243 126.139453 
L 146.303161 123.561956 
L 147.603079 121.51225 
L 148.578018 120.312862 
L 149.552957 119.384066 
L 150.527895 118.699321 
L 151.827813 118.106227 
L 153.127731 117.788938 
L 155.077609 117.589242 
L 157.352465 117.317689 
L 158.652383 116.939044 
L 159.952301 116.290239 
L 161.252219 115.310029 
L 162.552138 113.961996 
L 163.852056 112.236048 
L 165.151974 110.148181 
L 166.776871 107.092643 
L 169.051728 102.214121 
L 174.2514 90.751072 
L 175.876298 87.732141 
L 177.501196 85.194854 
L 178.801114 83.550481 
L 180.101032 82.255144 
L 181.40095 81.29299 
L 182.700868 80.62962 
L 184.000786 80.215114 
L 185.625684 79.952494 
L 191.475315 79.366571 
L 193.100213 78.809077 
L 194.400131 78.146367 
L 196.025029 77.035497 
L 197.649926 75.630845 
L 199.599803 73.633095 
L 203.174578 69.541777 
L 205.774414 66.694204 
L 207.724292 64.860458 
L 209.349189 63.605188 
L 210.974087 62.6228 
L 212.598984 61.90915 
L 214.223882 61.436978 
L 216.173759 61.124933 
L 218.773595 60.980198 
L 224.623227 60.767492 
L 228.198002 60.335631 
L 233.722654 59.609723 
L 236.32249 59.509194 
L 238.922326 59.637451 
L 242.172121 60.043563 
L 247.696773 60.767492 
L 250.946568 60.935229 
L 256.47122 61.161292 
L 258.421097 61.514051 
L 260.045995 62.031394 
L 261.670893 62.797286 
L 263.29579 63.834729 
L 264.920688 65.142796 
L 266.870565 67.02944 
L 269.470401 69.916423 
L 273.695135 74.667687 
L 275.645012 76.506618 
L 277.26991 77.739336 
L 278.894808 78.66216 
L 280.519705 79.277491 
L 282.144603 79.626036 
L 284.09448 79.80323 
L 287.669255 80.082295 
L 288.969173 80.394882 
L 290.269091 80.926755 
L 291.569009 81.734165 
L 292.868927 82.859711 
L 294.168845 84.328833 
L 295.468763 86.147316 
L 297.093661 88.886674 
L 298.718559 92.071889 
L 300.993415 97.044472 
L 305.218149 106.431468 
L 307.168026 110.148181 
L 308.792924 112.702523 
L 310.092842 114.334493 
L 311.39276 115.588587 
L 312.692678 116.481523 
L 313.992596 117.056134 
L 315.292514 117.379437 
L 317.242391 117.589242 
L 319.517248 117.848238 
L 320.817166 118.224592 
L 321.792105 118.699321 
L 322.767043 119.384066 
L 323.741982 120.312862 
L 324.716921 121.51225 
L 325.691859 123.000139 
L 326.991777 125.44591 
L 328.291695 128.410681 
L 329.916593 132.783311 
L 331.86647 138.811172 
L 339.01602 161.896729 
L 340.640917 165.910309 
L 341.940835 168.528763 
L 343.240753 170.591175 
L 344.215692 171.778955 
L 345.190631 172.678932 
L 346.165569 173.321394 
L 347.140508 173.747091 
L 348.440426 174.064901 
L 352.66516 174.813711 
L 353.640098 175.314919 
L 354.615037 176.070057 
L 355.589975 177.12995 
L 356.564914 178.535892 
L 357.539853 180.31799 
L 358.514791 182.493898 
L 359.814709 186.013268 
L 361.114627 190.211506 
L 362.739525 196.304275 
L 364.689402 204.554928 
L 370.539034 230.126174 
L 372.163931 235.971763 
L 373.463849 239.917252 
L 374.763767 243.143008 
L 375.738706 245.079061 
L 376.713645 246.612313 
L 377.688583 247.769587 
L 378.663522 248.592201 
L 379.63846 249.134683 
L 380.938378 249.537593 
L 384.838133 250.351283 
L 385.813071 250.908706 
L 386.78801 251.767638 
L 387.762948 252.99493 
L 388.737887 254.645688 
L 389.712826 256.761144 
L 390.687764 259.366995 
L 391.987682 263.617448 
L 393.2876 268.727692 
L 394.912498 276.198795 
L 396.862375 286.394044 
L 398.487273 295.488 
L 398.487273 295.488 
" clip-path="url(#p0cb5305083)" style="fill: none; stroke: #d62728; stroke-width: 1.5; stroke-linecap: square"/>
   </g>
   <g id="patch_3">
    <path d="M 57.6 307.584 
L 57.6 41.472 
" style="fill: none; stroke: #000000; stroke-width: 0.8; stroke-linejoin: miter; stroke-linecap: square"/>
   </g>
   <g id="patch_4">
    <path d="M 414.72 307.584 
L 414.72 41.472 
" style="fill: none; stroke: #000000; stroke-width: 0.8; stroke-linejoin: miter; stroke-linecap: square"/>
   </g>
   <g id="patch_5">
    <path d="M 57.6 307.584 
L 414.72 307.584 
" style="fill: none; stroke: #000000; stroke-width: 0.8; stroke-linejoin: miter; stroke-linecap: square"/>
   </g>
   <g id="patch_6">
    <path d="M 57.6 41.472 
L 414.72 41.472 
" style="fill: none; stroke: #000000; stroke-width: 0.8; stroke-linejoin: miter; stroke-linecap: square"/>
   </g>
   <g id="text_15">
    <!-- Comparison Of Different Solvers -->
    <g transform="translate(139.31625 35.472) scale(0.12 -0.12)">
     <defs>
      <path id="DejaVuSans-43" d="M 4122 4306 
L 4122 3641 
Q 3803 3938 3442 4084 
Q 3081 4231 2675 4231 
Q 1875 4231 1450 3742 
Q 1025 3253 1025 2328 
Q 1025 1406 1450 917 
Q 1875 428 2675 428 
Q 3081 428 3442 575 
Q 3803 722 4122 1019 
L 4122 359 
Q 3791 134 3420 21 
Q 3050 -91 2638 -91 
Q 1578 -91 968 557 
Q 359 1206 359 2328 
Q 359 3453 968 4101 
Q 1578 4750 2638 4750 
Q 3056 4750 3426 4639 
Q 3797 4528 4122 4306 
z
" transform="scale(0.015625)"/>
      <path id="DejaVuSans-6f" d="M 1959 3097 
Q 1497 3097 1228 2736 
Q 959 2375 959 1747 
Q 959 1119 1226 758 
Q 1494 397 1959 397 
Q 2419 397 2687 759 
Q 2956 1122 2956 1747 
Q 2956 2369 2687 2733 
Q 2419 3097 1959 3097 
z
M 1959 3584 
Q 2709 3584 3137 3096 
Q 3566 2609 3566 1747 
Q 3566 888 3137 398 
Q 2709 -91 1959 -91 
Q 1206 -91 779 398 
Q 353 888 353 1747 
Q 353 2609 779 3096 
Q 1206 3584 1959 3584 
z
" transform="scale(0.015625)"/>
      <path id="DejaVuSans-6d" d="M 3328 2828 
Q 3544 3216 3844 3400 
Q 4144 3584 4550 3584 
Q 5097 3584 5394 3201 
Q 5691 2819 5691 2113 
L 5691 0 
L 5113 0 
L 5113 2094 
Q 5113 2597 4934 2840 
Q 4756 3084 4391 3084 
Q 3944 3084 3684 2787 
Q 3425 2491 3425 1978 
L 3425 0 
L 2847 0 
L 2847 2094 
Q 2847 2600 2669 2842 
Q 2491 3084 2119 3084 
Q 1678 3084 1418 2786 
Q 1159 2488 1159 1978 
L 1159 0 
L 581 0 
L 581 3500 
L 1159 3500 
L 1159 2956 
Q 1356 3278 1631 3431 
Q 1906 3584 2284 3584 
Q 2666 3584 2933 3390 
Q 3200 3197 3328 2828 
z
" transform="scale(0.015625)"/>
      <path id="DejaVuSans-70" d="M 1159 525 
L 1159 -1331 
L 581 -1331 
L 581 3500 
L 1159 3500 
L 1159 2969 
Q 1341 3281 1617 3432 
Q 1894 3584 2278 3584 
Q 2916 3584 3314 3078 
Q 3713 2572 3713 1747 
Q 3713 922 3314 415 
Q 2916 -91 2278 -91 
Q 1894 -91 1617 61 
Q 1341 213 1159 525 
z
M 3116 1747 
Q 3116 2381 2855 2742 
Q 2594 3103 2138 3103 
Q 1681 3103 1420 2742 
Q 1159 2381 1159 1747 
Q 1159 1113 1420 752 
Q 1681 391 2138 391 
Q 2594 391 2855 752 
Q 3116 1113 3116 1747 
z
" transform="scale(0.015625)"/>
      <path id="DejaVuSans-61" d="M 2194 1759 
Q 1497 1759 1228 1600 
Q 959 1441 959 1056 
Q 959 750 1161 570 
Q 1363 391 1709 391 
Q 2188 391 2477 730 
Q 2766 1069 2766 1631 
L 2766 1759 
L 2194 1759 
z
M 3341 1997 
L 3341 0 
L 2766 0 
L 2766 531 
Q 2569 213 2275 61 
Q 1981 -91 1556 -91 
Q 1019 -91 701 211 
Q 384 513 384 1019 
Q 384 1609 779 1909 
Q 1175 2209 1959 2209 
L 2766 2209 
L 2766 2266 
Q 2766 2663 2505 2880 
Q 2244 3097 1772 3097 
Q 1472 3097 1187 3025 
Q 903 2953 641 2809 
L 641 3341 
Q 956 3463 1253 3523 
Q 1550 3584 1831 3584 
Q 2591 3584 2966 3190 
Q 3341 2797 3341 1997 
z
" transform="scale(0.015625)"/>
      <path id="DejaVuSans-72" d="M 2631 2963 
Q 2534 3019 2420 3045 
Q 2306 3072 2169 3072 
Q 1681 3072 1420 2755 
Q 1159 2438 1159 1844 
L 1159 0 
L 581 0 
L 581 3500 
L 1159 3500 
L 1159 2956 
Q 1341 3275 1631 3429 
Q 1922 3584 2338 3584 
Q 2397 3584 2469 3576 
Q 2541 3569 2628 3553 
L 2631 2963 
z
" transform="scale(0.015625)"/>
      <path id="DejaVuSans-69" d="M 603 3500 
L 1178 3500 
L 1178 0 
L 603 0 
L 603 3500 
z
M 603 4863 
L 1178 4863 
L 1178 4134 
L 603 4134 
L 603 4863 
z
" transform="scale(0.015625)"/>
      <path id="DejaVuSans-73" d="M 2834 3397 
L 2834 2853 
Q 2591 2978 2328 3040 
Q 2066 3103 1784 3103 
Q 1356 3103 1142 2972 
Q 928 2841 928 2578 
Q 928 2378 1081 2264 
Q 1234 2150 1697 2047 
L 1894 2003 
Q 2506 1872 2764 1633 
Q 3022 1394 3022 966 
Q 3022 478 2636 193 
Q 2250 -91 1575 -91 
Q 1294 -91 989 -36 
Q 684 19 347 128 
L 347 722 
Q 666 556 975 473 
Q 1284 391 1588 391 
Q 1994 391 2212 530 
Q 2431 669 2431 922 
Q 2431 1156 2273 1281 
Q 2116 1406 1581 1522 
L 1381 1569 
Q 847 1681 609 1914 
Q 372 2147 372 2553 
Q 372 3047 722 3315 
Q 1072 3584 1716 3584 
Q 2034 3584 2315 3537 
Q 2597 3491 2834 3397 
z
" transform="scale(0.015625)"/>
      <path id="DejaVuSans-6e" d="M 3513 2113 
L 3513 0 
L 2938 0 
L 2938 2094 
Q 2938 2591 2744 2837 
Q 2550 3084 2163 3084 
Q 1697 3084 1428 2787 
Q 1159 2491 1159 1978 
L 1159 0 
L 581 0 
L 581 3500 
L 1159 3500 
L 1159 2956 
Q 1366 3272 1645 3428 
Q 1925 3584 2291 3584 
Q 2894 3584 3203 3211 
Q 3513 2838 3513 2113 
z
" transform="scale(0.015625)"/>
      <path id="DejaVuSans-20" transform="scale(0.015625)"/>
      <path id="DejaVuSans-4f" d="M 2522 4238 
Q 1834 4238 1429 3725 
Q 1025 3213 1025 2328 
Q 1025 1447 1429 934 
Q 1834 422 2522 422 
Q 3209 422 3611 934 
Q 4013 1447 4013 2328 
Q 4013 3213 3611 3725 
Q 3209 4238 2522 4238 
z
M 2522 4750 
Q 3503 4750 4090 4092 
Q 4678 3434 4678 2328 
Q 4678 1225 4090 567 
Q 3503 -91 2522 -91 
Q 1538 -91 948 565 
Q 359 1222 359 2328 
Q 359 3434 948 4092 
Q 1538 4750 2522 4750 
z
" transform="scale(0.015625)"/>
      <path id="DejaVuSans-66" d="M 2375 4863 
L 2375 4384 
L 1825 4384 
Q 1516 4384 1395 4259 
Q 1275 4134 1275 3809 
L 1275 3500 
L 2222 3500 
L 2222 3053 
L 1275 3053 
L 1275 0 
L 697 0 
L 697 3053 
L 147 3053 
L 147 3500 
L 697 3500 
L 697 3744 
Q 697 4328 969 4595 
Q 1241 4863 1831 4863 
L 2375 4863 
z
" transform="scale(0.015625)"/>
      <path id="DejaVuSans-44" d="M 1259 4147 
L 1259 519 
L 2022 519 
Q 2988 519 3436 956 
Q 3884 1394 3884 2338 
Q 3884 3275 3436 3711 
Q 2988 4147 2022 4147 
L 1259 4147 
z
M 628 4666 
L 1925 4666 
Q 3281 4666 3915 4102 
Q 4550 3538 4550 2338 
Q 4550 1131 3912 565 
Q 3275 0 1925 0 
L 628 0 
L 628 4666 
z
" transform="scale(0.015625)"/>
      <path id="DejaVuSans-65" d="M 3597 1894 
L 3597 1613 
L 953 1613 
Q 991 1019 1311 708 
Q 1631 397 2203 397 
Q 2534 397 2845 478 
Q 3156 559 3463 722 
L 3463 178 
Q 3153 47 2828 -22 
Q 2503 -91 2169 -91 
Q 1331 -91 842 396 
Q 353 884 353 1716 
Q 353 2575 817 3079 
Q 1281 3584 2069 3584 
Q 2775 3584 3186 3129 
Q 3597 2675 3597 1894 
z
M 3022 2063 
Q 3016 2534 2758 2815 
Q 2500 3097 2075 3097 
Q 1594 3097 1305 2825 
Q 1016 2553 972 2059 
L 3022 2063 
z
" transform="scale(0.015625)"/>
      <path id="DejaVuSans-74" d="M 1172 4494 
L 1172 3500 
L 2356 3500 
L 2356 3053 
L 1172 3053 
L 1172 1153 
Q 1172 725 1289 603 
Q 1406 481 1766 481 
L 2356 481 
L 2356 0 
L 1766 0 
Q 1100 0 847 248 
Q 594 497 594 1153 
L 594 3053 
L 172 3053 
L 172 3500 
L 594 3500 
L 594 4494 
L 1172 4494 
z
" transform="scale(0.015625)"/>
      <path id="DejaVuSans-53" d="M 3425 4513 
L 3425 3897 
Q 3066 4069 2747 4153 
Q 2428 4238 2131 4238 
Q 1616 4238 1336 4038 
Q 1056 3838 1056 3469 
Q 1056 3159 1242 3001 
Q 1428 2844 1947 2747 
L 2328 2669 
Q 3034 2534 3370 2195 
Q 3706 1856 3706 1288 
Q 3706 609 3251 259 
Q 2797 -91 1919 -91 
Q 1588 -91 1214 -16 
Q 841 59 441 206 
L 441 856 
Q 825 641 1194 531 
Q 1563 422 1919 422 
Q 2459 422 2753 634 
Q 3047 847 3047 1241 
Q 3047 1584 2836 1778 
Q 2625 1972 2144 2069 
L 1759 2144 
Q 1053 2284 737 2584 
Q 422 2884 422 3419 
Q 422 4038 858 4394 
Q 1294 4750 2059 4750 
Q 2388 4750 2728 4690 
Q 3069 4631 3425 4513 
z
" transform="scale(0.015625)"/>
      <path id="DejaVuSans-6c" d="M 603 4863 
L 1178 4863 
L 1178 0 
L 603 0 
L 603 4863 
z
" transform="scale(0.015625)"/>
      <path id="DejaVuSans-76" d="M 191 3500 
L 800 3500 
L 1894 563 
L 2988 3500 
L 3597 3500 
L 2284 0 
L 1503 0 
L 191 3500 
z
" transform="scale(0.015625)"/>
     </defs>
     <use xlink:href="#DejaVuSans-43"/>
     <use xlink:href="#DejaVuSans-6f" transform="translate(69.824219 0)"/>
     <use xlink:href="#DejaVuSans-6d" transform="translate(131.005859 0)"/>
     <use xlink:href="#DejaVuSans-70" transform="translate(228.417969 0)"/>
     <use xlink:href="#DejaVuSans-61" transform="translate(291.894531 0)"/>
     <use xlink:href="#DejaVuSans-72" transform="translate(353.173828 0)"/>
     <use xlink:href="#DejaVuSans-69" transform="translate(394.287109 0)"/>
     <use xlink:href="#DejaVuSans-73" transform="translate(422.070312 0)"/>
     <use xlink:href="#DejaVuSans-6f" transform="translate(474.169922 0)"/>
     <use xlink:href="#DejaVuSans-6e" transform="translate(535.351562 0)"/>
     <use xlink:href="#DejaVuSans-20" transform="translate(598.730469 0)"/>
     <use xlink:href="#DejaVuSans-4f" transform="translate(630.517578 0)"/>
     <use xlink:href="#DejaVuSans-66" transform="translate(709.228516 0)"/>
     <use xlink:href="#DejaVuSans-20" transform="translate(744.433594 0)"/>
     <use xlink:href="#DejaVuSans-44" transform="translate(776.220703 0)"/>
     <use xlink:href="#DejaVuSans-69" transform="translate(853.222656 0)"/>
     <use xlink:href="#DejaVuSans-66" transform="translate(881.005859 0)"/>
     <use xlink:href="#DejaVuSans-66" transform="translate(916.210938 0)"/>
     <use xlink:href="#DejaVuSans-65" transform="translate(951.416016 0)"/>
     <use xlink:href="#DejaVuSans-72" transform="translate(1012.939453 0)"/>
     <use xlink:href="#DejaVuSans-65" transform="translate(1051.802734 0)"/>
     <use xlink:href="#DejaVuSans-6e" transform="translate(1113.326172 0)"/>
     <use xlink:href="#DejaVuSans-74" transform="translate(1176.705078 0)"/>
     <use xlink:href="#DejaVuSans-20" transform="translate(1215.914062 0)"/>
     <use xlink:href="#DejaVuSans-53" transform="translate(1247.701172 0)"/>
     <use xlink:href="#DejaVuSans-6f" transform="translate(1311.177734 0)"/>
     <use xlink:href="#DejaVuSans-6c" transform="translate(1372.359375 0)"/>
     <use xlink:href="#DejaVuSans-76" transform="translate(1400.142578 0)"/>
     <use xlink:href="#DejaVuSans-65" transform="translate(1459.322266 0)"/>
     <use xlink:href="#DejaVuSans-72" transform="translate(1520.845703 0)"/>
     <use xlink:href="#DejaVuSans-73" transform="translate(1561.958984 0)"/>
    </g>
   </g>
   <g id="legend_1">
    <g id="patch_7">
     <path d="M 324.398125 108.462625 
L 407.72 108.462625 
Q 409.72 108.462625 409.72 106.462625 
L 409.72 48.472 
Q 409.72 46.472 407.72 46.472 
L 324.398125 46.472 
Q 322.398125 46.472 322.398125 48.472 
L 322.398125 106.462625 
Q 322.398125 108.462625 324.398125 108.462625 
z
" style="fill: #ffffff; opacity: 0.8; stroke: #cccccc; stroke-linejoin: miter"/>
    </g>
    <g id="line2d_17">
     <path d="M 326.398125 54.570438 
L 336.398125 54.570438 
L 346.398125 54.570438 
" style="fill: none; stroke: #1f77b4; stroke-width: 1.5; stroke-linecap: square"/>
    </g>
    <g id="text_16">
     <!-- macro -->
     <g transform="translate(354.398125 58.070438) scale(0.1 -0.1)">
      <defs>
       <path id="DejaVuSans-63" d="M 3122 3366 
L 3122 2828 
Q 2878 2963 2633 3030 
Q 2388 3097 2138 3097 
Q 1578 3097 1268 2742 
Q 959 2388 959 1747 
Q 959 1106 1268 751 
Q 1578 397 2138 397 
Q 2388 397 2633 464 
Q 2878 531 3122 666 
L 3122 134 
Q 2881 22 2623 -34 
Q 2366 -91 2075 -91 
Q 1284 -91 818 406 
Q 353 903 353 1747 
Q 353 2603 823 3093 
Q 1294 3584 2113 3584 
Q 2378 3584 2631 3529 
Q 2884 3475 3122 3366 
z
" transform="scale(0.015625)"/>
      </defs>
      <use xlink:href="#DejaVuSans-6d"/>
      <use xlink:href="#DejaVuSans-61" transform="translate(97.412109 0)"/>
      <use xlink:href="#DejaVuSans-63" transform="translate(158.691406 0)"/>
      <use xlink:href="#DejaVuSans-72" transform="translate(213.671875 0)"/>
      <use xlink:href="#DejaVuSans-6f" transform="translate(252.535156 0)"/>
     </g>
    </g>
    <g id="line2d_18">
     <path d="M 326.398125 69.248563 
L 336.398125 69.248563 
L 346.398125 69.248563 
" style="fill: none; stroke: #ff7f0e; stroke-width: 1.5; stroke-linecap: square"/>
    </g>
    <g id="text_17">
     <!-- multiscale -->
     <g transform="translate(354.398125 72.748563) scale(0.1 -0.1)">
      <defs>
       <path id="DejaVuSans-75" d="M 544 1381 
L 544 3500 
L 1119 3500 
L 1119 1403 
Q 1119 906 1312 657 
Q 1506 409 1894 409 
Q 2359 409 2629 706 
Q 2900 1003 2900 1516 
L 2900 3500 
L 3475 3500 
L 3475 0 
L 2900 0 
L 2900 538 
Q 2691 219 2414 64 
Q 2138 -91 1772 -91 
Q 1169 -91 856 284 
Q 544 659 544 1381 
z
M 1991 3584 
L 1991 3584 
z
" transform="scale(0.015625)"/>
      </defs>
      <use xlink:href="#DejaVuSans-6d"/>
      <use xlink:href="#DejaVuSans-75" transform="translate(97.412109 0)"/>
      <use xlink:href="#DejaVuSans-6c" transform="translate(160.791016 0)"/>
      <use xlink:href="#DejaVuSans-74" transform="translate(188.574219 0)"/>
      <use xlink:href="#DejaVuSans-69" transform="translate(227.783203 0)"/>
      <use xlink:href="#DejaVuSans-73" transform="translate(255.566406 0)"/>
      <use xlink:href="#DejaVuSans-63" transform="translate(307.666016 0)"/>
      <use xlink:href="#DejaVuSans-61" transform="translate(362.646484 0)"/>
      <use xlink:href="#DejaVuSans-6c" transform="translate(423.925781 0)"/>
      <use xlink:href="#DejaVuSans-65" transform="translate(451.708984 0)"/>
     </g>
    </g>
    <g id="line2d_19">
     <path d="M 326.398125 83.926688 
L 336.398125 83.926688 
L 346.398125 83.926688 
" style="fill: none; stroke: #2ca02c; stroke-width: 1.5; stroke-linecap: square"/>
    </g>
    <g id="text_18">
     <!-- multi_fine -->
     <g transform="translate(354.398125 87.426688) scale(0.1 -0.1)">
      <defs>
       <path id="DejaVuSans-5f" d="M 3263 -1063 
L 3263 -1509 
L -63 -1509 
L -63 -1063 
L 3263 -1063 
z
" transform="scale(0.015625)"/>
      </defs>
      <use xlink:href="#DejaVuSans-6d"/>
      <use xlink:href="#DejaVuSans-75" transform="translate(97.412109 0)"/>
      <use xlink:href="#DejaVuSans-6c" transform="translate(160.791016 0)"/>
      <use xlink:href="#DejaVuSans-74" transform="translate(188.574219 0)"/>
      <use xlink:href="#DejaVuSans-69" transform="translate(227.783203 0)"/>
      <use xlink:href="#DejaVuSans-5f" transform="translate(255.566406 0)"/>
      <use xlink:href="#DejaVuSans-66" transform="translate(305.566406 0)"/>
      <use xlink:href="#DejaVuSans-69" transform="translate(340.771484 0)"/>
      <use xlink:href="#DejaVuSans-6e" transform="translate(368.554688 0)"/>
      <use xlink:href="#DejaVuSans-65" transform="translate(431.933594 0)"/>
     </g>
    </g>
    <g id="line2d_20">
     <path d="M 326.398125 98.882938 
L 336.398125 98.882938 
L 346.398125 98.882938 
" style="fill: none; stroke: #d62728; stroke-width: 1.5; stroke-linecap: square"/>
    </g>
    <g id="text_19">
     <!-- reference -->
     <g transform="translate(354.398125 102.382938) scale(0.1 -0.1)">
      <use xlink:href="#DejaVuSans-72"/>
      <use xlink:href="#DejaVuSans-65" transform="translate(38.863281 0)"/>
      <use xlink:href="#DejaVuSans-66" transform="translate(100.386719 0)"/>
      <use xlink:href="#DejaVuSans-65" transform="translate(135.591797 0)"/>
      <use xlink:href="#DejaVuSans-72" transform="translate(197.115234 0)"/>
      <use xlink:href="#DejaVuSans-65" transform="translate(235.978516 0)"/>
      <use xlink:href="#DejaVuSans-6e" transform="translate(297.501953 0)"/>
      <use xlink:href="#DejaVuSans-63" transform="translate(360.880859 0)"/>
      <use xlink:href="#DejaVuSans-65" transform="translate(415.861328 0)"/>
     </g>
    </g>
   </g>
  </g>
 </g>
 <defs>
  <clipPath id="p0cb5305083">
   <rect x="57.6" y="41.472" width="357.12" height="266.112"/>
  </clipPath>
 </defs>
</svg>
